M48
; DRILL file {KiCad 8.0.4} date 2024-12-31T00:11:02+0400
; FORMAT={-:-/ absolute / metric / decimal}
; #@! TF.CreationDate,2024-12-31T00:11:02+04:00
; #@! TF.GenerationSoftware,Kicad,Pcbnew,8.0.4
; #@! TF.FileFunction,Plated,1,2,PTH
FMAT,2
METRIC
; #@! TA.AperFunction,Plated,PTH,ViaDrill
T1C0.600
; #@! TA.AperFunction,Plated,PTH,ComponentDrill
T2C0.600
; #@! TA.AperFunction,Plated,PTH,ComponentDrill
T3C0.800
; #@! TA.AperFunction,Plated,PTH,ComponentDrill
T4C0.900
; #@! TA.AperFunction,Plated,PTH,ComponentDrill
T5C0.920
; #@! TA.AperFunction,Plated,PTH,ComponentDrill
T6C1.000
; #@! TA.AperFunction,Plated,PTH,ComponentDrill
T7C1.100
; #@! TA.AperFunction,Plated,PTH,ComponentDrill
T8C2.300
%
G90
G05
T1
X116.25Y-94.2
X116.25Y-105.85
X116.4Y-111.85
X118.65Y-97.3
X118.7Y-102.95
X118.7Y-102.95
X118.7Y-109.05
X118.8Y-94.75
X118.8Y-105.45
X119.2Y-86.5
X119.45Y-111.8
X121.15Y-106.35
X121.7Y-85.05
X121.95Y-90.45
X122.0Y-96.3
X122.1Y-113.0
X122.1Y-116.35
X123.8Y-99.85
X124.6Y-116.75
X124.9Y-90.65
X125.0Y-113.35
X125.45Y-79.65
X126.35Y-102.5
X126.45Y-92.2
X127.5Y-88.45
X128.75Y-102.45
X129.15Y-106.15
X130.2Y-83.65
X130.6Y-110.9
X131.0Y-101.15
X131.8Y-103.9
X133.95Y-117.6
X134.05Y-87.5
X134.3Y-95.25
X134.4Y-97.85
X134.4Y-100.55
X135.65Y-80.0
X136.95Y-84.4
X137.25Y-112.05
X138.45Y-90.7
X139.1Y-114.45
X140.75Y-86.75
X141.6Y-79.95
X144.1Y-94.5
X144.8Y-114.95
X144.9Y-98.5
X146.25Y-91.1
X146.55Y-81.75
X146.55Y-87.55
X146.8Y-97.95
X147.15Y-89.4
X147.85Y-109.95
X147.9Y-85.85
X148.75Y-100.5
X148.8Y-88.05
X148.85Y-89.85
X148.85Y-97.1
X149.0Y-95.15
X149.7Y-85.65
X150.0Y-107.85
X150.05Y-87.55
X150.9Y-79.5
X151.05Y-106.3
X151.15Y-100.25
X151.7Y-108.8
X151.95Y-116.3
X153.1Y-94.7
X153.225Y-90.768
X154.1Y-108.85
X154.6Y-85.55
X154.6Y-112.7
X154.85Y-97.4
X155.1Y-106.35
X156.05Y-87.85
X156.4Y-85.3
X157.1Y-94.55
X157.687Y-110.675
X157.85Y-102.35
X158.8Y-91.0
T2
X133.1Y-105.45
X133.1Y-106.75
X133.1Y-108.05
X133.1Y-109.35
X134.4Y-105.45
X134.4Y-106.75
X134.4Y-108.05
X134.4Y-109.35
T4
X128.675Y-115.25
X131.215Y-115.25
T5
X127.05Y-90.3
X129.55Y-90.3
X131.55Y-90.3
X134.05Y-90.3
T6
X142.4Y-96.375
X142.45Y-89.35
X144.9Y-96.375
X144.95Y-89.35
X153.0Y-104.6
X153.0Y-107.1
T7
X141.85Y-113.6
X141.85Y-118.1
X148.35Y-113.6
X148.35Y-118.1
T8
X123.98Y-87.59
X137.12Y-87.59
T3
G00X117.23Y-96.25
M15
G01X117.23Y-95.75
M16
G05
G00X117.23Y-104.45
M15
G01X117.23Y-103.95
M16
G05
G00X120.17Y-96.25
M15
G01X120.17Y-95.75
M16
G05
G00X120.17Y-104.45
M15
G01X120.17Y-103.95
M16
G05
G00X151.73Y-87.65
M15
G01X151.73Y-87.15
M16
G05
G00X151.73Y-95.85
M15
G01X151.73Y-95.35
M16
G05
G00X154.67Y-87.65
M15
G01X154.67Y-87.15
M16
G05
G00X154.67Y-95.85
M15
G01X154.67Y-95.35
M16
G05
M30
