%TF.GenerationSoftware,KiCad,Pcbnew,8.0.4*%
%TF.CreationDate,2024-12-31T00:11:05+04:00*%
%TF.ProjectId,Powerbank,506f7765-7262-4616-9e6b-2e6b69636164,rev?*%
%TF.SameCoordinates,Original*%
%TF.FileFunction,Copper,L1,Top*%
%TF.FilePolarity,Positive*%
%FSLAX46Y46*%
G04 Gerber Fmt 4.6, Leading zero omitted, Abs format (unit mm)*
G04 Created by KiCad (PCBNEW 8.0.4) date 2024-12-31 00:11:05*
%MOMM*%
%LPD*%
G01*
G04 APERTURE LIST*
G04 Aperture macros list*
%AMRoundRect*
0 Rectangle with rounded corners*
0 $1 Rounding radius*
0 $2 $3 $4 $5 $6 $7 $8 $9 X,Y pos of 4 corners*
0 Add a 4 corners polygon primitive as box body*
4,1,4,$2,$3,$4,$5,$6,$7,$8,$9,$2,$3,0*
0 Add four circle primitives for the rounded corners*
1,1,$1+$1,$2,$3*
1,1,$1+$1,$4,$5*
1,1,$1+$1,$6,$7*
1,1,$1+$1,$8,$9*
0 Add four rect primitives between the rounded corners*
20,1,$1+$1,$2,$3,$4,$5,0*
20,1,$1+$1,$4,$5,$6,$7,0*
20,1,$1+$1,$6,$7,$8,$9,0*
20,1,$1+$1,$8,$9,$2,$3,0*%
G04 Aperture macros list end*
%TA.AperFunction,SMDPad,CuDef*%
%ADD10RoundRect,0.250000X-0.650000X0.412500X-0.650000X-0.412500X0.650000X-0.412500X0.650000X0.412500X0*%
%TD*%
%TA.AperFunction,SMDPad,CuDef*%
%ADD11RoundRect,0.250000X0.650000X-0.412500X0.650000X0.412500X-0.650000X0.412500X-0.650000X-0.412500X0*%
%TD*%
%TA.AperFunction,SMDPad,CuDef*%
%ADD12RoundRect,0.237500X0.237500X-0.250000X0.237500X0.250000X-0.237500X0.250000X-0.237500X-0.250000X0*%
%TD*%
%TA.AperFunction,ComponentPad*%
%ADD13C,2.000000*%
%TD*%
%TA.AperFunction,SMDPad,CuDef*%
%ADD14R,1.300000X0.270000*%
%TD*%
%TA.AperFunction,ComponentPad*%
%ADD15O,1.200000X1.700000*%
%TD*%
%TA.AperFunction,SMDPad,CuDef*%
%ADD16R,1.500000X2.400000*%
%TD*%
%TA.AperFunction,SMDPad,CuDef*%
%ADD17RoundRect,0.250000X0.412500X0.650000X-0.412500X0.650000X-0.412500X-0.650000X0.412500X-0.650000X0*%
%TD*%
%TA.AperFunction,SMDPad,CuDef*%
%ADD18RoundRect,0.237500X0.250000X0.237500X-0.250000X0.237500X-0.250000X-0.237500X0.250000X-0.237500X0*%
%TD*%
%TA.AperFunction,SMDPad,CuDef*%
%ADD19RoundRect,0.237500X-0.237500X0.250000X-0.237500X-0.250000X0.237500X-0.250000X0.237500X0.250000X0*%
%TD*%
%TA.AperFunction,ComponentPad*%
%ADD20RoundRect,0.250000X-0.600000X-0.750000X0.600000X-0.750000X0.600000X0.750000X-0.600000X0.750000X0*%
%TD*%
%TA.AperFunction,ComponentPad*%
%ADD21O,1.700000X2.000000*%
%TD*%
%TA.AperFunction,SMDPad,CuDef*%
%ADD22RoundRect,0.237500X-0.237500X0.287500X-0.237500X-0.287500X0.237500X-0.287500X0.237500X0.287500X0*%
%TD*%
%TA.AperFunction,SMDPad,CuDef*%
%ADD23RoundRect,0.237500X0.237500X-0.287500X0.237500X0.287500X-0.237500X0.287500X-0.237500X-0.287500X0*%
%TD*%
%TA.AperFunction,ComponentPad*%
%ADD24R,1.800000X1.800000*%
%TD*%
%TA.AperFunction,ComponentPad*%
%ADD25C,1.800000*%
%TD*%
%TA.AperFunction,ComponentPad*%
%ADD26R,1.524000X1.524000*%
%TD*%
%TA.AperFunction,ComponentPad*%
%ADD27C,1.524000*%
%TD*%
%TA.AperFunction,ComponentPad*%
%ADD28C,3.500000*%
%TD*%
%TA.AperFunction,ComponentPad*%
%ADD29RoundRect,0.250000X-0.750000X0.600000X-0.750000X-0.600000X0.750000X-0.600000X0.750000X0.600000X0*%
%TD*%
%TA.AperFunction,ComponentPad*%
%ADD30O,2.000000X1.700000*%
%TD*%
%TA.AperFunction,SMDPad,CuDef*%
%ADD31RoundRect,0.237500X-0.250000X-0.237500X0.250000X-0.237500X0.250000X0.237500X-0.250000X0.237500X0*%
%TD*%
%TA.AperFunction,SMDPad,CuDef*%
%ADD32RoundRect,0.150000X-0.737500X-0.150000X0.737500X-0.150000X0.737500X0.150000X-0.737500X0.150000X0*%
%TD*%
%TA.AperFunction,HeatsinkPad*%
%ADD33C,1.200000*%
%TD*%
%TA.AperFunction,HeatsinkPad*%
%ADD34R,2.950000X4.900000*%
%TD*%
%TA.AperFunction,ViaPad*%
%ADD35C,1.100000*%
%TD*%
%TA.AperFunction,Conductor*%
%ADD36C,0.300000*%
%TD*%
%TA.AperFunction,Conductor*%
%ADD37C,0.500000*%
%TD*%
%TA.AperFunction,Conductor*%
%ADD38C,1.000000*%
%TD*%
%TA.AperFunction,Conductor*%
%ADD39C,0.600000*%
%TD*%
%TA.AperFunction,Conductor*%
%ADD40C,0.250000*%
%TD*%
%TA.AperFunction,Conductor*%
%ADD41C,0.400000*%
%TD*%
%TA.AperFunction,Conductor*%
%ADD42C,0.800000*%
%TD*%
%TA.AperFunction,Conductor*%
%ADD43C,0.200000*%
%TD*%
G04 APERTURE END LIST*
D10*
%TO.P,C8,1*%
%TO.N,Net-(DD1-BAT)*%
X138950000Y-109137500D03*
%TO.P,C8,2*%
%TO.N,GND*%
X138950000Y-112262500D03*
%TD*%
D11*
%TO.P,C2,1*%
%TO.N,Net-(DD1-Vin)*%
X128750000Y-104012500D03*
%TO.P,C2,2*%
%TO.N,GND*%
X128750000Y-100887500D03*
%TD*%
D12*
%TO.P,R13,1*%
%TO.N,Net-(J6-D--PadA7)*%
X157050000Y-92512500D03*
%TO.P,R13,2*%
%TO.N,Net-(J6-D+-PadA6)*%
X157050000Y-90687500D03*
%TD*%
D13*
%TO.P,SW1,1,1*%
%TO.N,GND*%
X141850000Y-113600000D03*
X148350000Y-113600000D03*
%TO.P,SW1,2,2*%
%TO.N,Net-(R2-Pad2)*%
X141850000Y-118100001D03*
X148350001Y-118100000D03*
%TD*%
D14*
%TO.P,J2,A1,GND*%
%TO.N,GND*%
X116950000Y-102850000D03*
%TO.P,J2,A2,TX1+*%
%TO.N,unconnected-(J2-TX1+-PadA2)*%
X116950000Y-102350000D03*
%TO.P,J2,A3,TX1-*%
%TO.N,unconnected-(J2-TX1--PadA3)*%
X116950000Y-101850000D03*
%TO.P,J2,A4,VBUS*%
%TO.N,Net-(DD1-Vin)*%
X116950001Y-101350000D03*
%TO.P,J2,A5,CC1*%
%TO.N,unconnected-(J2-CC1-PadA5)*%
X116950000Y-100850000D03*
%TO.P,J2,A6,D+*%
%TO.N,unconnected-(J2-D+-PadA6)*%
X116950000Y-100350000D03*
%TO.P,J2,A7,D-*%
%TO.N,unconnected-(J2-D--PadA7)*%
X116950000Y-99850000D03*
%TO.P,J2,A8,SBU1*%
%TO.N,unconnected-(J2-SBU1-PadA8)*%
X116950000Y-99350000D03*
%TO.P,J2,A9,VBUS*%
%TO.N,Net-(DD1-Vin)*%
X116950001Y-98850000D03*
%TO.P,J2,A10,RX2-*%
%TO.N,unconnected-(J2-RX2--PadA10)*%
X116950000Y-98350000D03*
%TO.P,J2,A11,RX2+*%
%TO.N,unconnected-(J2-RX2+-PadA11)*%
X116950000Y-97850000D03*
%TO.P,J2,A12,GND*%
%TO.N,GND*%
X116950000Y-97350000D03*
%TO.P,J2,B1,GND*%
X120450000Y-97350000D03*
%TO.P,J2,B2,TX2+*%
%TO.N,unconnected-(J2-TX2+-PadB2)*%
X120450000Y-97850000D03*
%TO.P,J2,B3,TX2-*%
%TO.N,unconnected-(J2-TX2--PadB3)*%
X120450000Y-98350000D03*
%TO.P,J2,B4,VBUS*%
%TO.N,Net-(DD1-Vin)*%
X120449999Y-98850000D03*
%TO.P,J2,B5,CC2*%
%TO.N,unconnected-(J2-CC2-PadB5)*%
X120450000Y-99350000D03*
%TO.P,J2,B6,D+*%
%TO.N,unconnected-(J2-D+-PadB6)*%
X120450000Y-99850000D03*
%TO.P,J2,B7,D-*%
%TO.N,unconnected-(J2-D--PadB7)*%
X120450000Y-100350000D03*
%TO.P,J2,B8,SBU2*%
%TO.N,unconnected-(J2-SBU2-PadB8)*%
X120450000Y-100850000D03*
%TO.P,J2,B9,VBUS*%
%TO.N,Net-(DD1-Vin)*%
X120449999Y-101350000D03*
%TO.P,J2,B10,RX1-*%
%TO.N,unconnected-(J2-RX1--PadB10)*%
X120450000Y-101850000D03*
%TO.P,J2,B11,RX1+*%
%TO.N,unconnected-(J2-RX1+-PadB11)*%
X120450000Y-102350000D03*
%TO.P,J2,B12,GND*%
%TO.N,GND*%
X120450000Y-102850000D03*
D15*
%TO.P,J2,S1,SHIELD*%
X117230000Y-104200000D03*
X120170000Y-104200000D03*
X117230000Y-96000000D03*
X120170000Y-96000000D03*
%TD*%
D14*
%TO.P,J6,A1,GND*%
%TO.N,GND*%
X151450000Y-94250000D03*
%TO.P,J6,A2,TX1+*%
%TO.N,unconnected-(J6-TX1+-PadA2)*%
X151450000Y-93750000D03*
%TO.P,J6,A3,TX1-*%
%TO.N,unconnected-(J6-TX1--PadA3)*%
X151450000Y-93250000D03*
%TO.P,J6,A4,VBUS*%
%TO.N,Net-(DD1-Vout)*%
X151450000Y-92750000D03*
%TO.P,J6,A5,CC1*%
%TO.N,Net-(J6-CC1)*%
X151450000Y-92250000D03*
%TO.P,J6,A6,D+*%
%TO.N,Net-(J6-D+-PadA6)*%
X151450000Y-91750000D03*
%TO.P,J6,A7,D-*%
%TO.N,Net-(J6-D--PadA7)*%
X151450000Y-91250000D03*
%TO.P,J6,A8,SBU1*%
%TO.N,unconnected-(J6-SBU1-PadA8)*%
X151450000Y-90750000D03*
%TO.P,J6,A9,VBUS*%
%TO.N,Net-(DD1-Vout)*%
X151450000Y-90250000D03*
%TO.P,J6,A10,RX2-*%
%TO.N,unconnected-(J6-RX2--PadA10)*%
X151450000Y-89750000D03*
%TO.P,J6,A11,RX2+*%
%TO.N,unconnected-(J6-RX2+-PadA11)*%
X151450000Y-89250000D03*
%TO.P,J6,A12,GND*%
%TO.N,GND*%
X151450000Y-88750000D03*
%TO.P,J6,B1,GND*%
X154950000Y-88750000D03*
%TO.P,J6,B2,TX2+*%
%TO.N,unconnected-(J6-TX2+-PadB2)*%
X154950000Y-89250000D03*
%TO.P,J6,B3,TX2-*%
%TO.N,unconnected-(J6-TX2--PadB3)*%
X154950000Y-89750000D03*
%TO.P,J6,B4,VBUS*%
%TO.N,Net-(DD1-Vout)*%
X154950000Y-90250000D03*
%TO.P,J6,B5,CC2*%
%TO.N,Net-(J6-CC1)*%
X154950000Y-90750000D03*
%TO.P,J6,B6,D+*%
%TO.N,Net-(J6-D+-PadA6)*%
X154950000Y-91250000D03*
%TO.P,J6,B7,D-*%
%TO.N,Net-(J6-D--PadA7)*%
X154950000Y-91750000D03*
%TO.P,J6,B8,SBU2*%
%TO.N,unconnected-(J6-SBU2-PadB8)*%
X154950000Y-92250000D03*
%TO.P,J6,B9,VBUS*%
%TO.N,Net-(DD1-Vout)*%
X154950000Y-92750000D03*
%TO.P,J6,B10,RX1-*%
%TO.N,unconnected-(J6-RX1--PadB10)*%
X154950000Y-93250000D03*
%TO.P,J6,B11,RX1+*%
%TO.N,unconnected-(J6-RX1+-PadB11)*%
X154950000Y-93750000D03*
%TO.P,J6,B12,GND*%
%TO.N,GND*%
X154950000Y-94250000D03*
D15*
%TO.P,J6,S1,SHIELD*%
X151730000Y-95600000D03*
X154670000Y-95600000D03*
X151730000Y-87400000D03*
X154670000Y-87400000D03*
%TD*%
D16*
%TO.P,L1,1,1*%
%TO.N,Net-(DD1-SW)*%
X139250000Y-104450000D03*
%TO.P,L1,2,2*%
%TO.N,Net-(J1-Pin_1)*%
X144750000Y-104450000D03*
%TD*%
D17*
%TO.P,C5,1*%
%TO.N,Net-(DD1-Vout)*%
X136112500Y-99200000D03*
%TO.P,C5,2*%
%TO.N,GND*%
X132987500Y-99200000D03*
%TD*%
%TO.P,C6,1*%
%TO.N,Net-(DD1-Vout)*%
X136062500Y-101800000D03*
%TO.P,C6,2*%
%TO.N,GND*%
X132937500Y-101800000D03*
%TD*%
D18*
%TO.P,R8,1*%
%TO.N,Net-(DD1-Vout)*%
X130762500Y-94900000D03*
%TO.P,R8,2*%
%TO.N,Net-(J3-D+)*%
X128937500Y-94900000D03*
%TD*%
D19*
%TO.P,R15,1*%
%TO.N,Net-(J6-D--PadA7)*%
X159100000Y-94137500D03*
%TO.P,R15,2*%
%TO.N,GND*%
X159100000Y-95962500D03*
%TD*%
D20*
%TO.P,J5,1,Pin_1*%
%TO.N,Net-(DD1-Vout)*%
X142400000Y-96375000D03*
D21*
%TO.P,J5,2,Pin_2*%
%TO.N,GND*%
X144900000Y-96375000D03*
%TD*%
D11*
%TO.P,C1,1*%
%TO.N,Net-(C1-Pad1)*%
X126100000Y-104012500D03*
%TO.P,C1,2*%
%TO.N,GND*%
X126100000Y-100887500D03*
%TD*%
D19*
%TO.P,R2,1*%
%TO.N,Net-(DD1-KEY)*%
X135860000Y-111487500D03*
%TO.P,R2,2*%
%TO.N,Net-(R2-Pad2)*%
X135860000Y-113312500D03*
%TD*%
D12*
%TO.P,R16,1*%
%TO.N,Net-(DD1-Vout)*%
X148900000Y-92862500D03*
%TO.P,R16,2*%
%TO.N,Net-(J6-CC1)*%
X148900000Y-91037500D03*
%TD*%
D22*
%TO.P,D2,1,K*%
%TO.N,Net-(D1-A)*%
X123500000Y-108175001D03*
%TO.P,D2,2,A*%
%TO.N,Net-(D1-K)*%
X123500000Y-109924999D03*
%TD*%
D23*
%TO.P,D1,1,K*%
%TO.N,Net-(D1-K)*%
X121400000Y-109874999D03*
%TO.P,D1,2,A*%
%TO.N,Net-(D1-A)*%
X121400000Y-108125001D03*
%TD*%
D19*
%TO.P,R3,1*%
%TO.N,Net-(DD1-KEY)*%
X134250000Y-111487500D03*
%TO.P,R3,2*%
%TO.N,Net-(D5-A)*%
X134250000Y-113312500D03*
%TD*%
D18*
%TO.P,R7,1*%
%TO.N,Net-(J3-D-)*%
X127212500Y-98550000D03*
%TO.P,R7,2*%
%TO.N,GND*%
X125387500Y-98550000D03*
%TD*%
D23*
%TO.P,D3,1,K*%
%TO.N,Net-(D1-K)*%
X125650000Y-109924999D03*
%TO.P,D3,2,A*%
%TO.N,Net-(D3-A)*%
X125650000Y-108175001D03*
%TD*%
D18*
%TO.P,R4,1*%
%TO.N,Net-(J1-Pin_1)*%
X143262500Y-110960000D03*
%TO.P,R4,2*%
%TO.N,Net-(DD1-BAT)*%
X141437500Y-110960000D03*
%TD*%
D17*
%TO.P,C3,1*%
%TO.N,Net-(DD1-Vout)*%
X136112500Y-93850000D03*
%TO.P,C3,2*%
%TO.N,GND*%
X132987500Y-93850000D03*
%TD*%
D18*
%TO.P,R9,1*%
%TO.N,Net-(J3-D+)*%
X127362500Y-94900000D03*
%TO.P,R9,2*%
%TO.N,GND*%
X125537500Y-94900000D03*
%TD*%
D22*
%TO.P,D4,1,K*%
%TO.N,Net-(D3-A)*%
X128150000Y-108175001D03*
%TO.P,D4,2,A*%
%TO.N,Net-(D1-K)*%
X128150000Y-109924999D03*
%TD*%
D17*
%TO.P,C4,1*%
%TO.N,Net-(DD1-Vout)*%
X136062500Y-96550000D03*
%TO.P,C4,2*%
%TO.N,GND*%
X132937500Y-96550000D03*
%TD*%
D24*
%TO.P,D5,1,K*%
%TO.N,GND*%
X128675000Y-115250000D03*
D25*
%TO.P,D5,2,A*%
%TO.N,Net-(D5-A)*%
X131215000Y-115250000D03*
%TD*%
D19*
%TO.P,R14,1*%
%TO.N,Net-(J6-D+-PadA6)*%
X157100000Y-96137500D03*
%TO.P,R14,2*%
%TO.N,GND*%
X157100000Y-97962500D03*
%TD*%
D26*
%TO.P,J3,1,VBUS*%
%TO.N,Net-(DD1-Vout)*%
X134050000Y-90300000D03*
D27*
%TO.P,J3,2,D-*%
%TO.N,Net-(J3-D-)*%
X131550000Y-90300000D03*
%TO.P,J3,3,D+*%
%TO.N,Net-(J3-D+)*%
X129549999Y-90300000D03*
%TO.P,J3,4,GND*%
%TO.N,GND*%
X127050001Y-90300000D03*
D28*
%TO.P,J3,5,Shield*%
X137120000Y-87590000D03*
X123980000Y-87590000D03*
%TD*%
D18*
%TO.P,R5,1*%
%TO.N,Net-(J1-Pin_1)*%
X143212500Y-109150000D03*
%TO.P,R5,2*%
%TO.N,Net-(DD1-BAT)*%
X141387500Y-109150000D03*
%TD*%
D29*
%TO.P,J1,1,Pin_1*%
%TO.N,Net-(J1-Pin_1)*%
X153000000Y-104600000D03*
D30*
%TO.P,J1,2,Pin_2*%
%TO.N,GND*%
X153000000Y-107100000D03*
%TD*%
D18*
%TO.P,R6,1*%
%TO.N,Net-(DD1-Vout)*%
X130762500Y-98500000D03*
%TO.P,R6,2*%
%TO.N,Net-(J3-D-)*%
X128937500Y-98500000D03*
%TD*%
D31*
%TO.P,R10,1*%
%TO.N,Net-(J3-D+)*%
X127337500Y-96750000D03*
%TO.P,R10,2*%
%TO.N,Net-(J3-D-)*%
X129162500Y-96750000D03*
%TD*%
D10*
%TO.P,C7,1*%
%TO.N,Net-(J1-Pin_1)*%
X147750000Y-104737500D03*
%TO.P,C7,2*%
%TO.N,GND*%
X147750000Y-107862500D03*
%TD*%
D19*
%TO.P,R11,1*%
%TO.N,Net-(DD1-Vout)*%
X158100000Y-87187500D03*
%TO.P,R11,2*%
%TO.N,Net-(J6-D+-PadA6)*%
X158100000Y-89012500D03*
%TD*%
%TO.P,R12,1*%
%TO.N,Net-(DD1-Vout)*%
X159850000Y-87187500D03*
%TO.P,R12,2*%
%TO.N,Net-(J6-D--PadA7)*%
X159850000Y-89012500D03*
%TD*%
D12*
%TO.P,R1,1*%
%TO.N,Net-(DD1-Vin)*%
X123950000Y-104462500D03*
%TO.P,R1,2*%
%TO.N,Net-(C1-Pad1)*%
X123950000Y-102637500D03*
%TD*%
D32*
%TO.P,DD1,1,Vin*%
%TO.N,Net-(DD1-Vin)*%
X131187500Y-105495000D03*
%TO.P,DD1,2,LED1*%
%TO.N,Net-(D1-A)*%
X131187500Y-106765000D03*
%TO.P,DD1,3,LED2*%
%TO.N,Net-(D3-A)*%
X131187500Y-108035000D03*
%TO.P,DD1,4,LED3*%
%TO.N,Net-(D1-K)*%
X131187500Y-109305000D03*
%TO.P,DD1,5,KEY*%
%TO.N,Net-(DD1-KEY)*%
X136312500Y-109305000D03*
%TO.P,DD1,6,BAT*%
%TO.N,Net-(DD1-BAT)*%
X136312500Y-108035000D03*
%TO.P,DD1,7,SW*%
%TO.N,Net-(DD1-SW)*%
X136312500Y-106765000D03*
%TO.P,DD1,8,Vout*%
%TO.N,Net-(DD1-Vout)*%
X136312500Y-105495000D03*
D33*
%TO.P,DD1,9,GND*%
%TO.N,GND*%
X133100000Y-105450000D03*
X133100000Y-106750000D03*
X133100000Y-108050000D03*
X133100000Y-109350000D03*
D34*
X133750000Y-107400000D03*
D33*
X134400000Y-105450000D03*
X134400000Y-106750000D03*
X134400000Y-108050000D03*
X134400000Y-109350000D03*
%TD*%
D20*
%TO.P,J4,1,Pin_1*%
%TO.N,Net-(DD1-Vout)*%
X142450000Y-89350000D03*
D21*
%TO.P,J4,2,Pin_2*%
%TO.N,GND*%
X144950000Y-89350000D03*
%TD*%
D35*
%TO.N,GND*%
X116250000Y-105850000D03*
X134300000Y-95250000D03*
X118700000Y-102950000D03*
X121950000Y-90450000D03*
X146800000Y-97950000D03*
X122100000Y-113000000D03*
X150000000Y-107850000D03*
X144100000Y-94500000D03*
X146250000Y-91100000D03*
X151950000Y-116300000D03*
X140750000Y-86750000D03*
X139100000Y-114450000D03*
X121700000Y-85050000D03*
X131800000Y-103900000D03*
X149700000Y-85650000D03*
X119450000Y-111800000D03*
X122100000Y-116350000D03*
X154600000Y-112700000D03*
X134400000Y-100550000D03*
X150900000Y-79500000D03*
X127500000Y-88450000D03*
X148750000Y-100500000D03*
X157687007Y-110675053D03*
X119200000Y-86500000D03*
X147150000Y-89400000D03*
X146550000Y-87550000D03*
X154850000Y-97400000D03*
X126350000Y-102500000D03*
X122000000Y-96300000D03*
X137250000Y-112050000D03*
X118800000Y-94750000D03*
X129150000Y-106150000D03*
X118700000Y-109050000D03*
X128750000Y-102450000D03*
X125000000Y-113350000D03*
X155100000Y-106350000D03*
X118650000Y-97300000D03*
X151700000Y-108800000D03*
X121150000Y-106350000D03*
X134050000Y-87500000D03*
X136950000Y-84400000D03*
X118800000Y-105450000D03*
X156400000Y-85300000D03*
X131000000Y-101150000D03*
X118700000Y-102950000D03*
X116250000Y-94200000D03*
X149000000Y-95150000D03*
X154100000Y-108850000D03*
X150050000Y-87550000D03*
X141600000Y-79950000D03*
X130600000Y-110900000D03*
X126450000Y-92200000D03*
X151050000Y-106300000D03*
X156050000Y-87850000D03*
X154600000Y-85550000D03*
X148850000Y-97100000D03*
X146550000Y-81750000D03*
X153100000Y-94700000D03*
X123800000Y-99850000D03*
X133950000Y-117600000D03*
X147850000Y-109950000D03*
X134400000Y-97850000D03*
X144900000Y-98500000D03*
X151150000Y-100250000D03*
X116400000Y-111850000D03*
X130200000Y-83650000D03*
X125450000Y-79650000D03*
X157850000Y-102350000D03*
X138450000Y-90700000D03*
X144800000Y-114950000D03*
X135650000Y-80000000D03*
X124900000Y-90650000D03*
X147900000Y-85850000D03*
X124600000Y-116750000D03*
%TO.N,Net-(J6-D+-PadA6)*%
X148800000Y-88050000D03*
X158800000Y-91000000D03*
X157100000Y-94550000D03*
%TO.N,Net-(J6-CC1)*%
X148850000Y-89850000D03*
X153225059Y-90768350D03*
%TD*%
D36*
%TO.N,GND*%
X154670000Y-87030000D02*
X156400000Y-85300000D01*
X154670000Y-87400000D02*
X154670000Y-87030000D01*
X151730000Y-87180000D02*
X150800000Y-86250000D01*
X154950000Y-87680000D02*
X154670000Y-87400000D01*
X154950000Y-88750000D02*
X154950000Y-87680000D01*
X151450000Y-95320000D02*
X151730000Y-95600000D01*
X151450000Y-94250000D02*
X151450000Y-95320000D01*
X154950000Y-94250000D02*
X154950000Y-95320000D01*
X151730000Y-87400000D02*
X151730000Y-87180000D01*
X151450000Y-87680000D02*
X151730000Y-87400000D01*
X154950000Y-95320000D02*
X154670000Y-95600000D01*
X151450000Y-88750000D02*
X151450000Y-87680000D01*
D37*
%TO.N,Net-(C1-Pad1)*%
X124725000Y-102637500D02*
X126100000Y-104012500D01*
X123950000Y-102637500D02*
X124725000Y-102637500D01*
D38*
%TO.N,Net-(DD1-Vin)*%
X122350000Y-104000000D02*
X122812500Y-104462500D01*
D39*
X131187500Y-105495000D02*
X130787500Y-105095000D01*
D37*
X118200000Y-101350000D02*
X118200000Y-98850000D01*
D38*
X127312500Y-105900000D02*
X124900000Y-105900000D01*
X129181250Y-104031250D02*
X127312500Y-105900000D01*
D37*
X131187500Y-105495000D02*
X130895000Y-105495000D01*
D36*
X116950001Y-98850000D02*
X117950000Y-98850000D01*
D38*
X124900000Y-105900000D02*
X123950000Y-104950000D01*
X122100000Y-101350000D02*
X122350000Y-101600000D01*
D36*
X118200000Y-101350000D02*
X120449999Y-101350000D01*
D39*
X123950000Y-104462500D02*
X123950000Y-104950000D01*
D38*
X122100000Y-99050000D02*
X122100000Y-101350000D01*
X122350000Y-101600000D02*
X122350000Y-104000000D01*
D36*
X120449999Y-98850000D02*
X121385000Y-98850000D01*
X120449999Y-101350000D02*
X122100000Y-101350000D01*
D39*
X130787500Y-105095000D02*
X130245000Y-105095000D01*
D40*
X123562500Y-104462500D02*
X123950000Y-104462500D01*
D36*
X121385000Y-98850000D02*
X121900000Y-98850000D01*
D40*
X123662500Y-104750000D02*
X123950000Y-104462500D01*
D38*
X122812500Y-104462500D02*
X123950000Y-104462500D01*
D36*
X117950000Y-98850000D02*
X120449999Y-98850000D01*
D40*
X123150000Y-104750000D02*
X123662500Y-104750000D01*
D36*
X116950001Y-101350000D02*
X118200000Y-101350000D01*
D38*
X130245000Y-105095000D02*
X129181250Y-104031250D01*
D40*
X121900000Y-98850000D02*
X122100000Y-99050000D01*
D36*
%TO.N,Net-(DD1-Vout)*%
X157050000Y-87387500D02*
X157250000Y-87187500D01*
D38*
X136112500Y-94150000D02*
X136112500Y-101750000D01*
X136112500Y-92362500D02*
X142287500Y-92362500D01*
D36*
X153950000Y-90235000D02*
X154935000Y-90235000D01*
D41*
X130762500Y-98500000D02*
X130762500Y-94900000D01*
D36*
X153150000Y-89600000D02*
X153650000Y-89600000D01*
D38*
X136112500Y-92362500D02*
X134050000Y-90300000D01*
D36*
X152700000Y-89600000D02*
X153150000Y-89600000D01*
X154935000Y-90235000D02*
X154950000Y-90250000D01*
X151450000Y-92750000D02*
X149012500Y-92750000D01*
X157250000Y-87187500D02*
X159850000Y-87187500D01*
D38*
X142287500Y-92362500D02*
X142450000Y-92200000D01*
X142450000Y-86850000D02*
X142450000Y-89350000D01*
D36*
X154950000Y-90250000D02*
X155950000Y-90250000D01*
X157050000Y-89150000D02*
X157050000Y-87387500D01*
D38*
X151293503Y-84050000D02*
X145250000Y-84050000D01*
D36*
X153950000Y-89900000D02*
X153950000Y-90235000D01*
D38*
X142450000Y-89350000D02*
X142450000Y-92200000D01*
D36*
X152450000Y-89850000D02*
X152700000Y-89600000D01*
D38*
X152350000Y-84050000D02*
X151293503Y-84050000D01*
D41*
X130762500Y-94900000D02*
X130762500Y-93587500D01*
D38*
X148900000Y-92862500D02*
X148862500Y-92900000D01*
X148862500Y-92900000D02*
X142450000Y-92900000D01*
D41*
X130762500Y-93587500D02*
X134050000Y-90300000D01*
D36*
X149012500Y-92750000D02*
X148900000Y-92862500D01*
D38*
X142450000Y-96325000D02*
X142400000Y-96375000D01*
X145250000Y-84050000D02*
X142450000Y-86850000D01*
X153150000Y-84850000D02*
X153150000Y-88700000D01*
X153150000Y-88700000D02*
X153200000Y-88750000D01*
X142450000Y-92900000D02*
X142450000Y-96325000D01*
D41*
X136312500Y-102050000D02*
X136062500Y-101800000D01*
D38*
X153150000Y-84850000D02*
X152350000Y-84050000D01*
D36*
X153650000Y-89600000D02*
X153950000Y-89900000D01*
D38*
X136312500Y-105495000D02*
X136312500Y-102050000D01*
D36*
X152450000Y-90235000D02*
X152450000Y-89850000D01*
D38*
X136112500Y-94150000D02*
X136112500Y-92362500D01*
D36*
X154250000Y-90250000D02*
X154950000Y-90250000D01*
X154950000Y-92750000D02*
X151450000Y-92750000D01*
D38*
X142450000Y-92200000D02*
X142450000Y-92900000D01*
X142450000Y-89350000D02*
X142450000Y-88700000D01*
X136112500Y-101750000D02*
X136062500Y-101800000D01*
D42*
X153150000Y-89600000D02*
X153150000Y-88700000D01*
D36*
X155950000Y-90250000D02*
X157050000Y-89150000D01*
X151450000Y-90250000D02*
X152435000Y-90250000D01*
D37*
%TO.N,Net-(J1-Pin_1)*%
X148950000Y-104687500D02*
X148950000Y-105400000D01*
X144950000Y-109150000D02*
X143212500Y-109150000D01*
X148950000Y-105400000D02*
X148200000Y-106150000D01*
X145750000Y-106750000D02*
X145750000Y-108350000D01*
D38*
X147500000Y-104687500D02*
X148950000Y-104687500D01*
D37*
X146350000Y-106150000D02*
X145750000Y-106750000D01*
D38*
X152912500Y-104687500D02*
X153000000Y-104600000D01*
D37*
X143212500Y-109150000D02*
X143212500Y-110910000D01*
D38*
X148950000Y-104687500D02*
X152912500Y-104687500D01*
D37*
X145750000Y-108350000D02*
X144950000Y-109150000D01*
D38*
X147500000Y-104687500D02*
X144987500Y-104687500D01*
D37*
X143212500Y-110910000D02*
X143262500Y-110960000D01*
D38*
X144987500Y-104687500D02*
X144750000Y-104450000D01*
D37*
X148200000Y-106150000D02*
X146350000Y-106150000D01*
%TO.N,Net-(DD1-BAT)*%
X141387500Y-109150000D02*
X138962500Y-109150000D01*
X138962500Y-109150000D02*
X138950000Y-109137500D01*
D39*
X137847500Y-108035000D02*
X136312500Y-108035000D01*
D37*
X141437500Y-109200000D02*
X141387500Y-109150000D01*
X141437500Y-110960000D02*
X141437500Y-109200000D01*
D39*
X138950000Y-109137500D02*
X137847500Y-108035000D01*
%TO.N,Net-(D5-A)*%
X134250000Y-113312500D02*
X133152500Y-113312500D01*
X133152500Y-113312500D02*
X131215000Y-115250000D01*
D38*
%TO.N,Net-(DD1-SW)*%
X137199999Y-106765000D02*
X137985000Y-106765000D01*
D42*
X136312500Y-106765000D02*
X137199999Y-106765000D01*
D38*
X137985000Y-106765000D02*
X139250000Y-105500000D01*
X139250000Y-105500000D02*
X139250000Y-104450000D01*
D36*
%TO.N,Net-(D1-A)*%
X130135000Y-106765000D02*
X129650000Y-107250000D01*
X131187500Y-106765000D02*
X130135000Y-106765000D01*
D37*
X121400000Y-108125001D02*
X123450000Y-108125001D01*
X123450000Y-108125001D02*
X123500000Y-108175001D01*
D36*
X129650000Y-107250000D02*
X124425001Y-107250000D01*
X124425001Y-107250000D02*
X123500000Y-108175001D01*
D37*
%TO.N,Net-(D1-K)*%
X129350000Y-109900000D02*
X129945000Y-109305000D01*
X129945000Y-109305000D02*
X131187500Y-109305000D01*
X121400000Y-109874999D02*
X121425001Y-109900000D01*
X121425001Y-109900000D02*
X129350000Y-109900000D01*
%TO.N,Net-(D3-A)*%
X129035000Y-108035000D02*
X131187500Y-108035000D01*
X128965002Y-108035000D02*
X129035000Y-108035000D01*
X128825001Y-108175001D02*
X128965002Y-108035000D01*
X128150000Y-108175001D02*
X128825001Y-108175001D01*
X125650000Y-108175001D02*
X128825001Y-108175001D01*
D39*
%TO.N,Net-(DD1-KEY)*%
X136312500Y-109305000D02*
X136312500Y-111035000D01*
X136312500Y-111035000D02*
X135860000Y-111487500D01*
X135860000Y-111487500D02*
X134250000Y-111487500D01*
%TO.N,Net-(R2-Pad2)*%
X139700001Y-118100001D02*
X141850000Y-118100001D01*
X135860000Y-114260000D02*
X139700001Y-118100001D01*
X142150001Y-118100001D02*
X142150002Y-118100000D01*
X135860000Y-113312500D02*
X135860000Y-114260000D01*
X142150002Y-118100000D02*
X148350001Y-118100000D01*
X141850000Y-118100001D02*
X142150001Y-118100001D01*
D36*
%TO.N,Net-(J3-D-)*%
X129162500Y-96750000D02*
X129875000Y-96037500D01*
D37*
X129150000Y-96750000D02*
X128937500Y-96962500D01*
D36*
X129875000Y-96037500D02*
X129875000Y-92925000D01*
X129875000Y-92925000D02*
X131550000Y-91250000D01*
D37*
X128937500Y-96962500D02*
X128937500Y-98500000D01*
X129162500Y-96750000D02*
X129150000Y-96750000D01*
D36*
X131550000Y-91250000D02*
X131550000Y-90300000D01*
D37*
X128887500Y-98550000D02*
X128937500Y-98500000D01*
X127212500Y-98550000D02*
X128887500Y-98550000D01*
D36*
%TO.N,Net-(J3-D+)*%
X129549999Y-91450001D02*
X128100000Y-92900000D01*
D37*
X127362500Y-96725000D02*
X127337500Y-96750000D01*
X128100000Y-94900000D02*
X128937500Y-94900000D01*
X127362500Y-94900000D02*
X127362500Y-96725000D01*
D36*
X128100000Y-92900000D02*
X128100000Y-94900000D01*
X129549999Y-90300000D02*
X129549999Y-91450001D01*
D37*
X127362500Y-94900000D02*
X128100000Y-94900000D01*
D36*
%TO.N,Net-(J6-D+-PadA6)*%
X158800000Y-91000000D02*
X157362500Y-91000000D01*
X157100000Y-96137500D02*
X157100000Y-94550000D01*
X148900000Y-88050000D02*
X149950000Y-89100000D01*
X157362500Y-91000000D02*
X157050000Y-90687500D01*
X149950000Y-91235000D02*
X150465000Y-91750000D01*
X148800000Y-88050000D02*
X148900000Y-88050000D01*
X156487500Y-91250000D02*
X157050000Y-90687500D01*
X158100000Y-89012500D02*
X158100000Y-89637500D01*
X154950000Y-91250000D02*
X156487500Y-91250000D01*
X149950000Y-89100000D02*
X149950000Y-91235000D01*
X150465000Y-91750000D02*
X151450000Y-91750000D01*
X158100000Y-89637500D02*
X157050000Y-90687500D01*
D43*
%TO.N,Net-(J6-CC1)*%
X154950000Y-90750000D02*
X153800000Y-90750000D01*
D36*
X148850000Y-89850000D02*
X148850000Y-91250000D01*
X148850000Y-91250000D02*
X149850000Y-92250000D01*
X149850000Y-92250000D02*
X151450000Y-92250000D01*
%TO.N,Net-(J6-D--PadA7)*%
X159950000Y-89112500D02*
X159950000Y-91950000D01*
D43*
X151450000Y-91250000D02*
X152450000Y-91250000D01*
X152950000Y-91750000D02*
X154950000Y-91750000D01*
D36*
X159850000Y-89012500D02*
X159950000Y-89112500D01*
D43*
X154950000Y-91750000D02*
X156287500Y-91750000D01*
X152450000Y-91250000D02*
X152950000Y-91750000D01*
X157475000Y-92512500D02*
X159100000Y-94137500D01*
X156287500Y-91750000D02*
X157050000Y-92512500D01*
D36*
X159950000Y-91950000D02*
X159387500Y-92512500D01*
X159387500Y-92512500D02*
X157050000Y-92512500D01*
D43*
X157050000Y-92512500D02*
X157475000Y-92512500D01*
%TD*%
%TA.AperFunction,Conductor*%
%TO.N,GND*%
G36*
X134159940Y-108234205D02*
G01*
X134215795Y-108290060D01*
X134270042Y-108321379D01*
X133891422Y-108700000D01*
X134270042Y-109078620D01*
X134215795Y-109109940D01*
X134159940Y-109165795D01*
X134128620Y-109220042D01*
X133750000Y-108841422D01*
X133371379Y-109220042D01*
X133340060Y-109165795D01*
X133284205Y-109109940D01*
X133229957Y-109078620D01*
X133608578Y-108700000D01*
X133229957Y-108321379D01*
X133284205Y-108290060D01*
X133340060Y-108234205D01*
X133371379Y-108179957D01*
X133750000Y-108558578D01*
X134128620Y-108179957D01*
X134159940Y-108234205D01*
G37*
%TD.AperFunction*%
%TA.AperFunction,Conductor*%
G36*
X134159940Y-106934205D02*
G01*
X134215795Y-106990060D01*
X134270042Y-107021379D01*
X133891422Y-107400000D01*
X134270042Y-107778620D01*
X134215795Y-107809940D01*
X134159940Y-107865795D01*
X134128620Y-107920042D01*
X133750000Y-107541422D01*
X133371379Y-107920042D01*
X133340060Y-107865795D01*
X133284205Y-107809940D01*
X133229957Y-107778620D01*
X133608578Y-107400000D01*
X133229957Y-107021379D01*
X133284205Y-106990060D01*
X133340060Y-106934205D01*
X133371379Y-106879957D01*
X133750000Y-107258578D01*
X134128620Y-106879957D01*
X134159940Y-106934205D01*
G37*
%TD.AperFunction*%
%TA.AperFunction,Conductor*%
G36*
X132859940Y-106934205D02*
G01*
X132915795Y-106990060D01*
X132970042Y-107021379D01*
X132591422Y-107400000D01*
X132970042Y-107778620D01*
X132915795Y-107809940D01*
X132859940Y-107865795D01*
X132828620Y-107920041D01*
X132395725Y-107487146D01*
X132367876Y-107518077D01*
X132367874Y-107518079D01*
X132317409Y-107605486D01*
X132271939Y-107646427D01*
X132211088Y-107652821D01*
X132161671Y-107625990D01*
X132131483Y-107595802D01*
X132131481Y-107595801D01*
X132026395Y-107544427D01*
X131999139Y-107540456D01*
X131958260Y-107534500D01*
X130416740Y-107534500D01*
X130348607Y-107544427D01*
X130287212Y-107574441D01*
X130243732Y-107584500D01*
X130050189Y-107584500D01*
X129991998Y-107565593D01*
X129956034Y-107516093D01*
X129956034Y-107454907D01*
X129980185Y-107415497D01*
X130022485Y-107373197D01*
X130158588Y-107237092D01*
X130213102Y-107209316D01*
X130272070Y-107218156D01*
X130348607Y-107255573D01*
X130416740Y-107265500D01*
X130416743Y-107265500D01*
X131958257Y-107265500D01*
X131958260Y-107265500D01*
X132026393Y-107255573D01*
X132131483Y-107204198D01*
X132161672Y-107174008D01*
X132216185Y-107146233D01*
X132276617Y-107155804D01*
X132317409Y-107194513D01*
X132367877Y-107281924D01*
X132395725Y-107312851D01*
X132828619Y-106879956D01*
X132859940Y-106934205D01*
G37*
%TD.AperFunction*%
%TA.AperFunction,Conductor*%
G36*
X135104272Y-107312850D02*
G01*
X135132125Y-107281920D01*
X135182589Y-107194514D01*
X135228059Y-107153573D01*
X135288909Y-107147177D01*
X135338327Y-107174008D01*
X135368517Y-107204198D01*
X135397071Y-107218157D01*
X135473604Y-107255572D01*
X135473605Y-107255572D01*
X135473607Y-107255573D01*
X135541740Y-107265500D01*
X135951864Y-107265500D01*
X136001362Y-107278762D01*
X136080716Y-107324577D01*
X136137804Y-107339873D01*
X136189118Y-107373197D01*
X136211044Y-107430319D01*
X136195208Y-107489419D01*
X136147658Y-107527925D01*
X136112180Y-107534500D01*
X135541740Y-107534500D01*
X135507673Y-107539463D01*
X135473604Y-107544427D01*
X135368518Y-107595801D01*
X135338328Y-107625991D01*
X135283811Y-107653767D01*
X135223379Y-107644195D01*
X135182588Y-107605485D01*
X135132126Y-107518081D01*
X135104272Y-107487146D01*
X134671378Y-107920040D01*
X134640060Y-107865795D01*
X134584205Y-107809940D01*
X134529957Y-107778620D01*
X134908578Y-107400000D01*
X134529957Y-107021379D01*
X134584205Y-106990060D01*
X134640060Y-106934205D01*
X134671379Y-106879957D01*
X135104272Y-107312850D01*
G37*
%TD.AperFunction*%
%TA.AperFunction,Conductor*%
G36*
X134159940Y-105634205D02*
G01*
X134215795Y-105690060D01*
X134270042Y-105721379D01*
X133891422Y-106100000D01*
X134270042Y-106478620D01*
X134215795Y-106509940D01*
X134159940Y-106565795D01*
X134128620Y-106620042D01*
X133750000Y-106241422D01*
X133371379Y-106620042D01*
X133340060Y-106565795D01*
X133284205Y-106509940D01*
X133229957Y-106478620D01*
X133608578Y-106100000D01*
X133229957Y-105721379D01*
X133284205Y-105690060D01*
X133340060Y-105634205D01*
X133371379Y-105579957D01*
X133750000Y-105958578D01*
X134128620Y-105579957D01*
X134159940Y-105634205D01*
G37*
%TD.AperFunction*%
%TA.AperFunction,Conductor*%
G36*
X135104272Y-106012850D02*
G01*
X135132126Y-105981919D01*
X135171608Y-105913534D01*
X135217077Y-105872592D01*
X135277927Y-105866196D01*
X135327346Y-105893027D01*
X135368517Y-105934198D01*
X135422285Y-105960483D01*
X135473604Y-105985572D01*
X135473605Y-105985572D01*
X135473607Y-105985573D01*
X135541740Y-105995500D01*
X135781336Y-105995500D01*
X135839527Y-106014407D01*
X135851340Y-106024496D01*
X135865958Y-106039114D01*
X135931914Y-106083185D01*
X135969793Y-106131235D01*
X135972195Y-106192374D01*
X135938201Y-106243247D01*
X135880798Y-106264424D01*
X135876912Y-106264500D01*
X135541740Y-106264500D01*
X135507673Y-106269463D01*
X135473604Y-106274427D01*
X135368518Y-106325801D01*
X135368514Y-106325803D01*
X135349308Y-106345010D01*
X135294791Y-106372786D01*
X135234359Y-106363214D01*
X135193569Y-106324505D01*
X135132125Y-106218080D01*
X135104272Y-106187146D01*
X134671378Y-106620040D01*
X134640060Y-106565795D01*
X134584205Y-106509940D01*
X134529957Y-106478620D01*
X134908578Y-106100000D01*
X134529957Y-105721379D01*
X134584205Y-105690060D01*
X134640060Y-105634205D01*
X134671379Y-105579957D01*
X135104272Y-106012850D01*
G37*
%TD.AperFunction*%
%TA.AperFunction,Conductor*%
G36*
X152077026Y-84769407D02*
G01*
X152088839Y-84779496D01*
X152420504Y-85111161D01*
X152448281Y-85165678D01*
X152449500Y-85181165D01*
X152449500Y-85531969D01*
X152430593Y-85590160D01*
X152381093Y-85626124D01*
X152319907Y-85626124D01*
X152280498Y-85601974D01*
X152238015Y-85559491D01*
X152238012Y-85559489D01*
X152238010Y-85559487D01*
X152112488Y-85487017D01*
X152112489Y-85487017D01*
X152082896Y-85479087D01*
X151972475Y-85449500D01*
X151827525Y-85449500D01*
X151765790Y-85466041D01*
X151687510Y-85487017D01*
X151561989Y-85559487D01*
X151459487Y-85661989D01*
X151387017Y-85787510D01*
X151349500Y-85927525D01*
X151349500Y-86072474D01*
X151388696Y-86218753D01*
X151387050Y-86219193D01*
X151391205Y-86272012D01*
X151359233Y-86324179D01*
X151332828Y-86340360D01*
X151303691Y-86352429D01*
X151156284Y-86450923D01*
X151030923Y-86576284D01*
X150932429Y-86723691D01*
X150864586Y-86887478D01*
X150864586Y-86887480D01*
X150830000Y-87061355D01*
X150830000Y-87299999D01*
X150830001Y-87300000D01*
X151330000Y-87300000D01*
X151330000Y-87500000D01*
X150830001Y-87500000D01*
X150830000Y-87500001D01*
X150830000Y-87738644D01*
X150864586Y-87912519D01*
X150864586Y-87912521D01*
X150932429Y-88076308D01*
X150989017Y-88160998D01*
X151005626Y-88219886D01*
X150984449Y-88277290D01*
X150933575Y-88311283D01*
X150906703Y-88315000D01*
X150755210Y-88315000D01*
X150755207Y-88315001D01*
X150730125Y-88317909D01*
X150627522Y-88363213D01*
X150548213Y-88442522D01*
X150502909Y-88545127D01*
X150500000Y-88570202D01*
X150500000Y-88649999D01*
X150500001Y-88650000D01*
X151451000Y-88650000D01*
X151509191Y-88668907D01*
X151545155Y-88718407D01*
X151550000Y-88749000D01*
X151550000Y-88751000D01*
X151531093Y-88809191D01*
X151481593Y-88845155D01*
X151451000Y-88850000D01*
X150500002Y-88850000D01*
X150500001Y-88850001D01*
X150500001Y-88929791D01*
X150502909Y-88954874D01*
X150548213Y-89057477D01*
X150570504Y-89079768D01*
X150598281Y-89134285D01*
X150599500Y-89149772D01*
X150599500Y-89404750D01*
X150613035Y-89472794D01*
X150611534Y-89473092D01*
X150615471Y-89523111D01*
X150611290Y-89535976D01*
X150599500Y-89595249D01*
X150599500Y-89904750D01*
X150613035Y-89972794D01*
X150611534Y-89973092D01*
X150615471Y-90023111D01*
X150611290Y-90035976D01*
X150599500Y-90095249D01*
X150599500Y-90404750D01*
X150613035Y-90472794D01*
X150611534Y-90473092D01*
X150615471Y-90523111D01*
X150611290Y-90535976D01*
X150599500Y-90595249D01*
X150599500Y-90904750D01*
X150613035Y-90972794D01*
X150611534Y-90973092D01*
X150615471Y-91023111D01*
X150611290Y-91035976D01*
X150599500Y-91095249D01*
X150599500Y-91149810D01*
X150580593Y-91208001D01*
X150531093Y-91243965D01*
X150469907Y-91243965D01*
X150430496Y-91219814D01*
X150329496Y-91118814D01*
X150301719Y-91064297D01*
X150300500Y-91048810D01*
X150300500Y-89053857D01*
X150297589Y-89042993D01*
X150276614Y-88964712D01*
X150241751Y-88904328D01*
X150230470Y-88884789D01*
X150230468Y-88884787D01*
X150165212Y-88819530D01*
X150165212Y-88819531D01*
X149572801Y-88227119D01*
X149545024Y-88172602D01*
X149544428Y-88146033D01*
X149555249Y-88050000D01*
X149555249Y-88049995D01*
X149536314Y-87881946D01*
X149536311Y-87881934D01*
X149500228Y-87778816D01*
X149480456Y-87722310D01*
X149454189Y-87680507D01*
X149390479Y-87579113D01*
X149390478Y-87579112D01*
X149390477Y-87579110D01*
X149270890Y-87459523D01*
X149270887Y-87459521D01*
X149270886Y-87459520D01*
X149127691Y-87369544D01*
X148968065Y-87313688D01*
X148968053Y-87313685D01*
X148800004Y-87294751D01*
X148799996Y-87294751D01*
X148631946Y-87313685D01*
X148631934Y-87313688D01*
X148472309Y-87369544D01*
X148472308Y-87369544D01*
X148329113Y-87459520D01*
X148209520Y-87579113D01*
X148119544Y-87722308D01*
X148119544Y-87722309D01*
X148063688Y-87881934D01*
X148063685Y-87881946D01*
X148044751Y-88049995D01*
X148044751Y-88050004D01*
X148063685Y-88218053D01*
X148063688Y-88218065D01*
X148119544Y-88377690D01*
X148119544Y-88377691D01*
X148209520Y-88520886D01*
X148209523Y-88520890D01*
X148329110Y-88640477D01*
X148329112Y-88640478D01*
X148329113Y-88640479D01*
X148439337Y-88709738D01*
X148472310Y-88730456D01*
X148504101Y-88741580D01*
X148631934Y-88786311D01*
X148631938Y-88786312D01*
X148631941Y-88786313D01*
X148631942Y-88786313D01*
X148631946Y-88786314D01*
X148799996Y-88805249D01*
X148800000Y-88805249D01*
X148800004Y-88805249D01*
X148968053Y-88786314D01*
X148968055Y-88786313D01*
X148968059Y-88786313D01*
X149037184Y-88762124D01*
X149098351Y-88760751D01*
X149139881Y-88785563D01*
X149359137Y-89004818D01*
X149570504Y-89216185D01*
X149598281Y-89270702D01*
X149599500Y-89286189D01*
X149599500Y-89299126D01*
X149580593Y-89357317D01*
X149531093Y-89393281D01*
X149469907Y-89393281D01*
X149430498Y-89369131D01*
X149320890Y-89259523D01*
X149320887Y-89259521D01*
X149320886Y-89259520D01*
X149177691Y-89169544D01*
X149018065Y-89113688D01*
X149018053Y-89113685D01*
X148850004Y-89094751D01*
X148849996Y-89094751D01*
X148681946Y-89113685D01*
X148681934Y-89113688D01*
X148522309Y-89169544D01*
X148522308Y-89169544D01*
X148379113Y-89259520D01*
X148259520Y-89379113D01*
X148169544Y-89522308D01*
X148169544Y-89522309D01*
X148113688Y-89681934D01*
X148113685Y-89681946D01*
X148094751Y-89849995D01*
X148094751Y-89850004D01*
X148113685Y-90018053D01*
X148113688Y-90018065D01*
X148169544Y-90177690D01*
X148169544Y-90177691D01*
X148258677Y-90319544D01*
X148259523Y-90320890D01*
X148316068Y-90377435D01*
X148343844Y-90431950D01*
X148334273Y-90492382D01*
X148325719Y-90506224D01*
X148270884Y-90580524D01*
X148227276Y-90705147D01*
X148227274Y-90705155D01*
X148224500Y-90734733D01*
X148224500Y-91340266D01*
X148227274Y-91369844D01*
X148227276Y-91369852D01*
X148270884Y-91494476D01*
X148344559Y-91594302D01*
X148349289Y-91600711D01*
X148349292Y-91600713D01*
X148349293Y-91600714D01*
X148455523Y-91679115D01*
X148455524Y-91679115D01*
X148455525Y-91679116D01*
X148580151Y-91722725D01*
X148607441Y-91725284D01*
X148609733Y-91725499D01*
X148609738Y-91725500D01*
X148609744Y-91725500D01*
X148788810Y-91725500D01*
X148847001Y-91744407D01*
X148858814Y-91754496D01*
X149109372Y-92005054D01*
X149137149Y-92059571D01*
X149127578Y-92120003D01*
X149084313Y-92163268D01*
X149023881Y-92172839D01*
X149020055Y-92172156D01*
X148968999Y-92162000D01*
X148968994Y-92162000D01*
X148831006Y-92162000D01*
X148831003Y-92162000D01*
X148777727Y-92172598D01*
X148758413Y-92174500D01*
X148609733Y-92174500D01*
X148580155Y-92177274D01*
X148580147Y-92177276D01*
X148532514Y-92193944D01*
X148499816Y-92199500D01*
X143249500Y-92199500D01*
X143191309Y-92180593D01*
X143155345Y-92131093D01*
X143150500Y-92100500D01*
X143150500Y-90612361D01*
X143169407Y-90554170D01*
X143216801Y-90518917D01*
X143262882Y-90502793D01*
X143266667Y-90500000D01*
X143346037Y-90441422D01*
X143372150Y-90422150D01*
X143452793Y-90312882D01*
X143497646Y-90184699D01*
X143500499Y-90154273D01*
X143500500Y-90154273D01*
X143500500Y-89109489D01*
X143800000Y-89109489D01*
X143800000Y-89249999D01*
X143800001Y-89250000D01*
X144459157Y-89250000D01*
X144450000Y-89284174D01*
X144450000Y-89415826D01*
X144459157Y-89450000D01*
X143800001Y-89450000D01*
X143800000Y-89450001D01*
X143800000Y-89590510D01*
X143828316Y-89769289D01*
X143884250Y-89941440D01*
X143966431Y-90102730D01*
X143966433Y-90102734D01*
X144072824Y-90249169D01*
X144200830Y-90377175D01*
X144347265Y-90483566D01*
X144347269Y-90483568D01*
X144508559Y-90565749D01*
X144680710Y-90621683D01*
X144850000Y-90648496D01*
X144850000Y-89840842D01*
X144884174Y-89850000D01*
X145015826Y-89850000D01*
X145050000Y-89840842D01*
X145050000Y-90648495D01*
X145219289Y-90621683D01*
X145391440Y-90565749D01*
X145552730Y-90483568D01*
X145552734Y-90483566D01*
X145699169Y-90377175D01*
X145827175Y-90249169D01*
X145933566Y-90102734D01*
X145933568Y-90102730D01*
X146015749Y-89941440D01*
X146071683Y-89769289D01*
X146100000Y-89590510D01*
X146100000Y-89450001D01*
X146099999Y-89450000D01*
X145440843Y-89450000D01*
X145450000Y-89415826D01*
X145450000Y-89284174D01*
X145440843Y-89250000D01*
X146099999Y-89250000D01*
X146100000Y-89249999D01*
X146100000Y-89109489D01*
X146071683Y-88930710D01*
X146015749Y-88758559D01*
X145933568Y-88597269D01*
X145933566Y-88597265D01*
X145827175Y-88450830D01*
X145699169Y-88322824D01*
X145552734Y-88216433D01*
X145552730Y-88216431D01*
X145391440Y-88134250D01*
X145219289Y-88078316D01*
X145050000Y-88051502D01*
X145050000Y-88859157D01*
X145015826Y-88850000D01*
X144884174Y-88850000D01*
X144850000Y-88859157D01*
X144850000Y-88051503D01*
X144849999Y-88051502D01*
X144680710Y-88078316D01*
X144508559Y-88134250D01*
X144347269Y-88216431D01*
X144347265Y-88216433D01*
X144200830Y-88322824D01*
X144072824Y-88450830D01*
X143966433Y-88597265D01*
X143966431Y-88597269D01*
X143884250Y-88758559D01*
X143828316Y-88930710D01*
X143800000Y-89109489D01*
X143500500Y-89109489D01*
X143500500Y-88545727D01*
X143500499Y-88545725D01*
X143498170Y-88520890D01*
X143497646Y-88515301D01*
X143452793Y-88387118D01*
X143435150Y-88363213D01*
X143372154Y-88277855D01*
X143372152Y-88277853D01*
X143372150Y-88277850D01*
X143372146Y-88277847D01*
X143372144Y-88277845D01*
X143262885Y-88197208D01*
X143262879Y-88197205D01*
X143216802Y-88181082D01*
X143168121Y-88144016D01*
X143150500Y-88087638D01*
X143150500Y-87181165D01*
X143169407Y-87122974D01*
X143179496Y-87111161D01*
X145511161Y-84779496D01*
X145565678Y-84751719D01*
X145581165Y-84750500D01*
X151224510Y-84750500D01*
X152018835Y-84750500D01*
X152077026Y-84769407D01*
G37*
%TD.AperFunction*%
%TA.AperFunction,Conductor*%
G36*
X160808691Y-77969407D02*
G01*
X160844655Y-78018907D01*
X160849500Y-78049500D01*
X160849500Y-119900500D01*
X160830593Y-119958691D01*
X160781093Y-119994655D01*
X160750500Y-119999500D01*
X115799500Y-119999500D01*
X115741309Y-119980593D01*
X115705345Y-119931093D01*
X115700500Y-119900500D01*
X115700500Y-116874034D01*
X116799500Y-116874034D01*
X116799500Y-117125965D01*
X116838908Y-117374780D01*
X116911925Y-117599501D01*
X116916759Y-117614379D01*
X117031130Y-117838845D01*
X117179207Y-118042656D01*
X117357344Y-118220793D01*
X117561155Y-118368870D01*
X117785621Y-118483241D01*
X118025215Y-118561090D01*
X118025216Y-118561090D01*
X118025219Y-118561091D01*
X118274035Y-118600500D01*
X118274038Y-118600500D01*
X118525965Y-118600500D01*
X118774780Y-118561091D01*
X118774781Y-118561090D01*
X118774785Y-118561090D01*
X119014379Y-118483241D01*
X119238845Y-118368870D01*
X119442656Y-118220793D01*
X119620793Y-118042656D01*
X119768870Y-117838845D01*
X119883241Y-117614379D01*
X119961090Y-117374785D01*
X120000500Y-117125962D01*
X120000500Y-116874038D01*
X120000500Y-116874034D01*
X119961091Y-116625219D01*
X119961090Y-116625215D01*
X119883241Y-116385621D01*
X119768870Y-116161155D01*
X119620793Y-115957344D01*
X119442656Y-115779207D01*
X119238845Y-115631130D01*
X119238844Y-115631129D01*
X119238842Y-115631128D01*
X119014379Y-115516759D01*
X118774780Y-115438908D01*
X118525965Y-115399500D01*
X118525962Y-115399500D01*
X118274038Y-115399500D01*
X118274035Y-115399500D01*
X118025219Y-115438908D01*
X117785620Y-115516759D01*
X117561157Y-115631128D01*
X117357345Y-115779206D01*
X117179206Y-115957345D01*
X117031128Y-116161157D01*
X116916759Y-116385620D01*
X116838908Y-116625219D01*
X116799500Y-116874034D01*
X115700500Y-116874034D01*
X115700500Y-114305202D01*
X127475000Y-114305202D01*
X127475000Y-115149999D01*
X127475001Y-115150000D01*
X128235921Y-115150000D01*
X128225000Y-115190756D01*
X128225000Y-115309244D01*
X128235921Y-115350000D01*
X127475002Y-115350000D01*
X127475001Y-115350001D01*
X127475001Y-116194791D01*
X127477909Y-116219874D01*
X127523213Y-116322477D01*
X127602522Y-116401786D01*
X127705127Y-116447090D01*
X127730203Y-116449999D01*
X128574998Y-116449999D01*
X128575000Y-116449998D01*
X128575000Y-115689079D01*
X128615756Y-115700000D01*
X128734244Y-115700000D01*
X128775000Y-115689079D01*
X128775000Y-116449998D01*
X128775001Y-116449999D01*
X129619790Y-116449999D01*
X129619791Y-116449998D01*
X129644874Y-116447090D01*
X129747477Y-116401786D01*
X129826786Y-116322477D01*
X129872090Y-116219872D01*
X129874999Y-116194797D01*
X129875000Y-116194795D01*
X129875000Y-115350001D01*
X129874999Y-115350000D01*
X129114079Y-115350000D01*
X129125000Y-115309244D01*
X129125000Y-115250000D01*
X130109785Y-115250000D01*
X130128603Y-115453083D01*
X130179262Y-115631130D01*
X130184419Y-115649252D01*
X130249128Y-115779207D01*
X130275327Y-115831821D01*
X130398236Y-115994579D01*
X130548959Y-116131981D01*
X130722363Y-116239348D01*
X130912544Y-116313024D01*
X131113024Y-116350500D01*
X131316976Y-116350500D01*
X131517456Y-116313024D01*
X131707637Y-116239348D01*
X131881041Y-116131981D01*
X132031764Y-115994579D01*
X132154673Y-115831821D01*
X132245582Y-115649250D01*
X132301397Y-115453083D01*
X132320215Y-115250000D01*
X132301397Y-115046917D01*
X132278444Y-114966246D01*
X132280705Y-114905104D01*
X132303659Y-114869153D01*
X133330818Y-113841996D01*
X133385335Y-113814219D01*
X133400822Y-113813000D01*
X133603029Y-113813000D01*
X133661220Y-113831907D01*
X133682682Y-113853209D01*
X133699289Y-113875711D01*
X133699292Y-113875713D01*
X133699293Y-113875714D01*
X133805523Y-113954115D01*
X133805524Y-113954115D01*
X133805525Y-113954116D01*
X133930151Y-113997725D01*
X133957441Y-114000284D01*
X133959733Y-114000499D01*
X133959738Y-114000500D01*
X133959744Y-114000500D01*
X134540262Y-114000500D01*
X134540265Y-114000499D01*
X134569849Y-113997725D01*
X134694475Y-113954116D01*
X134800711Y-113875711D01*
X134879116Y-113769475D01*
X134922725Y-113644849D01*
X134925500Y-113615256D01*
X134925500Y-113009744D01*
X134925500Y-113009738D01*
X134925499Y-113009733D01*
X135184500Y-113009733D01*
X135184500Y-113615266D01*
X135187274Y-113644844D01*
X135187276Y-113644852D01*
X135230884Y-113769476D01*
X135276960Y-113831907D01*
X135309289Y-113875711D01*
X135309292Y-113875713D01*
X135309293Y-113875714D01*
X135319285Y-113883088D01*
X135354880Y-113932854D01*
X135359500Y-113962745D01*
X135359500Y-114194108D01*
X135359500Y-114325892D01*
X135370788Y-114368019D01*
X135393609Y-114453190D01*
X135459496Y-114567309D01*
X135459497Y-114567310D01*
X135459498Y-114567311D01*
X135459500Y-114567314D01*
X137517401Y-116625215D01*
X139299500Y-118407314D01*
X139299501Y-118407315D01*
X139299500Y-118407315D01*
X139375426Y-118483240D01*
X139392687Y-118500501D01*
X139453357Y-118535529D01*
X139506815Y-118566393D01*
X139634108Y-118600501D01*
X139634109Y-118600501D01*
X140696825Y-118600501D01*
X140755016Y-118619408D01*
X140785446Y-118655373D01*
X140824939Y-118734685D01*
X140824940Y-118734686D01*
X140824942Y-118734690D01*
X140959019Y-118912237D01*
X141123438Y-119062125D01*
X141312599Y-119179248D01*
X141520060Y-119259619D01*
X141738757Y-119300501D01*
X141961243Y-119300501D01*
X142179940Y-119259619D01*
X142387401Y-119179248D01*
X142576562Y-119062125D01*
X142740981Y-118912237D01*
X142875058Y-118734690D01*
X142909630Y-118665259D01*
X142914554Y-118655372D01*
X142957417Y-118611709D01*
X143003175Y-118600500D01*
X147196826Y-118600500D01*
X147255017Y-118619407D01*
X147285447Y-118655372D01*
X147324940Y-118734684D01*
X147324941Y-118734685D01*
X147324943Y-118734689D01*
X147459020Y-118912236D01*
X147623439Y-119062124D01*
X147812600Y-119179247D01*
X148020061Y-119259618D01*
X148238758Y-119300500D01*
X148461244Y-119300500D01*
X148679941Y-119259618D01*
X148887402Y-119179247D01*
X149076563Y-119062124D01*
X149240982Y-118912236D01*
X149375059Y-118734689D01*
X149474230Y-118535528D01*
X149535116Y-118321536D01*
X149555644Y-118100000D01*
X149535116Y-117878464D01*
X149474230Y-117664472D01*
X149375059Y-117465311D01*
X149240982Y-117287764D01*
X149076563Y-117137876D01*
X148887402Y-117020753D01*
X148679941Y-116940382D01*
X148679940Y-116940381D01*
X148679938Y-116940381D01*
X148461244Y-116899500D01*
X148238758Y-116899500D01*
X148020063Y-116940381D01*
X148020058Y-116940383D01*
X147812600Y-117020753D01*
X147642681Y-117125962D01*
X147623439Y-117137876D01*
X147459021Y-117287763D01*
X147324940Y-117465315D01*
X147285447Y-117544628D01*
X147242584Y-117588291D01*
X147196826Y-117599500D01*
X143003174Y-117599500D01*
X142944983Y-117580593D01*
X142914553Y-117544628D01*
X142875061Y-117465319D01*
X142875058Y-117465312D01*
X142740981Y-117287765D01*
X142576562Y-117137877D01*
X142387401Y-117020754D01*
X142179940Y-116940383D01*
X142179939Y-116940382D01*
X142179937Y-116940382D01*
X141961243Y-116899501D01*
X141738757Y-116899501D01*
X141520062Y-116940382D01*
X141443797Y-116969927D01*
X141312599Y-117020754D01*
X141123438Y-117137877D01*
X140959019Y-117287765D01*
X140893305Y-117374785D01*
X140824939Y-117465316D01*
X140785446Y-117544629D01*
X140742583Y-117588292D01*
X140696825Y-117599501D01*
X139948323Y-117599501D01*
X139890132Y-117580594D01*
X139878319Y-117570505D01*
X139181848Y-116874034D01*
X155399500Y-116874034D01*
X155399500Y-117125965D01*
X155438908Y-117374780D01*
X155511925Y-117599501D01*
X155516759Y-117614379D01*
X155631130Y-117838845D01*
X155779207Y-118042656D01*
X155957344Y-118220793D01*
X156161155Y-118368870D01*
X156385621Y-118483241D01*
X156625215Y-118561090D01*
X156625216Y-118561090D01*
X156625219Y-118561091D01*
X156874035Y-118600500D01*
X156874038Y-118600500D01*
X157125965Y-118600500D01*
X157374780Y-118561091D01*
X157374781Y-118561090D01*
X157374785Y-118561090D01*
X157614379Y-118483241D01*
X157838845Y-118368870D01*
X158042656Y-118220793D01*
X158220793Y-118042656D01*
X158368870Y-117838845D01*
X158483241Y-117614379D01*
X158561090Y-117374785D01*
X158600500Y-117125962D01*
X158600500Y-116874038D01*
X158600500Y-116874034D01*
X158561091Y-116625219D01*
X158561090Y-116625215D01*
X158483241Y-116385621D01*
X158368870Y-116161155D01*
X158220793Y-115957344D01*
X158042656Y-115779207D01*
X157838845Y-115631130D01*
X157838844Y-115631129D01*
X157838842Y-115631128D01*
X157614379Y-115516759D01*
X157374780Y-115438908D01*
X157125965Y-115399500D01*
X157125962Y-115399500D01*
X156874038Y-115399500D01*
X156874035Y-115399500D01*
X156625219Y-115438908D01*
X156385620Y-115516759D01*
X156161157Y-115631128D01*
X155957345Y-115779206D01*
X155779206Y-115957345D01*
X155631128Y-116161157D01*
X155516759Y-116385620D01*
X155438908Y-116625219D01*
X155399500Y-116874034D01*
X139181848Y-116874034D01*
X136389496Y-114081682D01*
X136361719Y-114027165D01*
X136360500Y-114011678D01*
X136360500Y-113962745D01*
X136379407Y-113904554D01*
X136400715Y-113883088D01*
X136410711Y-113875711D01*
X136489116Y-113769475D01*
X136532725Y-113644849D01*
X136535500Y-113615256D01*
X136535500Y-113599996D01*
X140545034Y-113599996D01*
X140545034Y-113600003D01*
X140564857Y-113826597D01*
X140623733Y-114046323D01*
X140719865Y-114252481D01*
X140850334Y-114438811D01*
X140860050Y-114448527D01*
X141395607Y-113912969D01*
X141409890Y-113937708D01*
X141512292Y-114040110D01*
X141537028Y-114054391D01*
X141001472Y-114589949D01*
X141011188Y-114599665D01*
X141197518Y-114730134D01*
X141403676Y-114826266D01*
X141623402Y-114885142D01*
X141849997Y-114904966D01*
X141850003Y-114904966D01*
X142076597Y-114885142D01*
X142296323Y-114826266D01*
X142502481Y-114730134D01*
X142688814Y-114599663D01*
X142698527Y-114589949D01*
X142162970Y-114054392D01*
X142187708Y-114040110D01*
X142290110Y-113937708D01*
X142304392Y-113912970D01*
X142839949Y-114448527D01*
X142849663Y-114438814D01*
X142980134Y-114252481D01*
X143076266Y-114046323D01*
X143135142Y-113826597D01*
X143154966Y-113600003D01*
X143154966Y-113599996D01*
X147045034Y-113599996D01*
X147045034Y-113600003D01*
X147064857Y-113826597D01*
X147123733Y-114046323D01*
X147219865Y-114252481D01*
X147350334Y-114438811D01*
X147360050Y-114448527D01*
X147895607Y-113912969D01*
X147909890Y-113937708D01*
X148012292Y-114040110D01*
X148037028Y-114054391D01*
X147501472Y-114589949D01*
X147511188Y-114599665D01*
X147697518Y-114730134D01*
X147903676Y-114826266D01*
X148123402Y-114885142D01*
X148349997Y-114904966D01*
X148350003Y-114904966D01*
X148576597Y-114885142D01*
X148796323Y-114826266D01*
X149002481Y-114730134D01*
X149188814Y-114599663D01*
X149198527Y-114589949D01*
X148662970Y-114054392D01*
X148687708Y-114040110D01*
X148790110Y-113937708D01*
X148804392Y-113912970D01*
X149339949Y-114448527D01*
X149349663Y-114438814D01*
X149480134Y-114252481D01*
X149576266Y-114046323D01*
X149635142Y-113826597D01*
X149654966Y-113600003D01*
X149654966Y-113599996D01*
X149635142Y-113373402D01*
X149576266Y-113153676D01*
X149480134Y-112947518D01*
X149349665Y-112761188D01*
X149339949Y-112751472D01*
X148804391Y-113287028D01*
X148790110Y-113262292D01*
X148687708Y-113159890D01*
X148662969Y-113145607D01*
X149198527Y-112610050D01*
X149188811Y-112600334D01*
X149002481Y-112469865D01*
X148796323Y-112373733D01*
X148576597Y-112314857D01*
X148350003Y-112295034D01*
X148349997Y-112295034D01*
X148123402Y-112314857D01*
X147903676Y-112373733D01*
X147697518Y-112469865D01*
X147511185Y-112600336D01*
X147501471Y-112610049D01*
X148037029Y-113145607D01*
X148012292Y-113159890D01*
X147909890Y-113262292D01*
X147895607Y-113287029D01*
X147360049Y-112751471D01*
X147350336Y-112761185D01*
X147219865Y-112947518D01*
X147123733Y-113153676D01*
X147064857Y-113373402D01*
X147045034Y-113599996D01*
X143154966Y-113599996D01*
X143135142Y-113373402D01*
X143076266Y-113153676D01*
X142980134Y-112947518D01*
X142849665Y-112761188D01*
X142839949Y-112751472D01*
X142304391Y-113287028D01*
X142290110Y-113262292D01*
X142187708Y-113159890D01*
X142162969Y-113145607D01*
X142698527Y-112610050D01*
X142688811Y-112600334D01*
X142502481Y-112469865D01*
X142296323Y-112373733D01*
X142076597Y-112314857D01*
X141850003Y-112295034D01*
X141849997Y-112295034D01*
X141623402Y-112314857D01*
X141403676Y-112373733D01*
X141197518Y-112469865D01*
X141011185Y-112600336D01*
X141001471Y-112610049D01*
X141537029Y-113145607D01*
X141512292Y-113159890D01*
X141409890Y-113262292D01*
X141395607Y-113287029D01*
X140860049Y-112751471D01*
X140850336Y-112761185D01*
X140719865Y-112947518D01*
X140623733Y-113153676D01*
X140564857Y-113373402D01*
X140545034Y-113599996D01*
X136535500Y-113599996D01*
X136535500Y-113009744D01*
X136535500Y-113009738D01*
X136535499Y-113009733D01*
X136532725Y-112980155D01*
X136532725Y-112980151D01*
X136489116Y-112855525D01*
X136456993Y-112812000D01*
X136410714Y-112749293D01*
X136410713Y-112749292D01*
X136410711Y-112749289D01*
X136410706Y-112749285D01*
X136304476Y-112670884D01*
X136179852Y-112627276D01*
X136179851Y-112627275D01*
X136179849Y-112627275D01*
X136179847Y-112627274D01*
X136179844Y-112627274D01*
X136150266Y-112624500D01*
X136150256Y-112624500D01*
X135569744Y-112624500D01*
X135569733Y-112624500D01*
X135540155Y-112627274D01*
X135540147Y-112627276D01*
X135415523Y-112670884D01*
X135309293Y-112749285D01*
X135309285Y-112749293D01*
X135230884Y-112855523D01*
X135187276Y-112980147D01*
X135187274Y-112980155D01*
X135184500Y-113009733D01*
X134925499Y-113009733D01*
X134922725Y-112980155D01*
X134922725Y-112980151D01*
X134879116Y-112855525D01*
X134846993Y-112812000D01*
X134800714Y-112749293D01*
X134800713Y-112749292D01*
X134800711Y-112749289D01*
X134800706Y-112749285D01*
X134694476Y-112670884D01*
X134569852Y-112627276D01*
X134569851Y-112627275D01*
X134569849Y-112627275D01*
X134569847Y-112627274D01*
X134569844Y-112627274D01*
X134540266Y-112624500D01*
X134540256Y-112624500D01*
X133959744Y-112624500D01*
X133959733Y-112624500D01*
X133930155Y-112627274D01*
X133930147Y-112627276D01*
X133805523Y-112670884D01*
X133699293Y-112749285D01*
X133699289Y-112749289D01*
X133682683Y-112771789D01*
X133632917Y-112807381D01*
X133603029Y-112812000D01*
X133218393Y-112812000D01*
X133086608Y-112812000D01*
X133008700Y-112832875D01*
X132959309Y-112846109D01*
X132845190Y-112911996D01*
X132845185Y-112912000D01*
X131598798Y-114158385D01*
X131544282Y-114186162D01*
X131510604Y-114185695D01*
X131316976Y-114149500D01*
X131113024Y-114149500D01*
X130912546Y-114186975D01*
X130894134Y-114194108D01*
X130722363Y-114260652D01*
X130617000Y-114325890D01*
X130548959Y-114368019D01*
X130398237Y-114505420D01*
X130275328Y-114668177D01*
X130275323Y-114668186D01*
X130194418Y-114830667D01*
X130184418Y-114850750D01*
X130128603Y-115046917D01*
X130109785Y-115250000D01*
X129125000Y-115250000D01*
X129125000Y-115190756D01*
X129114079Y-115150000D01*
X129874998Y-115150000D01*
X129874999Y-115149999D01*
X129874999Y-114305210D01*
X129874998Y-114305208D01*
X129872090Y-114280125D01*
X129826786Y-114177522D01*
X129747477Y-114098213D01*
X129644872Y-114052909D01*
X129619797Y-114050000D01*
X128775001Y-114050000D01*
X128775000Y-114050001D01*
X128775000Y-114810920D01*
X128734244Y-114800000D01*
X128615756Y-114800000D01*
X128575000Y-114810920D01*
X128575000Y-114050001D01*
X128574999Y-114050000D01*
X127730210Y-114050000D01*
X127730208Y-114050001D01*
X127705125Y-114052909D01*
X127602522Y-114098213D01*
X127523213Y-114177522D01*
X127477909Y-114280127D01*
X127475000Y-114305202D01*
X115700500Y-114305202D01*
X115700500Y-112362501D01*
X137750000Y-112362501D01*
X137750000Y-112718064D01*
X137760613Y-112806443D01*
X137816080Y-112947095D01*
X137907435Y-113067564D01*
X138027904Y-113158919D01*
X138168556Y-113214386D01*
X138256935Y-113224999D01*
X138256942Y-113225000D01*
X138849999Y-113225000D01*
X138850000Y-113224999D01*
X138850000Y-112362501D01*
X139050000Y-112362501D01*
X139050000Y-113224999D01*
X139050001Y-113225000D01*
X139643058Y-113225000D01*
X139643064Y-113224999D01*
X139731443Y-113214386D01*
X139872095Y-113158919D01*
X139992564Y-113067564D01*
X140083919Y-112947095D01*
X140139386Y-112806443D01*
X140149999Y-112718064D01*
X140150000Y-112718058D01*
X140150000Y-112362501D01*
X140149999Y-112362500D01*
X139050001Y-112362500D01*
X139050000Y-112362501D01*
X138850000Y-112362501D01*
X138849999Y-112362500D01*
X137750001Y-112362500D01*
X137750000Y-112362501D01*
X115700500Y-112362501D01*
X115700500Y-102950001D01*
X116000001Y-102950001D01*
X116000001Y-103029791D01*
X116002909Y-103054874D01*
X116048213Y-103157477D01*
X116127522Y-103236786D01*
X116230127Y-103282090D01*
X116255203Y-103284999D01*
X116406700Y-103284999D01*
X116464891Y-103303906D01*
X116500855Y-103353406D01*
X116500856Y-103414591D01*
X116489017Y-103439000D01*
X116432428Y-103523692D01*
X116364586Y-103687478D01*
X116364586Y-103687480D01*
X116330000Y-103861355D01*
X116330000Y-104099999D01*
X116330001Y-104100000D01*
X116830000Y-104100000D01*
X116830000Y-104300000D01*
X116330001Y-104300000D01*
X116330000Y-104300001D01*
X116330000Y-104538644D01*
X116364586Y-104712519D01*
X116364586Y-104712521D01*
X116432429Y-104876308D01*
X116530923Y-105023715D01*
X116656284Y-105149076D01*
X116803682Y-105247566D01*
X116803691Y-105247570D01*
X116832827Y-105259639D01*
X116879352Y-105299376D01*
X116893636Y-105358870D01*
X116888291Y-105381138D01*
X116888696Y-105381247D01*
X116887016Y-105387513D01*
X116887016Y-105387515D01*
X116849500Y-105527525D01*
X116849500Y-105672475D01*
X116869307Y-105746395D01*
X116887017Y-105812489D01*
X116959487Y-105938010D01*
X116959489Y-105938012D01*
X116959491Y-105938015D01*
X117061985Y-106040509D01*
X117061987Y-106040510D01*
X117061989Y-106040512D01*
X117187511Y-106112982D01*
X117187512Y-106112982D01*
X117187515Y-106112984D01*
X117327525Y-106150500D01*
X117327526Y-106150500D01*
X117472474Y-106150500D01*
X117472475Y-106150500D01*
X117612485Y-106112984D01*
X117612487Y-106112982D01*
X117612489Y-106112982D01*
X117738010Y-106040512D01*
X117738010Y-106040511D01*
X117738015Y-106040509D01*
X117840509Y-105938015D01*
X117840512Y-105938010D01*
X117912982Y-105812489D01*
X117912982Y-105812487D01*
X117912984Y-105812485D01*
X117950500Y-105672475D01*
X117950500Y-105527525D01*
X117912984Y-105387515D01*
X117912982Y-105387512D01*
X117912982Y-105387510D01*
X117840512Y-105261989D01*
X117840510Y-105261987D01*
X117840509Y-105261985D01*
X117835659Y-105257135D01*
X117807884Y-105202621D01*
X117817455Y-105142189D01*
X117835662Y-105117130D01*
X117929074Y-105023718D01*
X118027570Y-104876308D01*
X118095413Y-104712521D01*
X118095413Y-104712519D01*
X118129999Y-104538644D01*
X118130000Y-104538641D01*
X118130000Y-104300001D01*
X118129999Y-104300000D01*
X117630000Y-104300000D01*
X117630000Y-104100000D01*
X118129999Y-104100000D01*
X118130000Y-104099999D01*
X118130000Y-103861358D01*
X118129999Y-103861355D01*
X119270000Y-103861355D01*
X119270000Y-104099999D01*
X119270001Y-104100000D01*
X119770000Y-104100000D01*
X119770000Y-104300000D01*
X119270001Y-104300000D01*
X119270000Y-104300001D01*
X119270000Y-104538644D01*
X119304586Y-104712519D01*
X119304586Y-104712521D01*
X119372429Y-104876308D01*
X119470923Y-105023715D01*
X119596284Y-105149076D01*
X119743691Y-105247570D01*
X119907478Y-105315413D01*
X119907481Y-105315414D01*
X120069999Y-105347739D01*
X120070000Y-105347739D01*
X120070000Y-104837315D01*
X120117339Y-104850000D01*
X120222661Y-104850000D01*
X120270000Y-104837315D01*
X120270000Y-105347739D01*
X120432518Y-105315414D01*
X120432521Y-105315413D01*
X120596308Y-105247570D01*
X120743715Y-105149076D01*
X120869076Y-105023715D01*
X120967570Y-104876308D01*
X121035413Y-104712521D01*
X121035413Y-104712519D01*
X121069999Y-104538644D01*
X121070000Y-104538641D01*
X121070000Y-104300001D01*
X121069999Y-104300000D01*
X120570000Y-104300000D01*
X120570000Y-104100000D01*
X121069999Y-104100000D01*
X121070000Y-104099999D01*
X121070000Y-103861358D01*
X121069999Y-103861355D01*
X121035413Y-103687480D01*
X121035413Y-103687478D01*
X120967571Y-103523692D01*
X120910982Y-103439000D01*
X120894374Y-103380112D01*
X120915552Y-103322709D01*
X120966426Y-103288716D01*
X120993298Y-103284999D01*
X121144790Y-103284999D01*
X121144791Y-103284998D01*
X121169874Y-103282090D01*
X121272477Y-103236786D01*
X121351786Y-103157477D01*
X121397090Y-103054872D01*
X121399999Y-103029797D01*
X121400000Y-103029795D01*
X121400000Y-102950001D01*
X121399999Y-102950000D01*
X119500002Y-102950000D01*
X119500001Y-102950001D01*
X119500001Y-103029791D01*
X119502909Y-103054874D01*
X119548214Y-103157479D01*
X119548215Y-103157481D01*
X119548971Y-103158237D01*
X119549661Y-103159592D01*
X119553398Y-103165047D01*
X119552688Y-103165533D01*
X119576745Y-103212756D01*
X119567170Y-103273187D01*
X119548967Y-103298239D01*
X119470925Y-103376281D01*
X119372429Y-103523691D01*
X119304586Y-103687478D01*
X119304586Y-103687480D01*
X119270000Y-103861355D01*
X118129999Y-103861355D01*
X118095413Y-103687480D01*
X118095413Y-103687478D01*
X118027570Y-103523691D01*
X117929076Y-103376284D01*
X117851031Y-103298239D01*
X117823254Y-103243722D01*
X117832825Y-103183290D01*
X117851041Y-103158222D01*
X117851787Y-103157475D01*
X117897090Y-103054872D01*
X117899999Y-103029797D01*
X117900000Y-103029795D01*
X117900000Y-102950001D01*
X117899999Y-102950000D01*
X116000002Y-102950000D01*
X116000001Y-102950001D01*
X115700500Y-102950001D01*
X115700500Y-102670202D01*
X116000000Y-102670202D01*
X116000000Y-102749999D01*
X116000001Y-102750000D01*
X117899998Y-102750000D01*
X117899999Y-102749999D01*
X117899999Y-102670210D01*
X117899998Y-102670208D01*
X117897090Y-102645125D01*
X117851785Y-102542520D01*
X117851786Y-102542520D01*
X117829495Y-102520229D01*
X117801719Y-102465712D01*
X117800500Y-102450227D01*
X117800500Y-102195253D01*
X117800500Y-102195252D01*
X117788867Y-102136769D01*
X117788865Y-102136767D01*
X117786964Y-102127206D01*
X117788466Y-102126907D01*
X117784527Y-102076893D01*
X117788707Y-102064027D01*
X117788864Y-102063234D01*
X117788867Y-102063231D01*
X117800500Y-102004748D01*
X117800500Y-101811013D01*
X117819407Y-101752822D01*
X117868907Y-101716858D01*
X117930093Y-101716858D01*
X117948998Y-101725275D01*
X118026114Y-101769799D01*
X118140691Y-101800500D01*
X118140693Y-101800500D01*
X118259307Y-101800500D01*
X118259309Y-101800500D01*
X118373886Y-101769799D01*
X118373888Y-101769797D01*
X118373890Y-101769797D01*
X118470942Y-101713764D01*
X118520442Y-101700500D01*
X119500500Y-101700500D01*
X119558691Y-101719407D01*
X119594655Y-101768907D01*
X119599500Y-101799500D01*
X119599500Y-102004750D01*
X119613035Y-102072794D01*
X119611534Y-102073092D01*
X119615471Y-102123111D01*
X119611290Y-102135976D01*
X119599500Y-102195249D01*
X119599500Y-102450227D01*
X119580593Y-102508418D01*
X119570505Y-102520229D01*
X119548214Y-102542520D01*
X119502909Y-102645127D01*
X119500000Y-102670202D01*
X119500000Y-102749999D01*
X119500001Y-102750000D01*
X121399998Y-102750000D01*
X121399999Y-102749999D01*
X121399999Y-102670210D01*
X121399998Y-102670208D01*
X121397090Y-102645125D01*
X121351785Y-102542520D01*
X121351786Y-102542520D01*
X121329495Y-102520229D01*
X121301719Y-102465712D01*
X121300500Y-102450227D01*
X121300500Y-102195253D01*
X121300500Y-102195252D01*
X121288867Y-102136769D01*
X121288865Y-102136767D01*
X121286964Y-102127206D01*
X121288466Y-102126907D01*
X121284527Y-102076893D01*
X121288707Y-102064027D01*
X121288864Y-102063234D01*
X121288867Y-102063231D01*
X121300500Y-102004748D01*
X121300500Y-101799500D01*
X121319407Y-101741309D01*
X121368907Y-101705345D01*
X121399500Y-101700500D01*
X121438796Y-101700500D01*
X121496987Y-101719407D01*
X121521111Y-101744498D01*
X121555886Y-101796543D01*
X121598729Y-101839386D01*
X121620503Y-101861159D01*
X121648281Y-101915675D01*
X121649500Y-101931163D01*
X121649500Y-104068996D01*
X121676420Y-104204327D01*
X121676420Y-104204329D01*
X121729223Y-104331808D01*
X121729224Y-104331810D01*
X121729225Y-104331811D01*
X121805886Y-104446543D01*
X122365957Y-105006614D01*
X122480689Y-105083275D01*
X122480690Y-105083275D01*
X122480691Y-105083276D01*
X122499003Y-105090861D01*
X122608172Y-105136080D01*
X122743506Y-105163000D01*
X122743507Y-105163000D01*
X123213862Y-105163000D01*
X123272053Y-105181907D01*
X123305326Y-105224114D01*
X123329224Y-105281810D01*
X123403415Y-105392845D01*
X123405886Y-105396543D01*
X124453457Y-106444114D01*
X124568189Y-106520775D01*
X124695672Y-106573580D01*
X124831006Y-106600500D01*
X124831007Y-106600500D01*
X127381493Y-106600500D01*
X127381494Y-106600500D01*
X127516828Y-106573580D01*
X127644311Y-106520775D01*
X127759043Y-106444114D01*
X129111248Y-105091908D01*
X129165763Y-105064133D01*
X129226195Y-105073704D01*
X129251250Y-105091907D01*
X129798457Y-105639114D01*
X129913189Y-105715775D01*
X130040672Y-105768580D01*
X130078843Y-105776172D01*
X130080755Y-105776553D01*
X130134139Y-105806450D01*
X130150381Y-105830169D01*
X130160799Y-105851479D01*
X130160801Y-105851481D01*
X130160802Y-105851483D01*
X130243517Y-105934198D01*
X130297285Y-105960483D01*
X130348604Y-105985572D01*
X130348605Y-105985572D01*
X130348607Y-105985573D01*
X130416740Y-105995500D01*
X130416743Y-105995500D01*
X131958257Y-105995500D01*
X131958260Y-105995500D01*
X132026393Y-105985573D01*
X132131483Y-105934198D01*
X132172652Y-105893028D01*
X132227166Y-105865252D01*
X132287598Y-105874823D01*
X132328390Y-105913532D01*
X132367877Y-105981924D01*
X132395725Y-106012851D01*
X132828619Y-105579956D01*
X132859940Y-105634205D01*
X132915795Y-105690060D01*
X132970042Y-105721379D01*
X132591422Y-106100000D01*
X132970042Y-106478620D01*
X132915795Y-106509940D01*
X132859940Y-106565795D01*
X132828620Y-106620041D01*
X132395725Y-106187146D01*
X132367876Y-106218077D01*
X132367872Y-106218083D01*
X132306429Y-106324505D01*
X132260960Y-106365446D01*
X132200109Y-106371842D01*
X132150691Y-106345010D01*
X132131483Y-106325802D01*
X132128830Y-106324505D01*
X132026395Y-106274427D01*
X131999139Y-106270456D01*
X131958260Y-106264500D01*
X130416740Y-106264500D01*
X130382673Y-106269463D01*
X130348604Y-106274427D01*
X130243518Y-106325801D01*
X130243517Y-106325801D01*
X130243517Y-106325802D01*
X130183813Y-106385505D01*
X130129299Y-106413281D01*
X130113812Y-106414500D01*
X130088856Y-106414500D01*
X130043650Y-106426613D01*
X130043649Y-106426612D01*
X129999715Y-106438384D01*
X129919785Y-106484532D01*
X129533813Y-106870504D01*
X129479297Y-106898281D01*
X129463810Y-106899500D01*
X124378857Y-106899500D01*
X124289713Y-106923386D01*
X124266821Y-106936603D01*
X124209786Y-106969532D01*
X123758813Y-107420505D01*
X123704297Y-107448282D01*
X123688810Y-107449501D01*
X123209733Y-107449501D01*
X123180155Y-107452275D01*
X123180147Y-107452277D01*
X123055523Y-107495885D01*
X122949293Y-107574286D01*
X122949288Y-107574291D01*
X122947574Y-107576614D01*
X122905007Y-107634289D01*
X122855241Y-107669882D01*
X122825353Y-107674501D01*
X122111549Y-107674501D01*
X122053358Y-107655594D01*
X122031894Y-107634289D01*
X121950714Y-107524294D01*
X121950713Y-107524293D01*
X121950711Y-107524290D01*
X121950706Y-107524286D01*
X121844476Y-107445885D01*
X121719852Y-107402277D01*
X121719851Y-107402276D01*
X121719849Y-107402276D01*
X121719847Y-107402275D01*
X121719844Y-107402275D01*
X121690266Y-107399501D01*
X121690256Y-107399501D01*
X121109744Y-107399501D01*
X121109733Y-107399501D01*
X121080155Y-107402275D01*
X121080147Y-107402277D01*
X120955523Y-107445885D01*
X120849293Y-107524286D01*
X120849285Y-107524294D01*
X120770884Y-107630524D01*
X120727276Y-107755148D01*
X120727274Y-107755156D01*
X120724500Y-107784734D01*
X120724500Y-108465267D01*
X120727274Y-108494845D01*
X120727276Y-108494853D01*
X120770884Y-108619477D01*
X120834389Y-108705523D01*
X120849289Y-108725712D01*
X120849292Y-108725714D01*
X120849293Y-108725715D01*
X120955523Y-108804116D01*
X120955524Y-108804116D01*
X120955525Y-108804117D01*
X121080151Y-108847726D01*
X121107441Y-108850285D01*
X121109733Y-108850500D01*
X121109738Y-108850501D01*
X121109744Y-108850501D01*
X121690262Y-108850501D01*
X121690265Y-108850500D01*
X121719849Y-108847726D01*
X121844475Y-108804117D01*
X121950711Y-108725712D01*
X121991457Y-108670503D01*
X122031894Y-108615713D01*
X122081661Y-108580120D01*
X122111549Y-108575501D01*
X122767756Y-108575501D01*
X122825947Y-108594408D01*
X122861200Y-108641803D01*
X122870882Y-108669473D01*
X122870885Y-108669479D01*
X122949285Y-108775707D01*
X122949289Y-108775712D01*
X122949292Y-108775714D01*
X122949293Y-108775715D01*
X123055523Y-108854116D01*
X123055524Y-108854116D01*
X123055525Y-108854117D01*
X123180151Y-108897726D01*
X123207441Y-108900285D01*
X123209733Y-108900500D01*
X123209738Y-108900501D01*
X123209744Y-108900501D01*
X123790262Y-108900501D01*
X123790265Y-108900500D01*
X123819849Y-108897726D01*
X123944475Y-108854117D01*
X124050711Y-108775712D01*
X124129116Y-108669476D01*
X124172725Y-108544850D01*
X124175500Y-108515257D01*
X124175500Y-108036191D01*
X124194407Y-107978000D01*
X124204496Y-107966187D01*
X124541187Y-107629496D01*
X124595704Y-107601719D01*
X124611191Y-107600500D01*
X124909359Y-107600500D01*
X124967550Y-107619407D01*
X125003514Y-107668907D01*
X125003514Y-107730093D01*
X125002803Y-107732198D01*
X124977276Y-107805148D01*
X124977274Y-107805156D01*
X124974500Y-107834734D01*
X124974500Y-108515267D01*
X124977274Y-108544845D01*
X124977276Y-108544853D01*
X125020884Y-108669477D01*
X125099285Y-108775707D01*
X125099289Y-108775712D01*
X125099292Y-108775714D01*
X125099293Y-108775715D01*
X125205523Y-108854116D01*
X125205524Y-108854116D01*
X125205525Y-108854117D01*
X125330151Y-108897726D01*
X125357441Y-108900285D01*
X125359733Y-108900500D01*
X125359738Y-108900501D01*
X125359744Y-108900501D01*
X125940262Y-108900501D01*
X125940265Y-108900500D01*
X125969849Y-108897726D01*
X126094475Y-108854117D01*
X126200711Y-108775712D01*
X126252511Y-108705525D01*
X126281894Y-108665713D01*
X126331661Y-108630120D01*
X126361549Y-108625501D01*
X127438451Y-108625501D01*
X127496642Y-108644408D01*
X127518106Y-108665713D01*
X127599285Y-108775707D01*
X127599289Y-108775712D01*
X127599292Y-108775714D01*
X127599293Y-108775715D01*
X127705523Y-108854116D01*
X127705524Y-108854116D01*
X127705525Y-108854117D01*
X127830151Y-108897726D01*
X127857441Y-108900285D01*
X127859733Y-108900500D01*
X127859738Y-108900501D01*
X127859744Y-108900501D01*
X128440262Y-108900501D01*
X128440265Y-108900500D01*
X128469849Y-108897726D01*
X128594475Y-108854117D01*
X128700711Y-108775712D01*
X128752511Y-108705525D01*
X128781894Y-108665713D01*
X128831661Y-108630120D01*
X128861549Y-108625501D01*
X128884308Y-108625501D01*
X128884310Y-108625501D01*
X128982134Y-108599289D01*
X128990511Y-108597044D01*
X128998882Y-108594802D01*
X128998884Y-108594801D01*
X128998888Y-108594800D01*
X129101615Y-108535490D01*
X129122610Y-108514494D01*
X129177125Y-108486719D01*
X129192612Y-108485500D01*
X130243732Y-108485500D01*
X130287212Y-108495559D01*
X130348607Y-108525573D01*
X130416740Y-108535500D01*
X130416743Y-108535500D01*
X131958257Y-108535500D01*
X131958260Y-108535500D01*
X132026393Y-108525573D01*
X132131483Y-108474198D01*
X132150690Y-108454990D01*
X132205204Y-108427213D01*
X132265636Y-108436783D01*
X132306430Y-108475494D01*
X132367878Y-108581925D01*
X132395725Y-108612851D01*
X132828619Y-108179956D01*
X132859940Y-108234205D01*
X132915795Y-108290060D01*
X132970042Y-108321379D01*
X132591422Y-108700000D01*
X132970042Y-109078620D01*
X132915795Y-109109940D01*
X132859940Y-109165795D01*
X132828620Y-109220041D01*
X132395725Y-108787146D01*
X132367876Y-108818077D01*
X132367874Y-108818079D01*
X132328390Y-108886467D01*
X132282920Y-108927408D01*
X132222069Y-108933802D01*
X132172652Y-108906971D01*
X132131483Y-108865802D01*
X132119069Y-108859733D01*
X132026395Y-108814427D01*
X131999139Y-108810456D01*
X131958260Y-108804500D01*
X130416740Y-108804500D01*
X130348888Y-108814386D01*
X130348607Y-108814427D01*
X130287212Y-108844441D01*
X130243732Y-108854500D01*
X129885691Y-108854500D01*
X129843515Y-108865801D01*
X129795325Y-108878713D01*
X129795324Y-108878712D01*
X129771112Y-108885201D01*
X129771109Y-108885202D01*
X129668390Y-108944507D01*
X129668385Y-108944511D01*
X129192392Y-109420504D01*
X129137876Y-109448281D01*
X129122389Y-109449500D01*
X128843099Y-109449500D01*
X128784908Y-109430593D01*
X128763444Y-109409288D01*
X128700715Y-109324293D01*
X128700713Y-109324291D01*
X128700711Y-109324288D01*
X128700706Y-109324284D01*
X128594476Y-109245883D01*
X128469852Y-109202275D01*
X128469851Y-109202274D01*
X128469849Y-109202274D01*
X128469847Y-109202273D01*
X128469844Y-109202273D01*
X128440266Y-109199499D01*
X128440256Y-109199499D01*
X127859744Y-109199499D01*
X127859733Y-109199499D01*
X127830155Y-109202273D01*
X127830147Y-109202275D01*
X127705523Y-109245883D01*
X127599293Y-109324284D01*
X127599284Y-109324293D01*
X127536556Y-109409288D01*
X127486789Y-109444881D01*
X127456901Y-109449500D01*
X126343099Y-109449500D01*
X126284908Y-109430593D01*
X126263444Y-109409288D01*
X126200715Y-109324293D01*
X126200713Y-109324291D01*
X126200711Y-109324288D01*
X126200706Y-109324284D01*
X126094476Y-109245883D01*
X125969852Y-109202275D01*
X125969851Y-109202274D01*
X125969849Y-109202274D01*
X125969847Y-109202273D01*
X125969844Y-109202273D01*
X125940266Y-109199499D01*
X125940256Y-109199499D01*
X125359744Y-109199499D01*
X125359733Y-109199499D01*
X125330155Y-109202273D01*
X125330147Y-109202275D01*
X125205523Y-109245883D01*
X125099293Y-109324284D01*
X125099284Y-109324293D01*
X125036556Y-109409288D01*
X124986789Y-109444881D01*
X124956901Y-109449500D01*
X124193099Y-109449500D01*
X124134908Y-109430593D01*
X124113444Y-109409288D01*
X124050715Y-109324293D01*
X124050713Y-109324291D01*
X124050711Y-109324288D01*
X124050706Y-109324284D01*
X123944476Y-109245883D01*
X123819852Y-109202275D01*
X123819851Y-109202274D01*
X123819849Y-109202274D01*
X123819847Y-109202273D01*
X123819844Y-109202273D01*
X123790266Y-109199499D01*
X123790256Y-109199499D01*
X123209744Y-109199499D01*
X123209733Y-109199499D01*
X123180155Y-109202273D01*
X123180147Y-109202275D01*
X123055523Y-109245883D01*
X122949293Y-109324284D01*
X122949284Y-109324293D01*
X122886556Y-109409288D01*
X122836789Y-109444881D01*
X122806901Y-109449500D01*
X122123496Y-109449500D01*
X122065305Y-109430593D01*
X122032837Y-109386944D01*
X122032581Y-109387080D01*
X122031704Y-109385421D01*
X122030052Y-109383200D01*
X122029116Y-109380524D01*
X122006588Y-109350000D01*
X121950714Y-109274292D01*
X121950713Y-109274291D01*
X121950711Y-109274288D01*
X121950706Y-109274284D01*
X121844476Y-109195883D01*
X121719852Y-109152275D01*
X121719851Y-109152274D01*
X121719849Y-109152274D01*
X121719847Y-109152273D01*
X121719844Y-109152273D01*
X121690266Y-109149499D01*
X121690256Y-109149499D01*
X121109744Y-109149499D01*
X121109733Y-109149499D01*
X121080155Y-109152273D01*
X121080147Y-109152275D01*
X120955523Y-109195883D01*
X120849293Y-109274284D01*
X120849285Y-109274292D01*
X120770884Y-109380522D01*
X120727276Y-109505146D01*
X120727274Y-109505154D01*
X120724500Y-109534732D01*
X120724500Y-110215265D01*
X120727274Y-110244843D01*
X120727276Y-110244851D01*
X120770884Y-110369475D01*
X120849285Y-110475705D01*
X120849289Y-110475710D01*
X120849292Y-110475712D01*
X120849293Y-110475713D01*
X120955523Y-110554114D01*
X120955524Y-110554114D01*
X120955525Y-110554115D01*
X121080151Y-110597724D01*
X121107441Y-110600283D01*
X121109733Y-110600498D01*
X121109738Y-110600499D01*
X121109744Y-110600499D01*
X121690262Y-110600499D01*
X121690265Y-110600498D01*
X121719849Y-110597724D01*
X121844475Y-110554115D01*
X121950711Y-110475710D01*
X122013442Y-110390712D01*
X122063209Y-110355119D01*
X122093097Y-110350500D01*
X122776505Y-110350500D01*
X122834696Y-110369407D01*
X122867161Y-110413054D01*
X122867419Y-110412918D01*
X122868299Y-110414583D01*
X122869948Y-110416801D01*
X122870815Y-110419278D01*
X122870885Y-110419477D01*
X122941772Y-110515525D01*
X122949289Y-110525710D01*
X122949292Y-110525712D01*
X122949293Y-110525713D01*
X123055523Y-110604114D01*
X123055524Y-110604114D01*
X123055525Y-110604115D01*
X123180151Y-110647724D01*
X123207441Y-110650283D01*
X123209733Y-110650498D01*
X123209738Y-110650499D01*
X123209744Y-110650499D01*
X123790262Y-110650499D01*
X123790265Y-110650498D01*
X123819849Y-110647724D01*
X123944475Y-110604115D01*
X124050711Y-110525710D01*
X124129116Y-110419474D01*
X124130051Y-110416801D01*
X124131612Y-110414751D01*
X124132581Y-110412918D01*
X124132885Y-110413078D01*
X124167115Y-110368122D01*
X124223495Y-110350500D01*
X124926505Y-110350500D01*
X124984696Y-110369407D01*
X125017161Y-110413054D01*
X125017419Y-110412918D01*
X125018299Y-110414583D01*
X125019948Y-110416801D01*
X125020815Y-110419278D01*
X125020885Y-110419477D01*
X125091772Y-110515525D01*
X125099289Y-110525710D01*
X125099292Y-110525712D01*
X125099293Y-110525713D01*
X125205523Y-110604114D01*
X125205524Y-110604114D01*
X125205525Y-110604115D01*
X125330151Y-110647724D01*
X125357441Y-110650283D01*
X125359733Y-110650498D01*
X125359738Y-110650499D01*
X125359744Y-110650499D01*
X125940262Y-110650499D01*
X125940265Y-110650498D01*
X125969849Y-110647724D01*
X126094475Y-110604115D01*
X126200711Y-110525710D01*
X126279116Y-110419474D01*
X126280051Y-110416801D01*
X126281612Y-110414751D01*
X126282581Y-110412918D01*
X126282885Y-110413078D01*
X126317115Y-110368122D01*
X126373495Y-110350500D01*
X127426505Y-110350500D01*
X127484696Y-110369407D01*
X127517161Y-110413054D01*
X127517419Y-110412918D01*
X127518299Y-110414583D01*
X127519948Y-110416801D01*
X127520815Y-110419278D01*
X127520885Y-110419477D01*
X127591772Y-110515525D01*
X127599289Y-110525710D01*
X127599292Y-110525712D01*
X127599293Y-110525713D01*
X127705523Y-110604114D01*
X127705524Y-110604114D01*
X127705525Y-110604115D01*
X127830151Y-110647724D01*
X127857441Y-110650283D01*
X127859733Y-110650498D01*
X127859738Y-110650499D01*
X127859744Y-110650499D01*
X128440262Y-110650499D01*
X128440265Y-110650498D01*
X128469849Y-110647724D01*
X128594475Y-110604115D01*
X128700711Y-110525710D01*
X128779116Y-110419474D01*
X128780051Y-110416801D01*
X128781612Y-110414751D01*
X128782581Y-110412918D01*
X128782885Y-110413078D01*
X128817115Y-110368122D01*
X128873495Y-110350500D01*
X129409309Y-110350500D01*
X129499669Y-110326287D01*
X129499672Y-110326287D01*
X129512903Y-110322741D01*
X129523887Y-110319799D01*
X129626614Y-110260489D01*
X129982603Y-109904500D01*
X130102608Y-109784496D01*
X130157124Y-109756719D01*
X130172611Y-109755500D01*
X130243732Y-109755500D01*
X130287212Y-109765559D01*
X130348607Y-109795573D01*
X130416740Y-109805500D01*
X130416743Y-109805500D01*
X131958257Y-109805500D01*
X131958260Y-109805500D01*
X132026393Y-109795573D01*
X132131483Y-109744198D01*
X132139708Y-109735972D01*
X132194222Y-109708194D01*
X132254654Y-109717764D01*
X132295448Y-109756475D01*
X132367875Y-109881922D01*
X132395725Y-109912851D01*
X132828619Y-109479956D01*
X132859940Y-109534205D01*
X132915795Y-109590060D01*
X132970040Y-109621378D01*
X132537581Y-110053838D01*
X132537581Y-110053839D01*
X132647516Y-110133713D01*
X132647526Y-110133719D01*
X132820346Y-110210662D01*
X132820354Y-110210664D01*
X133005409Y-110250000D01*
X133194591Y-110250000D01*
X133379645Y-110210664D01*
X133379653Y-110210662D01*
X133552473Y-110133719D01*
X133552477Y-110133716D01*
X133662416Y-110053838D01*
X133229957Y-109621379D01*
X133284205Y-109590060D01*
X133340060Y-109534205D01*
X133371379Y-109479957D01*
X133750000Y-109858578D01*
X134128620Y-109479957D01*
X134159940Y-109534205D01*
X134215795Y-109590060D01*
X134270040Y-109621378D01*
X133837580Y-110053838D01*
X133947517Y-110133713D01*
X133947526Y-110133719D01*
X134120346Y-110210662D01*
X134120354Y-110210664D01*
X134305409Y-110250000D01*
X134494591Y-110250000D01*
X134679645Y-110210664D01*
X134679653Y-110210662D01*
X134852473Y-110133719D01*
X134852478Y-110133716D01*
X134962417Y-110053839D01*
X134529957Y-109621379D01*
X134584205Y-109590060D01*
X134640060Y-109534205D01*
X134671379Y-109479957D01*
X135104273Y-109912851D01*
X135132126Y-109881919D01*
X135204550Y-109756476D01*
X135250019Y-109715534D01*
X135310870Y-109709138D01*
X135360288Y-109735969D01*
X135368517Y-109744198D01*
X135406736Y-109762882D01*
X135473604Y-109795572D01*
X135473605Y-109795572D01*
X135473607Y-109795573D01*
X135541740Y-109805500D01*
X135713000Y-109805500D01*
X135771191Y-109824407D01*
X135807155Y-109873907D01*
X135812000Y-109904500D01*
X135812000Y-110700500D01*
X135793093Y-110758691D01*
X135743593Y-110794655D01*
X135713000Y-110799500D01*
X135569733Y-110799500D01*
X135540155Y-110802274D01*
X135540147Y-110802276D01*
X135415523Y-110845884D01*
X135309293Y-110924285D01*
X135309289Y-110924289D01*
X135292683Y-110946789D01*
X135242917Y-110982381D01*
X135213029Y-110987000D01*
X134896971Y-110987000D01*
X134838780Y-110968093D01*
X134817317Y-110946790D01*
X134800711Y-110924289D01*
X134800706Y-110924285D01*
X134694476Y-110845884D01*
X134569852Y-110802276D01*
X134569851Y-110802275D01*
X134569849Y-110802275D01*
X134569847Y-110802274D01*
X134569844Y-110802274D01*
X134540266Y-110799500D01*
X134540256Y-110799500D01*
X133959744Y-110799500D01*
X133959733Y-110799500D01*
X133930155Y-110802274D01*
X133930147Y-110802276D01*
X133805523Y-110845884D01*
X133699293Y-110924285D01*
X133699285Y-110924293D01*
X133620884Y-111030523D01*
X133577276Y-111155147D01*
X133577274Y-111155155D01*
X133574500Y-111184733D01*
X133574500Y-111790266D01*
X133577274Y-111819844D01*
X133577276Y-111819852D01*
X133620884Y-111944476D01*
X133666960Y-112006907D01*
X133699289Y-112050711D01*
X133699292Y-112050713D01*
X133699293Y-112050714D01*
X133805523Y-112129115D01*
X133805524Y-112129115D01*
X133805525Y-112129116D01*
X133930151Y-112172725D01*
X133957441Y-112175284D01*
X133959733Y-112175499D01*
X133959738Y-112175500D01*
X133959744Y-112175500D01*
X134540262Y-112175500D01*
X134540265Y-112175499D01*
X134569849Y-112172725D01*
X134694475Y-112129116D01*
X134800711Y-112050711D01*
X134817316Y-112028210D01*
X134867083Y-111992619D01*
X134896971Y-111988000D01*
X135213029Y-111988000D01*
X135271220Y-112006907D01*
X135292682Y-112028209D01*
X135309289Y-112050711D01*
X135309292Y-112050713D01*
X135309293Y-112050714D01*
X135415523Y-112129115D01*
X135415524Y-112129115D01*
X135415525Y-112129116D01*
X135540151Y-112172725D01*
X135567441Y-112175284D01*
X135569733Y-112175499D01*
X135569738Y-112175500D01*
X135569744Y-112175500D01*
X136150262Y-112175500D01*
X136150265Y-112175499D01*
X136179849Y-112172725D01*
X136304475Y-112129116D01*
X136410711Y-112050711D01*
X136489116Y-111944475D01*
X136532725Y-111819849D01*
X136533936Y-111806935D01*
X137750000Y-111806935D01*
X137750000Y-112162499D01*
X137750001Y-112162500D01*
X138849999Y-112162500D01*
X138850000Y-112162499D01*
X138850000Y-111300001D01*
X139050000Y-111300001D01*
X139050000Y-112162499D01*
X139050001Y-112162500D01*
X140149999Y-112162500D01*
X140150000Y-112162499D01*
X140150000Y-111806941D01*
X140149999Y-111806935D01*
X140139386Y-111718556D01*
X140083919Y-111577904D01*
X139992564Y-111457435D01*
X139872095Y-111366080D01*
X139731443Y-111310613D01*
X139643064Y-111300000D01*
X139050001Y-111300000D01*
X139050000Y-111300001D01*
X138850000Y-111300001D01*
X138849999Y-111300000D01*
X138256935Y-111300000D01*
X138168556Y-111310613D01*
X138027904Y-111366080D01*
X137907435Y-111457435D01*
X137816080Y-111577904D01*
X137760613Y-111718556D01*
X137750000Y-111806935D01*
X136533936Y-111806935D01*
X136535500Y-111790256D01*
X136535500Y-111560821D01*
X136554407Y-111502630D01*
X136564490Y-111490823D01*
X136713000Y-111342314D01*
X136731303Y-111310613D01*
X136778890Y-111228190D01*
X136778890Y-111228188D01*
X136778892Y-111228186D01*
X136813000Y-111100892D01*
X136813000Y-110969107D01*
X136813000Y-109904500D01*
X136831907Y-109846309D01*
X136881407Y-109810345D01*
X136912000Y-109805500D01*
X137083257Y-109805500D01*
X137083260Y-109805500D01*
X137151393Y-109795573D01*
X137256483Y-109744198D01*
X137339198Y-109661483D01*
X137390573Y-109556393D01*
X137400500Y-109488260D01*
X137400500Y-109121740D01*
X137390573Y-109053607D01*
X137339198Y-108948517D01*
X137256483Y-108865802D01*
X137244069Y-108859733D01*
X137151395Y-108814427D01*
X137124139Y-108810456D01*
X137083260Y-108804500D01*
X135541740Y-108804500D01*
X135507673Y-108809463D01*
X135473604Y-108814427D01*
X135368518Y-108865801D01*
X135368515Y-108865803D01*
X135327348Y-108906970D01*
X135272831Y-108934747D01*
X135212399Y-108925175D01*
X135171609Y-108886466D01*
X135132127Y-108818083D01*
X135104272Y-108787146D01*
X134671378Y-109220040D01*
X134640060Y-109165795D01*
X134584205Y-109109940D01*
X134529957Y-109078620D01*
X134908578Y-108700000D01*
X134529957Y-108321379D01*
X134584205Y-108290060D01*
X134640060Y-108234205D01*
X134671379Y-108179957D01*
X135104272Y-108612850D01*
X135132126Y-108581919D01*
X135193569Y-108475495D01*
X135239038Y-108434553D01*
X135299888Y-108428157D01*
X135349307Y-108454988D01*
X135368517Y-108474198D01*
X135410762Y-108494850D01*
X135473604Y-108525572D01*
X135473605Y-108525572D01*
X135473607Y-108525573D01*
X135541740Y-108535500D01*
X136246608Y-108535500D01*
X137599178Y-108535500D01*
X137657369Y-108554407D01*
X137669182Y-108564496D01*
X137820504Y-108715818D01*
X137848281Y-108770335D01*
X137849500Y-108785822D01*
X137849500Y-109604274D01*
X137852353Y-109634694D01*
X137852355Y-109634703D01*
X137897207Y-109762883D01*
X137977845Y-109872144D01*
X137977847Y-109872146D01*
X137977850Y-109872150D01*
X137977853Y-109872152D01*
X137977855Y-109872154D01*
X138087116Y-109952792D01*
X138087117Y-109952792D01*
X138087118Y-109952793D01*
X138215301Y-109997646D01*
X138245725Y-110000499D01*
X138245727Y-110000500D01*
X138245734Y-110000500D01*
X139654273Y-110000500D01*
X139654273Y-110000499D01*
X139684699Y-109997646D01*
X139812882Y-109952793D01*
X139922150Y-109872150D01*
X140002793Y-109762882D01*
X140036413Y-109666802D01*
X140073478Y-109618122D01*
X140129857Y-109600500D01*
X140700353Y-109600500D01*
X140758544Y-109619407D01*
X140780006Y-109640709D01*
X140824289Y-109700711D01*
X140930525Y-109779116D01*
X140930530Y-109779117D01*
X140934253Y-109781085D01*
X140976869Y-109824989D01*
X140987000Y-109868616D01*
X140987000Y-110276127D01*
X140968093Y-110334318D01*
X140946788Y-110355782D01*
X140874294Y-110409284D01*
X140874285Y-110409293D01*
X140795884Y-110515523D01*
X140752276Y-110640147D01*
X140752274Y-110640155D01*
X140749500Y-110669733D01*
X140749500Y-111250266D01*
X140752274Y-111279844D01*
X140752276Y-111279852D01*
X140795884Y-111404476D01*
X140868325Y-111502630D01*
X140874289Y-111510711D01*
X140874292Y-111510713D01*
X140874293Y-111510714D01*
X140980523Y-111589115D01*
X140980524Y-111589115D01*
X140980525Y-111589116D01*
X141105151Y-111632725D01*
X141132441Y-111635284D01*
X141134733Y-111635499D01*
X141134738Y-111635500D01*
X141134744Y-111635500D01*
X141740262Y-111635500D01*
X141740265Y-111635499D01*
X141769849Y-111632725D01*
X141894475Y-111589116D01*
X142000711Y-111510711D01*
X142079116Y-111404475D01*
X142122725Y-111279849D01*
X142125500Y-111250256D01*
X142125500Y-110669744D01*
X142125500Y-110669738D01*
X142125499Y-110669733D01*
X142122725Y-110640155D01*
X142122725Y-110640151D01*
X142079116Y-110515525D01*
X142049731Y-110475710D01*
X142000714Y-110409293D01*
X142000713Y-110409292D01*
X142000711Y-110409289D01*
X142000706Y-110409285D01*
X142000705Y-110409284D01*
X141928212Y-110355782D01*
X141892619Y-110306015D01*
X141888000Y-110276127D01*
X141888000Y-109796971D01*
X141906907Y-109738780D01*
X141928209Y-109717317D01*
X141950711Y-109700711D01*
X142029116Y-109594475D01*
X142072725Y-109469849D01*
X142075500Y-109440256D01*
X142075500Y-108859744D01*
X142075500Y-108859738D01*
X142075499Y-108859733D01*
X142524500Y-108859733D01*
X142524500Y-109440266D01*
X142527274Y-109469844D01*
X142527276Y-109469852D01*
X142570884Y-109594476D01*
X142624263Y-109666802D01*
X142649289Y-109700711D01*
X142721789Y-109754218D01*
X142757381Y-109803984D01*
X142762000Y-109833872D01*
X142762000Y-110313028D01*
X142743093Y-110371219D01*
X142721790Y-110392682D01*
X142699291Y-110409287D01*
X142699285Y-110409293D01*
X142620884Y-110515523D01*
X142577276Y-110640147D01*
X142577274Y-110640155D01*
X142574500Y-110669733D01*
X142574500Y-111250266D01*
X142577274Y-111279844D01*
X142577276Y-111279852D01*
X142620884Y-111404476D01*
X142693325Y-111502630D01*
X142699289Y-111510711D01*
X142699292Y-111510713D01*
X142699293Y-111510714D01*
X142805523Y-111589115D01*
X142805524Y-111589115D01*
X142805525Y-111589116D01*
X142930151Y-111632725D01*
X142957441Y-111635284D01*
X142959733Y-111635499D01*
X142959738Y-111635500D01*
X142959744Y-111635500D01*
X143565262Y-111635500D01*
X143565265Y-111635499D01*
X143594849Y-111632725D01*
X143719475Y-111589116D01*
X143825711Y-111510711D01*
X143904116Y-111404475D01*
X143947725Y-111279849D01*
X143950500Y-111250256D01*
X143950500Y-110669744D01*
X143950500Y-110669738D01*
X143950499Y-110669733D01*
X143947725Y-110640155D01*
X143947725Y-110640151D01*
X143904116Y-110515525D01*
X143874731Y-110475710D01*
X143825714Y-110409293D01*
X143825713Y-110409292D01*
X143825711Y-110409289D01*
X143825706Y-110409285D01*
X143719477Y-110330884D01*
X143715737Y-110328908D01*
X143673126Y-110284999D01*
X143663000Y-110241382D01*
X143663000Y-109833872D01*
X143681907Y-109775681D01*
X143703207Y-109754220D01*
X143775711Y-109700711D01*
X143819992Y-109640711D01*
X143869759Y-109605119D01*
X143899647Y-109600500D01*
X145009309Y-109600500D01*
X145099669Y-109576287D01*
X145099672Y-109576287D01*
X145112903Y-109572741D01*
X145123887Y-109569799D01*
X145226614Y-109510489D01*
X146110490Y-108626614D01*
X146169799Y-108523887D01*
X146172110Y-108515262D01*
X146177579Y-108494852D01*
X146177579Y-108494850D01*
X146182288Y-108477275D01*
X146200500Y-108409309D01*
X146200500Y-107962501D01*
X146550000Y-107962501D01*
X146550000Y-108318064D01*
X146560613Y-108406443D01*
X146616080Y-108547095D01*
X146707435Y-108667564D01*
X146827904Y-108758919D01*
X146968556Y-108814386D01*
X147056935Y-108824999D01*
X147056942Y-108825000D01*
X147649999Y-108825000D01*
X147650000Y-108824999D01*
X147650000Y-107962501D01*
X147850000Y-107962501D01*
X147850000Y-108824999D01*
X147850001Y-108825000D01*
X148443058Y-108825000D01*
X148443064Y-108824999D01*
X148531443Y-108814386D01*
X148672095Y-108758919D01*
X148792564Y-108667564D01*
X148883919Y-108547095D01*
X148939386Y-108406443D01*
X148949999Y-108318064D01*
X148950000Y-108318058D01*
X148950000Y-107962501D01*
X148949999Y-107962500D01*
X147850001Y-107962500D01*
X147850000Y-107962501D01*
X147650000Y-107962501D01*
X147649999Y-107962500D01*
X146550001Y-107962500D01*
X146550000Y-107962501D01*
X146200500Y-107962501D01*
X146200500Y-107406935D01*
X146550000Y-107406935D01*
X146550000Y-107762499D01*
X146550001Y-107762500D01*
X147649999Y-107762500D01*
X147650000Y-107762499D01*
X147650000Y-106900001D01*
X147850000Y-106900001D01*
X147850000Y-107762499D01*
X147850001Y-107762500D01*
X148949999Y-107762500D01*
X148950000Y-107762499D01*
X148950000Y-107406941D01*
X148949999Y-107406935D01*
X148939386Y-107318556D01*
X148883919Y-107177904D01*
X148792564Y-107057435D01*
X148716825Y-107000000D01*
X151701504Y-107000000D01*
X152509157Y-107000000D01*
X152500000Y-107034174D01*
X152500000Y-107165826D01*
X152509157Y-107200000D01*
X151701504Y-107200000D01*
X151728316Y-107369289D01*
X151784250Y-107541440D01*
X151866431Y-107702730D01*
X151866433Y-107702734D01*
X151972824Y-107849169D01*
X152100830Y-107977175D01*
X152247265Y-108083566D01*
X152247269Y-108083568D01*
X152408559Y-108165749D01*
X152580710Y-108221683D01*
X152759490Y-108250000D01*
X152899999Y-108250000D01*
X152900000Y-108249999D01*
X152900000Y-107590842D01*
X152934174Y-107600000D01*
X153065826Y-107600000D01*
X153100000Y-107590842D01*
X153100000Y-108249999D01*
X153100001Y-108250000D01*
X153240510Y-108250000D01*
X153419289Y-108221683D01*
X153591440Y-108165749D01*
X153752730Y-108083568D01*
X153752734Y-108083566D01*
X153899169Y-107977175D01*
X154027175Y-107849169D01*
X154133566Y-107702734D01*
X154133568Y-107702730D01*
X154215749Y-107541440D01*
X154271683Y-107369289D01*
X154298496Y-107200000D01*
X153490843Y-107200000D01*
X153500000Y-107165826D01*
X153500000Y-107034174D01*
X153490843Y-107000000D01*
X154298496Y-107000000D01*
X154271683Y-106830710D01*
X154215749Y-106658559D01*
X154133568Y-106497269D01*
X154133566Y-106497265D01*
X154027175Y-106350830D01*
X153899169Y-106222824D01*
X153752734Y-106116433D01*
X153752730Y-106116431D01*
X153591440Y-106034250D01*
X153419289Y-105978316D01*
X153240510Y-105950000D01*
X153100001Y-105950000D01*
X153100000Y-105950001D01*
X153100000Y-106609157D01*
X153065826Y-106600000D01*
X152934174Y-106600000D01*
X152900000Y-106609157D01*
X152900000Y-105950001D01*
X152899999Y-105950000D01*
X152759490Y-105950000D01*
X152580710Y-105978316D01*
X152408559Y-106034250D01*
X152247269Y-106116431D01*
X152247265Y-106116433D01*
X152100830Y-106222824D01*
X151972824Y-106350830D01*
X151866433Y-106497265D01*
X151866431Y-106497269D01*
X151784250Y-106658559D01*
X151728316Y-106830710D01*
X151701504Y-107000000D01*
X148716825Y-107000000D01*
X148672095Y-106966080D01*
X148531443Y-106910613D01*
X148443064Y-106900000D01*
X147850001Y-106900000D01*
X147850000Y-106900001D01*
X147650000Y-106900001D01*
X147649999Y-106900000D01*
X147056935Y-106900000D01*
X146968556Y-106910613D01*
X146827904Y-106966080D01*
X146707435Y-107057435D01*
X146616080Y-107177904D01*
X146560613Y-107318556D01*
X146550000Y-107406935D01*
X146200500Y-107406935D01*
X146200500Y-106977611D01*
X146219407Y-106919420D01*
X146229496Y-106907607D01*
X146507607Y-106629496D01*
X146562124Y-106601719D01*
X146577611Y-106600500D01*
X148259307Y-106600500D01*
X148259309Y-106600500D01*
X148350322Y-106576113D01*
X148373887Y-106569799D01*
X148476614Y-106510489D01*
X149310489Y-105676614D01*
X149369799Y-105573887D01*
X149370677Y-105570612D01*
X149382221Y-105527526D01*
X149382221Y-105527525D01*
X149399947Y-105461374D01*
X149433273Y-105410061D01*
X149490395Y-105388136D01*
X149495573Y-105388000D01*
X151778865Y-105388000D01*
X151837056Y-105406907D01*
X151858520Y-105428212D01*
X151927845Y-105522144D01*
X151927847Y-105522146D01*
X151927850Y-105522150D01*
X151927853Y-105522152D01*
X151927855Y-105522154D01*
X152037116Y-105602792D01*
X152037117Y-105602792D01*
X152037118Y-105602793D01*
X152165301Y-105647646D01*
X152195725Y-105650499D01*
X152195727Y-105650500D01*
X152195734Y-105650500D01*
X153804273Y-105650500D01*
X153804273Y-105650499D01*
X153834699Y-105647646D01*
X153962882Y-105602793D01*
X154072150Y-105522150D01*
X154152793Y-105412882D01*
X154197646Y-105284699D01*
X154200499Y-105254273D01*
X154200500Y-105254273D01*
X154200500Y-103945727D01*
X154200499Y-103945725D01*
X154199119Y-103931006D01*
X154197646Y-103915301D01*
X154152793Y-103787118D01*
X154145529Y-103777276D01*
X154072154Y-103677855D01*
X154072152Y-103677853D01*
X154072150Y-103677850D01*
X154072146Y-103677847D01*
X154072144Y-103677845D01*
X153962883Y-103597207D01*
X153834703Y-103552355D01*
X153834694Y-103552353D01*
X153804274Y-103549500D01*
X153804266Y-103549500D01*
X152195734Y-103549500D01*
X152195725Y-103549500D01*
X152165305Y-103552353D01*
X152165296Y-103552355D01*
X152037116Y-103597207D01*
X151927855Y-103677845D01*
X151927845Y-103677855D01*
X151847207Y-103787116D01*
X151800465Y-103920698D01*
X151763400Y-103969378D01*
X151707021Y-103987000D01*
X148733251Y-103987000D01*
X148675060Y-103968093D01*
X148674463Y-103967655D01*
X148612883Y-103922207D01*
X148484703Y-103877355D01*
X148484694Y-103877353D01*
X148454274Y-103874500D01*
X148454266Y-103874500D01*
X147045734Y-103874500D01*
X147045725Y-103874500D01*
X147015305Y-103877353D01*
X147015296Y-103877355D01*
X146887116Y-103922207D01*
X146825537Y-103967655D01*
X146767489Y-103986997D01*
X146766749Y-103987000D01*
X145799500Y-103987000D01*
X145741309Y-103968093D01*
X145705345Y-103918593D01*
X145700500Y-103888000D01*
X145700500Y-103230253D01*
X145700498Y-103230241D01*
X145697020Y-103212756D01*
X145688867Y-103171769D01*
X145644552Y-103105448D01*
X145628132Y-103094476D01*
X145578233Y-103061134D01*
X145578231Y-103061133D01*
X145578228Y-103061132D01*
X145578227Y-103061132D01*
X145519758Y-103049501D01*
X145519748Y-103049500D01*
X143980252Y-103049500D01*
X143980251Y-103049500D01*
X143980241Y-103049501D01*
X143921772Y-103061132D01*
X143921766Y-103061134D01*
X143855451Y-103105445D01*
X143855445Y-103105451D01*
X143811134Y-103171766D01*
X143811132Y-103171772D01*
X143799501Y-103230241D01*
X143799500Y-103230253D01*
X143799500Y-105669746D01*
X143799501Y-105669758D01*
X143811132Y-105728227D01*
X143811134Y-105728233D01*
X143855445Y-105794548D01*
X143855448Y-105794552D01*
X143921769Y-105838867D01*
X143966231Y-105847711D01*
X143980241Y-105850498D01*
X143980246Y-105850498D01*
X143980252Y-105850500D01*
X143980253Y-105850500D01*
X145519747Y-105850500D01*
X145519748Y-105850500D01*
X145578231Y-105838867D01*
X145644552Y-105794552D01*
X145688867Y-105728231D01*
X145700500Y-105669748D01*
X145700500Y-105487000D01*
X145719407Y-105428809D01*
X145768907Y-105392845D01*
X145799500Y-105388000D01*
X146665767Y-105388000D01*
X146723958Y-105406907D01*
X146745422Y-105428212D01*
X146777845Y-105472144D01*
X146777847Y-105472146D01*
X146777850Y-105472150D01*
X146777853Y-105472152D01*
X146777855Y-105472154D01*
X146843829Y-105520845D01*
X146879422Y-105570612D01*
X146878964Y-105631796D01*
X146842631Y-105681026D01*
X146785041Y-105699500D01*
X146290691Y-105699500D01*
X146245508Y-105711606D01*
X146200325Y-105723713D01*
X146200324Y-105723712D01*
X146176112Y-105730201D01*
X146176109Y-105730202D01*
X146073390Y-105789507D01*
X145389507Y-106473390D01*
X145330202Y-106576109D01*
X145330201Y-106576112D01*
X145323712Y-106600324D01*
X145323713Y-106600325D01*
X145299500Y-106690691D01*
X145299500Y-108122388D01*
X145280593Y-108180579D01*
X145270504Y-108192391D01*
X144792393Y-108670503D01*
X144737876Y-108698281D01*
X144722389Y-108699500D01*
X143899647Y-108699500D01*
X143841456Y-108680593D01*
X143819993Y-108659290D01*
X143775711Y-108599289D01*
X143775706Y-108599285D01*
X143669476Y-108520884D01*
X143544852Y-108477276D01*
X143544851Y-108477275D01*
X143544849Y-108477275D01*
X143544847Y-108477274D01*
X143544844Y-108477274D01*
X143515266Y-108474500D01*
X143515256Y-108474500D01*
X142909744Y-108474500D01*
X142909733Y-108474500D01*
X142880155Y-108477274D01*
X142880147Y-108477276D01*
X142755523Y-108520884D01*
X142649293Y-108599285D01*
X142649285Y-108599293D01*
X142570884Y-108705523D01*
X142527276Y-108830147D01*
X142527274Y-108830155D01*
X142524500Y-108859733D01*
X142075499Y-108859733D01*
X142072725Y-108830155D01*
X142072725Y-108830151D01*
X142029116Y-108705525D01*
X142025038Y-108700000D01*
X141950714Y-108599293D01*
X141950713Y-108599292D01*
X141950711Y-108599289D01*
X141950706Y-108599285D01*
X141844476Y-108520884D01*
X141719852Y-108477276D01*
X141719851Y-108477275D01*
X141719849Y-108477275D01*
X141719847Y-108477274D01*
X141719844Y-108477274D01*
X141690266Y-108474500D01*
X141690256Y-108474500D01*
X141084744Y-108474500D01*
X141084733Y-108474500D01*
X141055155Y-108477274D01*
X141055147Y-108477276D01*
X140930523Y-108520884D01*
X140824293Y-108599285D01*
X140824291Y-108599287D01*
X140824289Y-108599289D01*
X140780007Y-108659288D01*
X140730241Y-108694881D01*
X140700353Y-108699500D01*
X140138605Y-108699500D01*
X140080414Y-108680593D01*
X140045161Y-108633198D01*
X140019050Y-108558578D01*
X140002793Y-108512118D01*
X139990050Y-108494852D01*
X139922154Y-108402855D01*
X139922152Y-108402853D01*
X139922150Y-108402850D01*
X139922146Y-108402847D01*
X139922144Y-108402845D01*
X139812883Y-108322207D01*
X139684703Y-108277355D01*
X139684694Y-108277353D01*
X139654274Y-108274500D01*
X139654266Y-108274500D01*
X138835822Y-108274500D01*
X138777631Y-108255593D01*
X138765818Y-108245504D01*
X138482814Y-107962500D01*
X138154814Y-107634500D01*
X138147931Y-107630526D01*
X138139065Y-107625407D01*
X138098125Y-107579937D01*
X138091730Y-107519087D01*
X138122323Y-107466099D01*
X138169252Y-107442573D01*
X138189328Y-107438580D01*
X138316811Y-107385775D01*
X138431543Y-107309114D01*
X139794114Y-105946543D01*
X139828888Y-105894498D01*
X139876937Y-105856619D01*
X139911204Y-105850500D01*
X140019747Y-105850500D01*
X140019748Y-105850500D01*
X140078231Y-105838867D01*
X140144552Y-105794552D01*
X140188867Y-105728231D01*
X140200500Y-105669748D01*
X140200500Y-103230252D01*
X140188867Y-103171769D01*
X140144552Y-103105448D01*
X140128132Y-103094476D01*
X140078233Y-103061134D01*
X140078231Y-103061133D01*
X140078228Y-103061132D01*
X140078227Y-103061132D01*
X140019758Y-103049501D01*
X140019748Y-103049500D01*
X138480252Y-103049500D01*
X138480251Y-103049500D01*
X138480241Y-103049501D01*
X138421772Y-103061132D01*
X138421766Y-103061134D01*
X138355451Y-103105445D01*
X138355445Y-103105451D01*
X138311134Y-103171766D01*
X138311132Y-103171772D01*
X138299501Y-103230241D01*
X138299500Y-103230253D01*
X138299500Y-105418835D01*
X138280593Y-105477026D01*
X138270504Y-105488839D01*
X137723839Y-106035504D01*
X137669322Y-106063281D01*
X137653835Y-106064500D01*
X137365188Y-106064500D01*
X137306997Y-106045593D01*
X137271033Y-105996093D01*
X137271033Y-105934907D01*
X137295182Y-105895498D01*
X137339198Y-105851483D01*
X137390573Y-105746393D01*
X137400500Y-105678260D01*
X137400500Y-105311740D01*
X137390573Y-105243607D01*
X137339198Y-105138517D01*
X137256483Y-105055802D01*
X137231368Y-105043524D01*
X137151395Y-105004427D01*
X137124912Y-105000568D01*
X137097725Y-104996607D01*
X137042869Y-104969508D01*
X137014418Y-104915340D01*
X137013000Y-104898642D01*
X137013000Y-101981008D01*
X137012999Y-101981004D01*
X136986080Y-101845672D01*
X136960501Y-101783919D01*
X136933036Y-101717611D01*
X136925500Y-101679726D01*
X136925500Y-101095727D01*
X136925499Y-101095725D01*
X136924853Y-101088840D01*
X136922646Y-101065301D01*
X136877793Y-100937118D01*
X136877792Y-100937116D01*
X136832345Y-100875537D01*
X136813003Y-100817489D01*
X136813000Y-100816749D01*
X136813000Y-100247307D01*
X136831907Y-100189116D01*
X136842000Y-100177300D01*
X136847152Y-100172148D01*
X136920258Y-100073092D01*
X136927793Y-100062882D01*
X136972646Y-99934699D01*
X136975499Y-99904273D01*
X136975500Y-99904273D01*
X136975500Y-98495727D01*
X136975499Y-98495725D01*
X136974916Y-98489511D01*
X136972646Y-98465301D01*
X136927793Y-98337118D01*
X136884091Y-98277904D01*
X136847154Y-98227855D01*
X136847152Y-98227853D01*
X136847150Y-98227850D01*
X136847146Y-98227847D01*
X136841996Y-98222697D01*
X136814219Y-98168180D01*
X136813000Y-98152693D01*
X136813000Y-98062501D01*
X156325000Y-98062501D01*
X156325000Y-98254582D01*
X156335373Y-98340958D01*
X156389576Y-98478408D01*
X156389579Y-98478412D01*
X156478854Y-98596139D01*
X156478860Y-98596145D01*
X156596587Y-98685420D01*
X156596591Y-98685423D01*
X156734041Y-98739626D01*
X156820417Y-98749999D01*
X156820424Y-98750000D01*
X156999999Y-98750000D01*
X157000000Y-98749999D01*
X157000000Y-98062501D01*
X157200000Y-98062501D01*
X157200000Y-98749999D01*
X157200001Y-98750000D01*
X157379576Y-98750000D01*
X157379582Y-98749999D01*
X157465958Y-98739626D01*
X157603408Y-98685423D01*
X157603412Y-98685420D01*
X157721139Y-98596145D01*
X157721145Y-98596139D01*
X157810420Y-98478412D01*
X157810423Y-98478408D01*
X157864626Y-98340958D01*
X157874999Y-98254582D01*
X157875000Y-98254576D01*
X157875000Y-98062501D01*
X157874999Y-98062500D01*
X157200001Y-98062500D01*
X157200000Y-98062501D01*
X157000000Y-98062501D01*
X156999999Y-98062500D01*
X156325001Y-98062500D01*
X156325000Y-98062501D01*
X136813000Y-98062501D01*
X136813000Y-97533249D01*
X136831907Y-97475058D01*
X136832346Y-97474460D01*
X136834092Y-97472095D01*
X136852915Y-97446591D01*
X136877792Y-97412884D01*
X136877792Y-97412883D01*
X136877791Y-97412883D01*
X136877793Y-97412882D01*
X136922646Y-97284699D01*
X136925499Y-97254273D01*
X136925500Y-97254273D01*
X136925500Y-95845727D01*
X136925499Y-95845725D01*
X136922646Y-95815305D01*
X136922646Y-95815301D01*
X136877793Y-95687118D01*
X136877792Y-95687116D01*
X136832345Y-95625537D01*
X136813003Y-95567489D01*
X136813000Y-95566749D01*
X136813000Y-94897307D01*
X136831907Y-94839116D01*
X136842000Y-94827300D01*
X136847152Y-94822148D01*
X136923972Y-94718059D01*
X136927793Y-94712882D01*
X136972646Y-94584699D01*
X136975499Y-94554273D01*
X136975500Y-94554273D01*
X136975500Y-93162000D01*
X136994407Y-93103809D01*
X137043907Y-93067845D01*
X137074500Y-93063000D01*
X141650500Y-93063000D01*
X141708691Y-93081907D01*
X141744655Y-93131407D01*
X141749500Y-93162000D01*
X141749500Y-95095142D01*
X141730593Y-95153333D01*
X141683198Y-95188586D01*
X141587117Y-95222207D01*
X141587116Y-95222207D01*
X141477855Y-95302845D01*
X141477845Y-95302855D01*
X141397207Y-95412116D01*
X141352355Y-95540296D01*
X141352353Y-95540305D01*
X141349500Y-95570725D01*
X141349500Y-97179274D01*
X141352353Y-97209694D01*
X141352355Y-97209703D01*
X141397207Y-97337883D01*
X141477845Y-97447144D01*
X141477847Y-97447146D01*
X141477850Y-97447150D01*
X141477853Y-97447152D01*
X141477855Y-97447154D01*
X141587116Y-97527792D01*
X141587117Y-97527792D01*
X141587118Y-97527793D01*
X141715301Y-97572646D01*
X141745725Y-97575499D01*
X141745727Y-97575500D01*
X141745734Y-97575500D01*
X143054273Y-97575500D01*
X143054273Y-97575499D01*
X143084699Y-97572646D01*
X143212882Y-97527793D01*
X143322150Y-97447150D01*
X143402793Y-97337882D01*
X143447646Y-97209699D01*
X143450499Y-97179273D01*
X143450500Y-97179273D01*
X143450500Y-96134489D01*
X143750000Y-96134489D01*
X143750000Y-96274999D01*
X143750001Y-96275000D01*
X144409157Y-96275000D01*
X144400000Y-96309174D01*
X144400000Y-96440826D01*
X144409157Y-96475000D01*
X143750001Y-96475000D01*
X143750000Y-96475001D01*
X143750000Y-96615510D01*
X143778316Y-96794289D01*
X143834250Y-96966440D01*
X143916431Y-97127730D01*
X143916433Y-97127734D01*
X144022824Y-97274169D01*
X144150830Y-97402175D01*
X144297265Y-97508566D01*
X144297269Y-97508568D01*
X144458559Y-97590749D01*
X144630710Y-97646683D01*
X144800000Y-97673496D01*
X144800000Y-96865842D01*
X144834174Y-96875000D01*
X144965826Y-96875000D01*
X145000000Y-96865842D01*
X145000000Y-97673495D01*
X145019434Y-97670417D01*
X156325000Y-97670417D01*
X156325000Y-97862499D01*
X156325001Y-97862500D01*
X156999999Y-97862500D01*
X157000000Y-97862499D01*
X157000000Y-97175001D01*
X157200000Y-97175001D01*
X157200000Y-97862499D01*
X157200001Y-97862500D01*
X157874999Y-97862500D01*
X157875000Y-97862499D01*
X157875000Y-97670423D01*
X157874999Y-97670417D01*
X157864626Y-97584041D01*
X157810423Y-97446591D01*
X157810420Y-97446587D01*
X157721145Y-97328860D01*
X157721139Y-97328854D01*
X157603412Y-97239579D01*
X157603408Y-97239576D01*
X157465958Y-97185373D01*
X157379582Y-97175000D01*
X157200001Y-97175000D01*
X157200000Y-97175001D01*
X157000000Y-97175001D01*
X156999999Y-97175000D01*
X156820417Y-97175000D01*
X156734041Y-97185373D01*
X156596591Y-97239576D01*
X156596587Y-97239579D01*
X156478860Y-97328854D01*
X156478854Y-97328860D01*
X156389579Y-97446587D01*
X156389576Y-97446591D01*
X156335373Y-97584041D01*
X156325000Y-97670417D01*
X145019434Y-97670417D01*
X145169289Y-97646683D01*
X145341440Y-97590749D01*
X145502730Y-97508568D01*
X145502734Y-97508566D01*
X145649169Y-97402175D01*
X145777175Y-97274169D01*
X145883566Y-97127734D01*
X145883568Y-97127730D01*
X145965749Y-96966440D01*
X146021683Y-96794289D01*
X146050000Y-96615510D01*
X146050000Y-96475001D01*
X146049999Y-96475000D01*
X145390843Y-96475000D01*
X145400000Y-96440826D01*
X145400000Y-96309174D01*
X145390843Y-96275000D01*
X146049999Y-96275000D01*
X146050000Y-96274999D01*
X146050000Y-96134489D01*
X146021683Y-95955710D01*
X145965749Y-95783559D01*
X145883568Y-95622269D01*
X145883566Y-95622265D01*
X145777175Y-95475830D01*
X145649169Y-95347824D01*
X145502734Y-95241433D01*
X145502730Y-95241431D01*
X145341440Y-95159250D01*
X145169289Y-95103316D01*
X145000000Y-95076502D01*
X145000000Y-95884157D01*
X144965826Y-95875000D01*
X144834174Y-95875000D01*
X144800000Y-95884157D01*
X144800000Y-95076503D01*
X144799999Y-95076502D01*
X144630710Y-95103316D01*
X144458559Y-95159250D01*
X144297269Y-95241431D01*
X144297265Y-95241433D01*
X144150830Y-95347824D01*
X144022824Y-95475830D01*
X143916433Y-95622265D01*
X143916431Y-95622269D01*
X143834250Y-95783559D01*
X143778316Y-95955710D01*
X143750000Y-96134489D01*
X143450500Y-96134489D01*
X143450500Y-95570727D01*
X143450499Y-95570725D01*
X143447646Y-95540305D01*
X143447646Y-95540301D01*
X143402793Y-95412118D01*
X143388503Y-95392756D01*
X143322154Y-95302855D01*
X143322152Y-95302853D01*
X143322150Y-95302850D01*
X143322146Y-95302847D01*
X143322144Y-95302845D01*
X143212885Y-95222208D01*
X143206324Y-95218741D01*
X143207507Y-95216502D01*
X143168118Y-95186508D01*
X143150500Y-95130134D01*
X143150500Y-94350001D01*
X150500001Y-94350001D01*
X150500001Y-94429791D01*
X150502909Y-94454874D01*
X150548213Y-94557477D01*
X150627522Y-94636786D01*
X150730127Y-94682090D01*
X150755203Y-94684999D01*
X150906700Y-94684999D01*
X150964891Y-94703906D01*
X151000855Y-94753406D01*
X151000856Y-94814591D01*
X150989017Y-94839000D01*
X150932428Y-94923692D01*
X150864586Y-95087478D01*
X150864586Y-95087480D01*
X150830000Y-95261355D01*
X150830000Y-95499999D01*
X150830001Y-95500000D01*
X151330000Y-95500000D01*
X151330000Y-95700000D01*
X150830001Y-95700000D01*
X150830000Y-95700001D01*
X150830000Y-95938644D01*
X150864586Y-96112519D01*
X150864586Y-96112521D01*
X150932429Y-96276308D01*
X151030923Y-96423715D01*
X151156284Y-96549076D01*
X151303682Y-96647566D01*
X151303691Y-96647570D01*
X151332827Y-96659639D01*
X151379352Y-96699376D01*
X151393636Y-96758870D01*
X151388291Y-96781138D01*
X151388696Y-96781247D01*
X151387016Y-96787513D01*
X151387016Y-96787515D01*
X151376838Y-96825499D01*
X151349500Y-96927525D01*
X151349500Y-97072474D01*
X151387017Y-97212489D01*
X151459487Y-97338010D01*
X151459489Y-97338012D01*
X151459491Y-97338015D01*
X151561985Y-97440509D01*
X151561987Y-97440510D01*
X151561989Y-97440512D01*
X151687511Y-97512982D01*
X151687512Y-97512982D01*
X151687515Y-97512984D01*
X151827525Y-97550500D01*
X151827526Y-97550500D01*
X151972474Y-97550500D01*
X151972475Y-97550500D01*
X152112485Y-97512984D01*
X152112487Y-97512982D01*
X152112489Y-97512982D01*
X152238010Y-97440512D01*
X152238010Y-97440511D01*
X152238015Y-97440509D01*
X152340509Y-97338015D01*
X152362047Y-97300711D01*
X152412982Y-97212489D01*
X152412982Y-97212487D01*
X152412984Y-97212485D01*
X152450500Y-97072475D01*
X152450500Y-96927525D01*
X152412984Y-96787515D01*
X152412982Y-96787512D01*
X152412982Y-96787510D01*
X152340512Y-96661989D01*
X152340510Y-96661987D01*
X152340509Y-96661985D01*
X152335659Y-96657135D01*
X152307884Y-96602621D01*
X152317455Y-96542189D01*
X152335662Y-96517130D01*
X152429074Y-96423718D01*
X152527570Y-96276308D01*
X152595413Y-96112521D01*
X152595413Y-96112519D01*
X152629999Y-95938644D01*
X152630000Y-95938641D01*
X152630000Y-95700001D01*
X152629999Y-95700000D01*
X152130000Y-95700000D01*
X152130000Y-95500000D01*
X152629999Y-95500000D01*
X152630000Y-95499999D01*
X152630000Y-95261358D01*
X152629999Y-95261355D01*
X153770000Y-95261355D01*
X153770000Y-95499999D01*
X153770001Y-95500000D01*
X154270000Y-95500000D01*
X154270000Y-95700000D01*
X153770001Y-95700000D01*
X153770000Y-95700001D01*
X153770000Y-95938644D01*
X153804586Y-96112519D01*
X153804586Y-96112521D01*
X153872429Y-96276308D01*
X153970923Y-96423715D01*
X154096284Y-96549076D01*
X154243691Y-96647570D01*
X154407478Y-96715413D01*
X154407481Y-96715414D01*
X154569999Y-96747739D01*
X154570000Y-96747739D01*
X154570000Y-96237315D01*
X154617339Y-96250000D01*
X154722661Y-96250000D01*
X154770000Y-96237315D01*
X154770000Y-96747739D01*
X154932518Y-96715414D01*
X154932521Y-96715413D01*
X155096308Y-96647570D01*
X155243715Y-96549076D01*
X155369076Y-96423715D01*
X155467570Y-96276308D01*
X155535413Y-96112521D01*
X155535413Y-96112519D01*
X155569999Y-95938644D01*
X155570000Y-95938641D01*
X155570000Y-95700001D01*
X155569999Y-95700000D01*
X155070000Y-95700000D01*
X155070000Y-95500000D01*
X155569999Y-95500000D01*
X155570000Y-95499999D01*
X155570000Y-95261358D01*
X155569999Y-95261355D01*
X155535413Y-95087480D01*
X155535413Y-95087478D01*
X155467571Y-94923692D01*
X155410982Y-94839000D01*
X155394374Y-94780112D01*
X155415552Y-94722709D01*
X155466426Y-94688716D01*
X155493298Y-94684999D01*
X155644790Y-94684999D01*
X155644791Y-94684998D01*
X155669874Y-94682090D01*
X155772477Y-94636786D01*
X155851786Y-94557477D01*
X155855090Y-94549995D01*
X156344751Y-94549995D01*
X156344751Y-94550004D01*
X156363685Y-94718053D01*
X156363688Y-94718065D01*
X156419544Y-94877690D01*
X156419544Y-94877691D01*
X156509520Y-95020886D01*
X156509523Y-95020890D01*
X156629110Y-95140477D01*
X156703172Y-95187013D01*
X156742383Y-95233980D01*
X156749500Y-95270838D01*
X156749500Y-95392756D01*
X156730593Y-95450947D01*
X156683198Y-95486200D01*
X156655527Y-95495882D01*
X156655521Y-95495885D01*
X156549293Y-95574285D01*
X156549285Y-95574293D01*
X156470884Y-95680523D01*
X156427276Y-95805147D01*
X156427274Y-95805155D01*
X156424500Y-95834733D01*
X156424500Y-96440266D01*
X156427274Y-96469844D01*
X156427276Y-96469852D01*
X156470884Y-96594476D01*
X156549285Y-96700706D01*
X156549289Y-96700711D01*
X156549292Y-96700713D01*
X156549293Y-96700714D01*
X156655523Y-96779115D01*
X156655524Y-96779115D01*
X156655525Y-96779116D01*
X156780151Y-96822725D01*
X156807441Y-96825284D01*
X156809733Y-96825499D01*
X156809738Y-96825500D01*
X156809744Y-96825500D01*
X157390262Y-96825500D01*
X157390265Y-96825499D01*
X157419849Y-96822725D01*
X157544475Y-96779116D01*
X157650711Y-96700711D01*
X157729116Y-96594475D01*
X157772725Y-96469849D01*
X157775500Y-96440256D01*
X157775500Y-96062501D01*
X158325000Y-96062501D01*
X158325000Y-96254582D01*
X158335373Y-96340958D01*
X158389576Y-96478408D01*
X158389579Y-96478412D01*
X158478854Y-96596139D01*
X158478860Y-96596145D01*
X158596587Y-96685420D01*
X158596591Y-96685423D01*
X158734041Y-96739626D01*
X158820417Y-96749999D01*
X158820424Y-96750000D01*
X158999999Y-96750000D01*
X159000000Y-96749999D01*
X159000000Y-96062501D01*
X159200000Y-96062501D01*
X159200000Y-96749999D01*
X159200001Y-96750000D01*
X159379576Y-96750000D01*
X159379582Y-96749999D01*
X159465958Y-96739626D01*
X159603408Y-96685423D01*
X159603412Y-96685420D01*
X159721139Y-96596145D01*
X159721145Y-96596139D01*
X159810420Y-96478412D01*
X159810423Y-96478408D01*
X159864626Y-96340958D01*
X159874999Y-96254582D01*
X159875000Y-96254576D01*
X159875000Y-96062501D01*
X159874999Y-96062500D01*
X159200001Y-96062500D01*
X159200000Y-96062501D01*
X159000000Y-96062501D01*
X158999999Y-96062500D01*
X158325001Y-96062500D01*
X158325000Y-96062501D01*
X157775500Y-96062501D01*
X157775500Y-95834744D01*
X157775500Y-95834738D01*
X157775499Y-95834733D01*
X157772725Y-95805155D01*
X157772725Y-95805151D01*
X157729116Y-95680525D01*
X157725038Y-95675000D01*
X157721656Y-95670417D01*
X158325000Y-95670417D01*
X158325000Y-95862499D01*
X158325001Y-95862500D01*
X158999999Y-95862500D01*
X159000000Y-95862499D01*
X159000000Y-95175001D01*
X159200000Y-95175001D01*
X159200000Y-95862499D01*
X159200001Y-95862500D01*
X159874999Y-95862500D01*
X159875000Y-95862499D01*
X159875000Y-95670423D01*
X159874999Y-95670417D01*
X159864626Y-95584041D01*
X159810423Y-95446591D01*
X159810420Y-95446587D01*
X159721145Y-95328860D01*
X159721139Y-95328854D01*
X159603412Y-95239579D01*
X159603408Y-95239576D01*
X159465958Y-95185373D01*
X159379582Y-95175000D01*
X159200001Y-95175000D01*
X159200000Y-95175001D01*
X159000000Y-95175001D01*
X158999999Y-95175000D01*
X158820417Y-95175000D01*
X158734041Y-95185373D01*
X158596591Y-95239576D01*
X158596587Y-95239579D01*
X158478860Y-95328854D01*
X158478854Y-95328860D01*
X158389579Y-95446587D01*
X158389576Y-95446591D01*
X158335373Y-95584041D01*
X158325000Y-95670417D01*
X157721656Y-95670417D01*
X157650714Y-95574293D01*
X157650713Y-95574292D01*
X157650711Y-95574289D01*
X157648592Y-95572725D01*
X157544478Y-95495885D01*
X157544472Y-95495882D01*
X157516802Y-95486200D01*
X157468121Y-95449134D01*
X157450500Y-95392756D01*
X157450500Y-95270838D01*
X157469407Y-95212647D01*
X157496827Y-95187013D01*
X157570890Y-95140477D01*
X157690477Y-95020890D01*
X157780456Y-94877690D01*
X157836313Y-94718059D01*
X157836314Y-94718053D01*
X157855249Y-94550004D01*
X157855249Y-94549995D01*
X157836314Y-94381946D01*
X157836311Y-94381934D01*
X157805206Y-94293043D01*
X157780456Y-94222310D01*
X157740981Y-94159487D01*
X157690479Y-94079113D01*
X157690478Y-94079112D01*
X157690477Y-94079110D01*
X157570890Y-93959523D01*
X157570887Y-93959521D01*
X157570886Y-93959520D01*
X157427691Y-93869544D01*
X157268065Y-93813688D01*
X157268053Y-93813685D01*
X157100004Y-93794751D01*
X157099996Y-93794751D01*
X156931946Y-93813685D01*
X156931934Y-93813688D01*
X156772309Y-93869544D01*
X156772308Y-93869544D01*
X156629113Y-93959520D01*
X156509520Y-94079113D01*
X156419544Y-94222308D01*
X156419544Y-94222309D01*
X156363688Y-94381934D01*
X156363685Y-94381946D01*
X156344751Y-94549995D01*
X155855090Y-94549995D01*
X155897090Y-94454872D01*
X155899999Y-94429797D01*
X155900000Y-94429795D01*
X155900000Y-94350001D01*
X155899999Y-94350000D01*
X154000002Y-94350000D01*
X154000001Y-94350001D01*
X154000001Y-94429791D01*
X154002909Y-94454874D01*
X154048214Y-94557479D01*
X154048215Y-94557481D01*
X154048971Y-94558237D01*
X154049661Y-94559592D01*
X154053398Y-94565047D01*
X154052688Y-94565533D01*
X154076745Y-94612756D01*
X154067170Y-94673187D01*
X154048967Y-94698239D01*
X153970925Y-94776281D01*
X153872429Y-94923691D01*
X153804586Y-95087478D01*
X153804586Y-95087480D01*
X153770000Y-95261355D01*
X152629999Y-95261355D01*
X152595413Y-95087480D01*
X152595413Y-95087478D01*
X152527570Y-94923691D01*
X152429076Y-94776284D01*
X152351031Y-94698239D01*
X152323254Y-94643722D01*
X152332825Y-94583290D01*
X152351041Y-94558222D01*
X152351787Y-94557475D01*
X152397090Y-94454872D01*
X152399999Y-94429797D01*
X152400000Y-94429795D01*
X152400000Y-94350001D01*
X152399999Y-94350000D01*
X150500002Y-94350000D01*
X150500001Y-94350001D01*
X143150500Y-94350001D01*
X143150500Y-93699500D01*
X143169407Y-93641309D01*
X143218907Y-93605345D01*
X143249500Y-93600500D01*
X148931493Y-93600500D01*
X148931494Y-93600500D01*
X149066828Y-93573580D01*
X149104355Y-93558036D01*
X149142240Y-93550500D01*
X149190262Y-93550500D01*
X149190265Y-93550499D01*
X149219849Y-93547725D01*
X149344475Y-93504116D01*
X149450711Y-93425711D01*
X149529116Y-93319475D01*
X149572725Y-93194849D01*
X149573155Y-93190256D01*
X149597413Y-93134086D01*
X149650054Y-93102901D01*
X149671723Y-93100500D01*
X150500500Y-93100500D01*
X150558691Y-93119407D01*
X150594655Y-93168907D01*
X150599500Y-93199500D01*
X150599500Y-93404750D01*
X150613035Y-93472794D01*
X150611534Y-93473092D01*
X150615471Y-93523111D01*
X150611290Y-93535976D01*
X150599500Y-93595249D01*
X150599500Y-93850227D01*
X150580593Y-93908418D01*
X150570505Y-93920229D01*
X150548214Y-93942520D01*
X150502909Y-94045127D01*
X150500000Y-94070202D01*
X150500000Y-94149999D01*
X150500001Y-94150000D01*
X152399998Y-94150000D01*
X152399999Y-94149999D01*
X152399999Y-94070210D01*
X152399998Y-94070208D01*
X152397090Y-94045125D01*
X152351785Y-93942520D01*
X152351786Y-93942520D01*
X152329495Y-93920229D01*
X152301719Y-93865712D01*
X152300500Y-93850227D01*
X152300500Y-93595253D01*
X152300500Y-93595252D01*
X152288867Y-93536769D01*
X152288865Y-93536767D01*
X152286964Y-93527206D01*
X152288466Y-93526907D01*
X152284527Y-93476893D01*
X152288707Y-93464027D01*
X152288864Y-93463234D01*
X152288867Y-93463231D01*
X152300500Y-93404748D01*
X152300500Y-93199500D01*
X152319407Y-93141309D01*
X152368907Y-93105345D01*
X152399500Y-93100500D01*
X154000500Y-93100500D01*
X154058691Y-93119407D01*
X154094655Y-93168907D01*
X154099500Y-93199500D01*
X154099500Y-93404750D01*
X154113035Y-93472794D01*
X154111534Y-93473092D01*
X154115471Y-93523111D01*
X154111290Y-93535976D01*
X154099500Y-93595249D01*
X154099500Y-93850227D01*
X154080593Y-93908418D01*
X154070505Y-93920229D01*
X154048214Y-93942520D01*
X154002909Y-94045127D01*
X154000000Y-94070202D01*
X154000000Y-94149999D01*
X154000001Y-94150000D01*
X155899998Y-94150000D01*
X155899999Y-94149999D01*
X155899999Y-94070210D01*
X155899998Y-94070208D01*
X155897090Y-94045125D01*
X155851785Y-93942520D01*
X155851786Y-93942520D01*
X155829495Y-93920229D01*
X155801719Y-93865712D01*
X155800500Y-93850227D01*
X155800500Y-93595253D01*
X155800500Y-93595252D01*
X155788867Y-93536769D01*
X155788865Y-93536767D01*
X155786964Y-93527206D01*
X155788466Y-93526907D01*
X155784527Y-93476893D01*
X155788707Y-93464027D01*
X155788864Y-93463234D01*
X155788867Y-93463231D01*
X155800500Y-93404748D01*
X155800500Y-93095252D01*
X155788867Y-93036769D01*
X155788865Y-93036767D01*
X155786964Y-93027206D01*
X155788466Y-93026907D01*
X155784527Y-92976893D01*
X155788707Y-92964027D01*
X155788864Y-92963234D01*
X155788867Y-92963231D01*
X155800500Y-92904748D01*
X155800500Y-92595252D01*
X155788867Y-92536769D01*
X155788865Y-92536767D01*
X155786964Y-92527206D01*
X155788466Y-92526907D01*
X155784527Y-92476893D01*
X155788707Y-92464027D01*
X155788864Y-92463234D01*
X155788867Y-92463231D01*
X155800500Y-92404748D01*
X155800500Y-92149500D01*
X155819407Y-92091309D01*
X155868907Y-92055345D01*
X155899500Y-92050500D01*
X156122021Y-92050500D01*
X156180212Y-92069407D01*
X156192025Y-92079496D01*
X156345504Y-92232975D01*
X156373281Y-92287492D01*
X156374500Y-92302979D01*
X156374500Y-92815266D01*
X156377274Y-92844844D01*
X156377276Y-92844852D01*
X156420884Y-92969476D01*
X156494008Y-93068556D01*
X156499289Y-93075711D01*
X156499292Y-93075713D01*
X156499293Y-93075714D01*
X156605523Y-93154115D01*
X156605524Y-93154115D01*
X156605525Y-93154116D01*
X156730151Y-93197725D01*
X156757441Y-93200284D01*
X156759733Y-93200499D01*
X156759738Y-93200500D01*
X156759744Y-93200500D01*
X157340262Y-93200500D01*
X157340265Y-93200499D01*
X157369849Y-93197725D01*
X157494475Y-93154116D01*
X157539371Y-93120981D01*
X157597417Y-93101640D01*
X157655747Y-93120111D01*
X157668162Y-93130633D01*
X158395504Y-93857975D01*
X158423281Y-93912492D01*
X158424500Y-93927979D01*
X158424500Y-94440266D01*
X158427274Y-94469844D01*
X158427276Y-94469852D01*
X158470884Y-94594476D01*
X158549285Y-94700706D01*
X158549289Y-94700711D01*
X158549292Y-94700713D01*
X158549293Y-94700714D01*
X158655523Y-94779115D01*
X158655524Y-94779115D01*
X158655525Y-94779116D01*
X158780151Y-94822725D01*
X158807441Y-94825284D01*
X158809733Y-94825499D01*
X158809738Y-94825500D01*
X158809744Y-94825500D01*
X159390262Y-94825500D01*
X159390265Y-94825499D01*
X159419849Y-94822725D01*
X159544475Y-94779116D01*
X159650711Y-94700711D01*
X159729116Y-94594475D01*
X159772725Y-94469849D01*
X159775500Y-94440256D01*
X159775500Y-93834744D01*
X159775500Y-93834738D01*
X159775499Y-93834733D01*
X159775284Y-93832441D01*
X159772725Y-93805151D01*
X159729116Y-93680525D01*
X159670055Y-93600500D01*
X159650714Y-93574293D01*
X159650713Y-93574292D01*
X159650711Y-93574289D01*
X159650706Y-93574285D01*
X159544476Y-93495884D01*
X159419852Y-93452276D01*
X159419851Y-93452275D01*
X159419849Y-93452275D01*
X159419847Y-93452274D01*
X159419844Y-93452274D01*
X159390266Y-93449500D01*
X159390256Y-93449500D01*
X158877979Y-93449500D01*
X158819788Y-93430593D01*
X158807975Y-93420504D01*
X158419475Y-93032004D01*
X158391698Y-92977487D01*
X158401269Y-92917055D01*
X158444534Y-92873790D01*
X158489479Y-92863000D01*
X159433642Y-92863000D01*
X159433644Y-92863000D01*
X159522788Y-92839114D01*
X159602712Y-92792970D01*
X160230470Y-92165212D01*
X160276614Y-92085288D01*
X160285935Y-92050500D01*
X160300500Y-91996144D01*
X160300500Y-89699647D01*
X160319407Y-89641456D01*
X160340709Y-89619993D01*
X160400711Y-89575711D01*
X160479116Y-89469475D01*
X160522725Y-89344849D01*
X160525500Y-89315256D01*
X160525500Y-88709744D01*
X160525500Y-88709738D01*
X160525499Y-88709733D01*
X160522725Y-88680155D01*
X160522725Y-88680151D01*
X160479116Y-88555525D01*
X160471883Y-88545725D01*
X160400714Y-88449293D01*
X160400713Y-88449292D01*
X160400711Y-88449289D01*
X160400706Y-88449285D01*
X160294476Y-88370884D01*
X160169852Y-88327276D01*
X160169851Y-88327275D01*
X160169849Y-88327275D01*
X160169847Y-88327274D01*
X160169844Y-88327274D01*
X160140266Y-88324500D01*
X160140256Y-88324500D01*
X159559744Y-88324500D01*
X159559733Y-88324500D01*
X159530155Y-88327274D01*
X159530147Y-88327276D01*
X159405523Y-88370884D01*
X159299293Y-88449285D01*
X159299285Y-88449293D01*
X159220884Y-88555523D01*
X159177276Y-88680147D01*
X159177274Y-88680155D01*
X159174500Y-88709733D01*
X159174500Y-89315266D01*
X159177274Y-89344844D01*
X159177276Y-89344852D01*
X159220884Y-89469476D01*
X159298302Y-89574374D01*
X159299289Y-89575711D01*
X159299292Y-89575713D01*
X159299293Y-89575714D01*
X159405523Y-89654115D01*
X159405524Y-89654115D01*
X159405525Y-89654116D01*
X159530151Y-89697725D01*
X159533198Y-89698791D01*
X159581878Y-89735856D01*
X159599500Y-89792235D01*
X159599500Y-90518130D01*
X159580593Y-90576321D01*
X159531093Y-90612285D01*
X159469907Y-90612285D01*
X159420407Y-90576321D01*
X159416675Y-90570802D01*
X159390481Y-90529115D01*
X159390478Y-90529112D01*
X159390477Y-90529110D01*
X159270890Y-90409523D01*
X159270887Y-90409521D01*
X159270886Y-90409520D01*
X159127691Y-90319544D01*
X158968065Y-90263688D01*
X158968053Y-90263685D01*
X158800004Y-90244751D01*
X158799996Y-90244751D01*
X158631946Y-90263685D01*
X158631934Y-90263688D01*
X158472309Y-90319544D01*
X158472308Y-90319544D01*
X158329113Y-90409520D01*
X158209520Y-90529113D01*
X158162987Y-90603171D01*
X158116018Y-90642383D01*
X158079161Y-90649500D01*
X157824500Y-90649500D01*
X157766309Y-90630593D01*
X157730345Y-90581093D01*
X157725500Y-90550500D01*
X157725500Y-90548688D01*
X157744407Y-90490497D01*
X157754490Y-90478690D01*
X158380469Y-89852712D01*
X158426614Y-89772788D01*
X158435965Y-89737885D01*
X158469288Y-89686572D01*
X158498891Y-89670066D01*
X158544475Y-89654116D01*
X158650711Y-89575711D01*
X158729116Y-89469475D01*
X158772725Y-89344849D01*
X158775500Y-89315256D01*
X158775500Y-88709744D01*
X158775500Y-88709738D01*
X158775499Y-88709733D01*
X158772725Y-88680155D01*
X158772725Y-88680151D01*
X158729116Y-88555525D01*
X158721883Y-88545725D01*
X158650714Y-88449293D01*
X158650713Y-88449292D01*
X158650711Y-88449289D01*
X158650706Y-88449285D01*
X158544476Y-88370884D01*
X158419852Y-88327276D01*
X158419851Y-88327275D01*
X158419849Y-88327275D01*
X158419847Y-88327274D01*
X158419844Y-88327274D01*
X158390266Y-88324500D01*
X158390256Y-88324500D01*
X157809744Y-88324500D01*
X157809733Y-88324500D01*
X157780155Y-88327274D01*
X157780147Y-88327276D01*
X157655523Y-88370884D01*
X157558288Y-88442647D01*
X157500240Y-88461989D01*
X157441910Y-88443518D01*
X157405577Y-88394288D01*
X157400500Y-88362992D01*
X157400500Y-87837007D01*
X157419407Y-87778816D01*
X157468907Y-87742852D01*
X157530093Y-87742852D01*
X157558285Y-87757350D01*
X157608190Y-87794181D01*
X157655523Y-87829115D01*
X157655524Y-87829115D01*
X157655525Y-87829116D01*
X157780151Y-87872725D01*
X157807441Y-87875284D01*
X157809733Y-87875499D01*
X157809738Y-87875500D01*
X157809744Y-87875500D01*
X158390262Y-87875500D01*
X158390265Y-87875499D01*
X158419849Y-87872725D01*
X158544475Y-87829116D01*
X158650711Y-87750711D01*
X158729116Y-87644475D01*
X158730259Y-87641208D01*
X158743174Y-87604302D01*
X158780240Y-87555621D01*
X158836618Y-87538000D01*
X159113382Y-87538000D01*
X159171573Y-87556907D01*
X159206826Y-87604302D01*
X159220882Y-87644472D01*
X159220885Y-87644478D01*
X159299285Y-87750706D01*
X159299289Y-87750711D01*
X159299292Y-87750713D01*
X159299293Y-87750714D01*
X159405523Y-87829115D01*
X159405524Y-87829115D01*
X159405525Y-87829116D01*
X159530151Y-87872725D01*
X159557441Y-87875284D01*
X159559733Y-87875499D01*
X159559738Y-87875500D01*
X159559744Y-87875500D01*
X160140262Y-87875500D01*
X160140265Y-87875499D01*
X160169849Y-87872725D01*
X160294475Y-87829116D01*
X160400711Y-87750711D01*
X160479116Y-87644475D01*
X160522725Y-87519849D01*
X160525500Y-87490256D01*
X160525500Y-86884744D01*
X160525500Y-86884738D01*
X160525499Y-86884733D01*
X160525284Y-86882441D01*
X160522725Y-86855151D01*
X160479116Y-86730525D01*
X160479113Y-86730521D01*
X160400714Y-86624293D01*
X160400713Y-86624292D01*
X160400711Y-86624289D01*
X160400706Y-86624285D01*
X160294476Y-86545884D01*
X160169852Y-86502276D01*
X160169851Y-86502275D01*
X160169849Y-86502275D01*
X160169847Y-86502274D01*
X160169844Y-86502274D01*
X160140266Y-86499500D01*
X160140256Y-86499500D01*
X159559744Y-86499500D01*
X159559733Y-86499500D01*
X159530155Y-86502274D01*
X159530147Y-86502276D01*
X159405523Y-86545884D01*
X159299293Y-86624285D01*
X159299285Y-86624293D01*
X159220885Y-86730521D01*
X159220884Y-86730524D01*
X159206826Y-86770698D01*
X159169760Y-86819379D01*
X159113382Y-86837000D01*
X158836618Y-86837000D01*
X158778427Y-86818093D01*
X158743174Y-86770698D01*
X158729116Y-86730524D01*
X158729114Y-86730521D01*
X158650714Y-86624293D01*
X158650713Y-86624292D01*
X158650711Y-86624289D01*
X158650706Y-86624285D01*
X158544476Y-86545884D01*
X158419852Y-86502276D01*
X158419851Y-86502275D01*
X158419849Y-86502275D01*
X158419847Y-86502274D01*
X158419844Y-86502274D01*
X158390266Y-86499500D01*
X158390256Y-86499500D01*
X157809744Y-86499500D01*
X157809733Y-86499500D01*
X157780155Y-86502274D01*
X157780147Y-86502276D01*
X157655523Y-86545884D01*
X157549293Y-86624285D01*
X157549285Y-86624293D01*
X157470885Y-86730521D01*
X157470884Y-86730524D01*
X157456826Y-86770698D01*
X157419760Y-86819379D01*
X157363382Y-86837000D01*
X157203856Y-86837000D01*
X157114712Y-86860886D01*
X157034788Y-86907030D01*
X156769528Y-87172290D01*
X156734107Y-87233642D01*
X156734107Y-87233643D01*
X156723387Y-87252209D01*
X156723386Y-87252211D01*
X156723386Y-87252212D01*
X156706915Y-87313685D01*
X156699500Y-87341357D01*
X156699500Y-88963810D01*
X156680593Y-89022001D01*
X156670504Y-89033814D01*
X155969504Y-89734814D01*
X155914987Y-89762591D01*
X155854555Y-89753020D01*
X155811290Y-89709755D01*
X155800500Y-89664810D01*
X155800500Y-89595253D01*
X155800500Y-89595252D01*
X155788867Y-89536769D01*
X155788865Y-89536767D01*
X155786964Y-89527206D01*
X155788466Y-89526907D01*
X155784527Y-89476893D01*
X155788707Y-89464027D01*
X155788864Y-89463234D01*
X155788867Y-89463231D01*
X155800500Y-89404748D01*
X155800500Y-89149772D01*
X155819407Y-89091581D01*
X155829496Y-89079768D01*
X155851786Y-89057477D01*
X155897090Y-88954872D01*
X155899999Y-88929797D01*
X155900000Y-88929795D01*
X155900000Y-88850001D01*
X155899999Y-88850000D01*
X154949000Y-88850000D01*
X154890809Y-88831093D01*
X154854845Y-88781593D01*
X154850000Y-88751000D01*
X154850000Y-88749000D01*
X154868907Y-88690809D01*
X154918407Y-88654845D01*
X154949000Y-88650000D01*
X155899998Y-88650000D01*
X155899999Y-88649999D01*
X155899999Y-88570210D01*
X155899998Y-88570208D01*
X155897090Y-88545125D01*
X155851786Y-88442522D01*
X155772477Y-88363213D01*
X155669872Y-88317909D01*
X155644797Y-88315000D01*
X155493298Y-88315000D01*
X155435107Y-88296093D01*
X155399143Y-88246593D01*
X155399143Y-88185407D01*
X155410983Y-88160998D01*
X155467570Y-88076308D01*
X155535413Y-87912521D01*
X155535413Y-87912519D01*
X155569999Y-87738644D01*
X155570000Y-87738641D01*
X155570000Y-87500001D01*
X155569999Y-87500000D01*
X155070000Y-87500000D01*
X155070000Y-87300000D01*
X155569999Y-87300000D01*
X155570000Y-87299999D01*
X155570000Y-87061358D01*
X155569999Y-87061355D01*
X155535413Y-86887480D01*
X155535413Y-86887478D01*
X155467570Y-86723691D01*
X155369076Y-86576284D01*
X155243715Y-86450923D01*
X155096308Y-86352429D01*
X154932520Y-86284586D01*
X154770000Y-86252258D01*
X154770000Y-86762684D01*
X154722661Y-86750000D01*
X154617339Y-86750000D01*
X154570000Y-86762684D01*
X154570000Y-86252258D01*
X154407480Y-86284586D01*
X154407478Y-86284586D01*
X154243691Y-86352429D01*
X154096284Y-86450923D01*
X154019504Y-86527704D01*
X153964987Y-86555481D01*
X153904555Y-86545910D01*
X153861290Y-86502645D01*
X153850500Y-86457700D01*
X153850500Y-84781008D01*
X153850499Y-84781004D01*
X153850199Y-84779496D01*
X153823580Y-84645672D01*
X153770775Y-84518189D01*
X153756311Y-84496542D01*
X153694114Y-84403457D01*
X152796543Y-83505886D01*
X152681811Y-83429225D01*
X152681810Y-83429224D01*
X152681808Y-83429223D01*
X152554328Y-83376420D01*
X152418996Y-83349500D01*
X152418994Y-83349500D01*
X152418993Y-83349500D01*
X151362496Y-83349500D01*
X145318994Y-83349500D01*
X145181006Y-83349500D01*
X145181003Y-83349500D01*
X145045672Y-83376420D01*
X145045670Y-83376420D01*
X144918191Y-83429223D01*
X144803460Y-83505883D01*
X141905883Y-86403460D01*
X141829223Y-86518191D01*
X141776420Y-86645670D01*
X141776420Y-86645672D01*
X141759542Y-86730524D01*
X141749500Y-86781006D01*
X141749500Y-88087638D01*
X141730593Y-88145829D01*
X141683198Y-88181082D01*
X141637120Y-88197205D01*
X141637114Y-88197208D01*
X141527855Y-88277845D01*
X141527845Y-88277855D01*
X141447207Y-88387116D01*
X141402355Y-88515296D01*
X141402353Y-88515305D01*
X141399500Y-88545725D01*
X141399500Y-90154274D01*
X141402353Y-90184694D01*
X141402355Y-90184703D01*
X141447207Y-90312883D01*
X141527845Y-90422144D01*
X141527847Y-90422146D01*
X141527850Y-90422150D01*
X141527853Y-90422152D01*
X141527855Y-90422154D01*
X141637114Y-90502791D01*
X141637116Y-90502791D01*
X141637118Y-90502793D01*
X141683198Y-90518917D01*
X141731878Y-90555982D01*
X141749500Y-90612361D01*
X141749500Y-91563000D01*
X141730593Y-91621191D01*
X141681093Y-91657155D01*
X141650500Y-91662000D01*
X136443664Y-91662000D01*
X136385473Y-91643093D01*
X136373660Y-91633004D01*
X135041496Y-90300839D01*
X135013719Y-90246322D01*
X135012500Y-90230835D01*
X135012500Y-89518253D01*
X135012498Y-89518241D01*
X135008042Y-89495841D01*
X135000867Y-89459769D01*
X134956552Y-89393448D01*
X134956548Y-89393445D01*
X134890233Y-89349134D01*
X134890231Y-89349133D01*
X134890228Y-89349132D01*
X134890227Y-89349132D01*
X134831758Y-89337501D01*
X134831748Y-89337500D01*
X133268252Y-89337500D01*
X133268251Y-89337500D01*
X133268241Y-89337501D01*
X133209772Y-89349132D01*
X133209766Y-89349134D01*
X133143451Y-89393445D01*
X133143445Y-89393451D01*
X133099134Y-89459766D01*
X133099132Y-89459772D01*
X133087501Y-89518241D01*
X133087500Y-89518253D01*
X133087500Y-90655099D01*
X133068593Y-90713290D01*
X133058504Y-90725103D01*
X130442018Y-93341589D01*
X130410236Y-93396637D01*
X130364766Y-93437577D01*
X130303916Y-93443972D01*
X130250928Y-93413379D01*
X130226042Y-93357483D01*
X130225500Y-93347136D01*
X130225500Y-93111189D01*
X130244407Y-93052998D01*
X130254490Y-93041191D01*
X131830470Y-91465212D01*
X131876614Y-91385288D01*
X131892047Y-91327690D01*
X131900500Y-91296144D01*
X131900500Y-91263359D01*
X131919407Y-91205168D01*
X131952830Y-91176050D01*
X132087324Y-91104162D01*
X132233883Y-90983883D01*
X132354162Y-90837324D01*
X132443537Y-90670115D01*
X132498573Y-90488683D01*
X132498574Y-90488678D01*
X132517157Y-90300003D01*
X132517157Y-90299996D01*
X132498574Y-90111321D01*
X132498573Y-90111316D01*
X132471816Y-90023111D01*
X132443537Y-89929885D01*
X132354162Y-89762676D01*
X132346237Y-89753020D01*
X132287898Y-89681934D01*
X132233883Y-89616117D01*
X132184643Y-89575706D01*
X132087328Y-89495841D01*
X132087326Y-89495840D01*
X132087324Y-89495838D01*
X132001569Y-89450001D01*
X131920120Y-89406465D01*
X131920115Y-89406463D01*
X131738683Y-89351426D01*
X131738678Y-89351425D01*
X131550003Y-89332843D01*
X131549997Y-89332843D01*
X131361321Y-89351425D01*
X131361316Y-89351426D01*
X131179884Y-89406463D01*
X131179879Y-89406465D01*
X131012681Y-89495835D01*
X131012671Y-89495841D01*
X130866121Y-89616113D01*
X130866113Y-89616121D01*
X130745841Y-89762671D01*
X130745835Y-89762681D01*
X130656465Y-89929879D01*
X130656464Y-89929881D01*
X130644736Y-89968544D01*
X130609750Y-90018740D01*
X130551942Y-90038786D01*
X130493391Y-90021024D01*
X130456463Y-89972240D01*
X130455262Y-89968542D01*
X130443536Y-89929886D01*
X130443533Y-89929879D01*
X130402286Y-89852712D01*
X130354161Y-89762676D01*
X130346236Y-89753020D01*
X130287897Y-89681934D01*
X130233882Y-89616117D01*
X130184642Y-89575706D01*
X130087327Y-89495841D01*
X130087325Y-89495840D01*
X130087323Y-89495838D01*
X130001568Y-89450001D01*
X129920119Y-89406465D01*
X129920114Y-89406463D01*
X129738682Y-89351426D01*
X129738677Y-89351425D01*
X129550002Y-89332843D01*
X129549996Y-89332843D01*
X129361320Y-89351425D01*
X129361315Y-89351426D01*
X129179883Y-89406463D01*
X129179878Y-89406465D01*
X129012680Y-89495835D01*
X129012670Y-89495841D01*
X128866120Y-89616113D01*
X128866112Y-89616121D01*
X128745840Y-89762671D01*
X128745834Y-89762681D01*
X128656464Y-89929879D01*
X128656462Y-89929884D01*
X128601425Y-90111316D01*
X128601424Y-90111321D01*
X128582842Y-90299996D01*
X128582842Y-90300003D01*
X128601424Y-90488678D01*
X128601425Y-90488683D01*
X128656462Y-90670115D01*
X128656464Y-90670120D01*
X128687750Y-90728651D01*
X128745837Y-90837324D01*
X128745839Y-90837326D01*
X128745840Y-90837328D01*
X128781347Y-90880593D01*
X128866116Y-90983883D01*
X128913915Y-91023111D01*
X129003738Y-91096828D01*
X129012675Y-91104162D01*
X129147167Y-91176049D01*
X129189574Y-91220154D01*
X129199499Y-91263359D01*
X129199499Y-91263811D01*
X129180592Y-91322002D01*
X129170503Y-91333815D01*
X127819530Y-92684788D01*
X127805099Y-92709785D01*
X127795038Y-92727211D01*
X127795037Y-92727212D01*
X127773387Y-92764709D01*
X127773386Y-92764711D01*
X127773386Y-92764712D01*
X127751914Y-92844849D01*
X127749500Y-92853857D01*
X127749500Y-94125500D01*
X127730593Y-94183691D01*
X127681093Y-94219655D01*
X127650500Y-94224500D01*
X127059733Y-94224500D01*
X127030155Y-94227274D01*
X127030147Y-94227276D01*
X126905523Y-94270884D01*
X126799293Y-94349285D01*
X126799285Y-94349293D01*
X126720884Y-94455523D01*
X126677276Y-94580147D01*
X126677274Y-94580155D01*
X126674500Y-94609733D01*
X126674500Y-95190266D01*
X126677274Y-95219844D01*
X126677276Y-95219852D01*
X126720884Y-95344476D01*
X126796245Y-95446587D01*
X126799289Y-95450711D01*
X126871789Y-95504218D01*
X126907381Y-95553984D01*
X126912000Y-95583872D01*
X126912000Y-96047676D01*
X126893093Y-96105867D01*
X126871788Y-96127331D01*
X126774294Y-96199284D01*
X126774285Y-96199293D01*
X126695884Y-96305523D01*
X126652276Y-96430147D01*
X126652274Y-96430155D01*
X126649500Y-96459733D01*
X126649500Y-97040266D01*
X126652274Y-97069844D01*
X126652276Y-97069852D01*
X126695884Y-97194476D01*
X126774285Y-97300706D01*
X126774289Y-97300711D01*
X126774292Y-97300713D01*
X126774293Y-97300714D01*
X126880523Y-97379115D01*
X126880524Y-97379115D01*
X126880525Y-97379116D01*
X127005151Y-97422725D01*
X127032441Y-97425284D01*
X127034733Y-97425499D01*
X127034738Y-97425500D01*
X127034744Y-97425500D01*
X127640262Y-97425500D01*
X127640265Y-97425499D01*
X127669849Y-97422725D01*
X127794475Y-97379116D01*
X127900711Y-97300711D01*
X127979116Y-97194475D01*
X128022725Y-97069849D01*
X128025500Y-97040256D01*
X128025500Y-96459744D01*
X128025500Y-96459738D01*
X128025499Y-96459733D01*
X128023726Y-96440826D01*
X128022725Y-96430151D01*
X127979116Y-96305525D01*
X127977002Y-96302661D01*
X127900714Y-96199293D01*
X127900713Y-96199292D01*
X127900711Y-96199289D01*
X127900706Y-96199285D01*
X127900705Y-96199284D01*
X127853211Y-96164231D01*
X127817619Y-96114463D01*
X127813000Y-96084577D01*
X127813000Y-95583872D01*
X127831907Y-95525681D01*
X127853207Y-95504220D01*
X127925711Y-95450711D01*
X127969992Y-95390711D01*
X128019759Y-95355119D01*
X128049647Y-95350500D01*
X128250353Y-95350500D01*
X128308544Y-95369407D01*
X128330006Y-95390709D01*
X128374289Y-95450711D01*
X128374292Y-95450713D01*
X128374293Y-95450714D01*
X128480523Y-95529115D01*
X128480524Y-95529115D01*
X128480525Y-95529116D01*
X128605151Y-95572725D01*
X128632441Y-95575284D01*
X128634733Y-95575499D01*
X128634738Y-95575500D01*
X128634744Y-95575500D01*
X129240262Y-95575500D01*
X129240265Y-95575499D01*
X129269849Y-95572725D01*
X129392803Y-95529700D01*
X129453972Y-95528327D01*
X129504266Y-95563171D01*
X129524475Y-95620923D01*
X129524500Y-95623145D01*
X129524500Y-95851310D01*
X129505593Y-95909501D01*
X129495504Y-95921314D01*
X129371314Y-96045504D01*
X129316797Y-96073281D01*
X129301310Y-96074500D01*
X128859733Y-96074500D01*
X128830155Y-96077274D01*
X128830147Y-96077276D01*
X128705523Y-96120884D01*
X128599293Y-96199285D01*
X128599285Y-96199293D01*
X128520884Y-96305523D01*
X128477276Y-96430147D01*
X128477274Y-96430155D01*
X128474500Y-96459733D01*
X128474500Y-97040266D01*
X128477274Y-97069844D01*
X128477274Y-97069846D01*
X128477274Y-97069848D01*
X128477275Y-97069849D01*
X128481444Y-97081765D01*
X128487000Y-97114461D01*
X128487000Y-97816127D01*
X128468093Y-97874318D01*
X128446788Y-97895782D01*
X128374294Y-97949284D01*
X128374285Y-97949293D01*
X128293106Y-98059288D01*
X128243339Y-98094881D01*
X128213451Y-98099500D01*
X127899647Y-98099500D01*
X127841456Y-98080593D01*
X127819993Y-98059290D01*
X127775711Y-97999289D01*
X127775706Y-97999285D01*
X127669476Y-97920884D01*
X127544852Y-97877276D01*
X127544851Y-97877275D01*
X127544849Y-97877275D01*
X127544847Y-97877274D01*
X127544844Y-97877274D01*
X127515266Y-97874500D01*
X127515256Y-97874500D01*
X126909744Y-97874500D01*
X126909733Y-97874500D01*
X126880155Y-97877274D01*
X126880147Y-97877276D01*
X126755523Y-97920884D01*
X126649293Y-97999285D01*
X126649285Y-97999293D01*
X126570884Y-98105523D01*
X126527276Y-98230147D01*
X126527274Y-98230155D01*
X126524500Y-98259733D01*
X126524500Y-98840266D01*
X126527274Y-98869844D01*
X126527276Y-98869852D01*
X126570884Y-98994476D01*
X126648764Y-99100000D01*
X126649289Y-99100711D01*
X126649292Y-99100713D01*
X126649293Y-99100714D01*
X126755523Y-99179115D01*
X126755524Y-99179115D01*
X126755525Y-99179116D01*
X126880151Y-99222725D01*
X126907441Y-99225284D01*
X126909733Y-99225499D01*
X126909738Y-99225500D01*
X126909744Y-99225500D01*
X127515262Y-99225500D01*
X127515265Y-99225499D01*
X127544849Y-99222725D01*
X127669475Y-99179116D01*
X127775711Y-99100711D01*
X127819992Y-99040711D01*
X127869759Y-99005119D01*
X127899647Y-99000500D01*
X128287254Y-99000500D01*
X128345445Y-99019407D01*
X128366909Y-99040712D01*
X128374284Y-99050705D01*
X128374285Y-99050706D01*
X128374289Y-99050711D01*
X128374292Y-99050713D01*
X128374293Y-99050714D01*
X128480523Y-99129115D01*
X128480524Y-99129115D01*
X128480525Y-99129116D01*
X128605151Y-99172725D01*
X128632441Y-99175284D01*
X128634733Y-99175499D01*
X128634738Y-99175500D01*
X128634744Y-99175500D01*
X129240262Y-99175500D01*
X129240265Y-99175499D01*
X129269849Y-99172725D01*
X129394475Y-99129116D01*
X129500711Y-99050711D01*
X129579116Y-98944475D01*
X129622725Y-98819849D01*
X129625500Y-98790256D01*
X129625500Y-98209744D01*
X129625500Y-98209738D01*
X129625499Y-98209733D01*
X129624141Y-98195249D01*
X129622725Y-98180151D01*
X129579116Y-98055525D01*
X129572522Y-98046591D01*
X129500714Y-97949293D01*
X129500713Y-97949292D01*
X129500711Y-97949289D01*
X129500706Y-97949285D01*
X129500705Y-97949284D01*
X129428212Y-97895782D01*
X129392619Y-97846015D01*
X129388000Y-97816127D01*
X129388000Y-97522895D01*
X129406907Y-97464704D01*
X129456407Y-97428740D01*
X129477752Y-97424328D01*
X129494849Y-97422725D01*
X129619475Y-97379116D01*
X129725711Y-97300711D01*
X129804116Y-97194475D01*
X129847725Y-97069849D01*
X129850500Y-97040256D01*
X129850500Y-96598689D01*
X129869407Y-96540498D01*
X129879490Y-96528691D01*
X130155470Y-96252712D01*
X130177264Y-96214962D01*
X130222732Y-96174022D01*
X130283582Y-96167626D01*
X130336571Y-96198218D01*
X130361458Y-96254114D01*
X130362000Y-96264463D01*
X130362000Y-97781382D01*
X130343093Y-97839573D01*
X130309263Y-97868908D01*
X130305522Y-97870884D01*
X130199293Y-97949285D01*
X130199285Y-97949293D01*
X130120884Y-98055523D01*
X130077276Y-98180147D01*
X130077274Y-98180155D01*
X130074500Y-98209733D01*
X130074500Y-98790266D01*
X130077274Y-98819844D01*
X130077276Y-98819852D01*
X130120884Y-98944476D01*
X130199285Y-99050706D01*
X130199289Y-99050711D01*
X130199292Y-99050713D01*
X130199293Y-99050714D01*
X130305523Y-99129115D01*
X130305524Y-99129115D01*
X130305525Y-99129116D01*
X130430151Y-99172725D01*
X130457441Y-99175284D01*
X130459733Y-99175499D01*
X130459738Y-99175500D01*
X130459744Y-99175500D01*
X131065262Y-99175500D01*
X131065265Y-99175499D01*
X131094849Y-99172725D01*
X131219475Y-99129116D01*
X131325711Y-99050711D01*
X131404116Y-98944475D01*
X131447725Y-98819849D01*
X131450500Y-98790256D01*
X131450500Y-98506935D01*
X132025000Y-98506935D01*
X132025000Y-99099999D01*
X132025001Y-99100000D01*
X132887499Y-99100000D01*
X132887500Y-99099999D01*
X132887500Y-98000001D01*
X133087500Y-98000001D01*
X133087500Y-99099999D01*
X133087501Y-99100000D01*
X133949999Y-99100000D01*
X133950000Y-99099999D01*
X133950000Y-98506941D01*
X133949999Y-98506935D01*
X133939386Y-98418556D01*
X133883919Y-98277904D01*
X133792564Y-98157435D01*
X133672095Y-98066080D01*
X133531443Y-98010613D01*
X133443064Y-98000000D01*
X133087501Y-98000000D01*
X133087500Y-98000001D01*
X132887500Y-98000001D01*
X132887499Y-98000000D01*
X132531935Y-98000000D01*
X132443556Y-98010613D01*
X132302904Y-98066080D01*
X132182435Y-98157435D01*
X132091080Y-98277904D01*
X132035613Y-98418556D01*
X132025000Y-98506935D01*
X131450500Y-98506935D01*
X131450500Y-98209744D01*
X131450500Y-98209738D01*
X131450499Y-98209733D01*
X131449141Y-98195249D01*
X131447725Y-98180151D01*
X131404116Y-98055525D01*
X131397522Y-98046591D01*
X131325714Y-97949293D01*
X131325713Y-97949292D01*
X131325711Y-97949289D01*
X131325706Y-97949285D01*
X131219477Y-97870884D01*
X131215737Y-97868908D01*
X131173126Y-97824999D01*
X131163000Y-97781382D01*
X131163000Y-96650001D01*
X131975000Y-96650001D01*
X131975000Y-97243064D01*
X131985613Y-97331443D01*
X132041080Y-97472095D01*
X132132435Y-97592564D01*
X132252904Y-97683919D01*
X132393556Y-97739386D01*
X132481935Y-97749999D01*
X132481942Y-97750000D01*
X132837499Y-97750000D01*
X132837500Y-97749999D01*
X132837500Y-96650001D01*
X133037500Y-96650001D01*
X133037500Y-97749999D01*
X133037501Y-97750000D01*
X133393058Y-97750000D01*
X133393064Y-97749999D01*
X133481443Y-97739386D01*
X133622095Y-97683919D01*
X133742564Y-97592564D01*
X133833919Y-97472095D01*
X133889386Y-97331443D01*
X133899999Y-97243064D01*
X133900000Y-97243058D01*
X133900000Y-96650001D01*
X133899999Y-96650000D01*
X133037501Y-96650000D01*
X133037500Y-96650001D01*
X132837500Y-96650001D01*
X132837499Y-96650000D01*
X131975001Y-96650000D01*
X131975000Y-96650001D01*
X131163000Y-96650001D01*
X131163000Y-95856935D01*
X131975000Y-95856935D01*
X131975000Y-96449999D01*
X131975001Y-96450000D01*
X132837499Y-96450000D01*
X132837500Y-96449999D01*
X132837500Y-95350001D01*
X133037500Y-95350001D01*
X133037500Y-96449999D01*
X133037501Y-96450000D01*
X133899999Y-96450000D01*
X133900000Y-96449999D01*
X133900000Y-95856941D01*
X133899999Y-95856935D01*
X133889386Y-95768556D01*
X133833919Y-95627904D01*
X133742564Y-95507435D01*
X133622095Y-95416080D01*
X133481443Y-95360613D01*
X133393064Y-95350000D01*
X133037501Y-95350000D01*
X133037500Y-95350001D01*
X132837500Y-95350001D01*
X132837499Y-95350000D01*
X132481935Y-95350000D01*
X132393556Y-95360613D01*
X132252904Y-95416080D01*
X132132435Y-95507435D01*
X132041080Y-95627904D01*
X131985613Y-95768556D01*
X131975000Y-95856935D01*
X131163000Y-95856935D01*
X131163000Y-95618616D01*
X131181907Y-95560425D01*
X131215747Y-95531085D01*
X131219466Y-95529118D01*
X131219475Y-95529116D01*
X131325711Y-95450711D01*
X131404116Y-95344475D01*
X131447725Y-95219849D01*
X131450500Y-95190256D01*
X131450500Y-94609744D01*
X131450500Y-94609738D01*
X131450499Y-94609733D01*
X131447725Y-94580155D01*
X131447725Y-94580151D01*
X131404116Y-94455525D01*
X131403634Y-94454872D01*
X131325714Y-94349293D01*
X131325713Y-94349292D01*
X131325711Y-94349289D01*
X131325706Y-94349285D01*
X131219477Y-94270884D01*
X131215737Y-94268908D01*
X131173126Y-94224999D01*
X131163000Y-94181382D01*
X131163000Y-93950001D01*
X132025000Y-93950001D01*
X132025000Y-94543064D01*
X132035613Y-94631443D01*
X132091080Y-94772095D01*
X132182435Y-94892564D01*
X132302904Y-94983919D01*
X132443556Y-95039386D01*
X132531935Y-95049999D01*
X132531942Y-95050000D01*
X132887499Y-95050000D01*
X132887500Y-95049999D01*
X132887500Y-93950001D01*
X133087500Y-93950001D01*
X133087500Y-95049999D01*
X133087501Y-95050000D01*
X133443058Y-95050000D01*
X133443064Y-95049999D01*
X133531443Y-95039386D01*
X133672095Y-94983919D01*
X133792564Y-94892564D01*
X133883919Y-94772095D01*
X133939386Y-94631443D01*
X133949999Y-94543064D01*
X133950000Y-94543058D01*
X133950000Y-93950001D01*
X133949999Y-93950000D01*
X133087501Y-93950000D01*
X133087500Y-93950001D01*
X132887500Y-93950001D01*
X132887499Y-93950000D01*
X132025001Y-93950000D01*
X132025000Y-93950001D01*
X131163000Y-93950001D01*
X131163000Y-93794401D01*
X131181907Y-93736210D01*
X131191996Y-93724397D01*
X131519756Y-93396637D01*
X131858811Y-93057581D01*
X131913326Y-93029806D01*
X131973758Y-93039377D01*
X132017023Y-93082642D01*
X132027107Y-93139390D01*
X132025000Y-93156932D01*
X132025000Y-93749999D01*
X132025001Y-93750000D01*
X132887499Y-93750000D01*
X132887500Y-93749999D01*
X132887500Y-92650001D01*
X133087500Y-92650001D01*
X133087500Y-93749999D01*
X133087501Y-93750000D01*
X133949999Y-93750000D01*
X133950000Y-93749999D01*
X133950000Y-93156941D01*
X133949999Y-93156935D01*
X133939386Y-93068556D01*
X133883919Y-92927904D01*
X133792564Y-92807435D01*
X133672095Y-92716080D01*
X133531443Y-92660613D01*
X133443064Y-92650000D01*
X133087501Y-92650000D01*
X133087500Y-92650001D01*
X132887500Y-92650001D01*
X132887499Y-92650000D01*
X132531932Y-92650000D01*
X132514390Y-92652107D01*
X132454360Y-92640272D01*
X132412751Y-92595413D01*
X132405457Y-92534664D01*
X132432581Y-92483811D01*
X133624897Y-91291496D01*
X133679414Y-91263719D01*
X133694901Y-91262500D01*
X133980835Y-91262500D01*
X134039026Y-91281407D01*
X134050839Y-91291496D01*
X135383004Y-92623660D01*
X135410781Y-92678177D01*
X135412000Y-92693664D01*
X135412000Y-92802693D01*
X135393093Y-92860884D01*
X135383004Y-92872697D01*
X135377845Y-92877855D01*
X135297207Y-92987116D01*
X135252355Y-93115296D01*
X135252353Y-93115305D01*
X135249500Y-93145725D01*
X135249500Y-94554274D01*
X135252353Y-94584694D01*
X135252355Y-94584703D01*
X135297207Y-94712883D01*
X135377847Y-94822148D01*
X135383000Y-94827300D01*
X135410780Y-94881815D01*
X135412000Y-94897307D01*
X135412000Y-95465766D01*
X135393093Y-95523957D01*
X135371789Y-95545420D01*
X135327855Y-95577845D01*
X135327845Y-95577855D01*
X135247207Y-95687116D01*
X135202355Y-95815296D01*
X135202353Y-95815305D01*
X135199500Y-95845725D01*
X135199500Y-97254274D01*
X135202353Y-97284694D01*
X135202355Y-97284703D01*
X135247207Y-97412883D01*
X135327845Y-97522144D01*
X135327847Y-97522146D01*
X135327850Y-97522150D01*
X135371788Y-97554577D01*
X135407380Y-97604343D01*
X135412000Y-97634232D01*
X135412000Y-98152693D01*
X135393093Y-98210884D01*
X135383004Y-98222697D01*
X135377845Y-98227855D01*
X135297207Y-98337116D01*
X135252355Y-98465296D01*
X135252353Y-98465305D01*
X135249500Y-98495725D01*
X135249500Y-99904274D01*
X135252353Y-99934694D01*
X135252355Y-99934703D01*
X135297207Y-100062883D01*
X135377847Y-100172148D01*
X135383000Y-100177300D01*
X135410780Y-100231815D01*
X135412000Y-100247307D01*
X135412000Y-100715766D01*
X135393093Y-100773957D01*
X135371789Y-100795420D01*
X135327855Y-100827845D01*
X135327845Y-100827855D01*
X135247207Y-100937116D01*
X135202355Y-101065296D01*
X135202353Y-101065305D01*
X135199500Y-101095725D01*
X135199500Y-102504274D01*
X135202353Y-102534694D01*
X135202355Y-102534703D01*
X135247207Y-102662883D01*
X135327845Y-102772144D01*
X135327847Y-102772146D01*
X135327850Y-102772150D01*
X135327853Y-102772152D01*
X135327855Y-102772154D01*
X135437114Y-102852791D01*
X135437116Y-102852791D01*
X135437118Y-102852793D01*
X135545700Y-102890787D01*
X135594378Y-102927850D01*
X135612000Y-102984230D01*
X135612000Y-104898642D01*
X135593093Y-104956833D01*
X135543593Y-104992797D01*
X135527277Y-104996607D01*
X135505467Y-104999784D01*
X135473604Y-105004427D01*
X135368518Y-105055801D01*
X135368514Y-105055804D01*
X135360288Y-105064030D01*
X135305771Y-105091806D01*
X135245339Y-105082232D01*
X135204550Y-105043524D01*
X135132123Y-104918077D01*
X135104273Y-104887147D01*
X134671378Y-105320041D01*
X134640060Y-105265795D01*
X134584205Y-105209940D01*
X134529956Y-105178619D01*
X134962417Y-104746160D01*
X134852475Y-104666282D01*
X134852468Y-104666278D01*
X134679653Y-104589337D01*
X134679645Y-104589335D01*
X134494591Y-104550000D01*
X134305409Y-104550000D01*
X134120354Y-104589335D01*
X134120346Y-104589337D01*
X133947528Y-104666280D01*
X133947516Y-104666286D01*
X133837580Y-104746158D01*
X134270042Y-105178620D01*
X134215795Y-105209940D01*
X134159940Y-105265795D01*
X134128620Y-105320042D01*
X133750000Y-104941422D01*
X133371379Y-105320042D01*
X133340060Y-105265795D01*
X133284205Y-105209940D01*
X133229957Y-105178620D01*
X133662417Y-104746159D01*
X133552475Y-104666282D01*
X133552468Y-104666278D01*
X133379653Y-104589337D01*
X133379645Y-104589335D01*
X133194591Y-104550000D01*
X133005409Y-104550000D01*
X132820354Y-104589335D01*
X132820346Y-104589337D01*
X132647528Y-104666280D01*
X132647517Y-104666286D01*
X132537581Y-104746159D01*
X132970042Y-105178620D01*
X132915795Y-105209940D01*
X132859940Y-105265795D01*
X132828620Y-105320042D01*
X132395725Y-104887146D01*
X132367876Y-104918077D01*
X132367872Y-104918083D01*
X132295448Y-105043524D01*
X132249978Y-105084465D01*
X132189128Y-105090861D01*
X132139710Y-105064029D01*
X132131483Y-105055802D01*
X132106368Y-105043524D01*
X132026395Y-105004427D01*
X131999139Y-105000456D01*
X131958260Y-104994500D01*
X131958257Y-104994500D01*
X131435822Y-104994500D01*
X131377631Y-104975593D01*
X131365819Y-104965504D01*
X131094814Y-104694500D01*
X131094809Y-104694496D01*
X130980689Y-104628609D01*
X130980691Y-104628609D01*
X130931299Y-104615375D01*
X130853392Y-104594500D01*
X130853390Y-104594500D01*
X130776165Y-104594500D01*
X130717974Y-104575593D01*
X130706161Y-104565504D01*
X129879496Y-103738839D01*
X129851719Y-103684322D01*
X129850500Y-103668835D01*
X129850500Y-103545727D01*
X129850499Y-103545725D01*
X129848433Y-103523692D01*
X129847646Y-103515301D01*
X129802793Y-103387118D01*
X129797622Y-103380112D01*
X129722154Y-103277855D01*
X129722152Y-103277853D01*
X129722150Y-103277850D01*
X129722146Y-103277847D01*
X129722144Y-103277845D01*
X129612883Y-103197207D01*
X129484703Y-103152355D01*
X129484694Y-103152353D01*
X129454274Y-103149500D01*
X129454266Y-103149500D01*
X128045734Y-103149500D01*
X128045725Y-103149500D01*
X128015305Y-103152353D01*
X128015296Y-103152355D01*
X127887116Y-103197207D01*
X127777855Y-103277845D01*
X127777845Y-103277855D01*
X127697207Y-103387116D01*
X127652355Y-103515296D01*
X127652353Y-103515305D01*
X127649500Y-103545725D01*
X127649500Y-104479274D01*
X127652916Y-104515695D01*
X127650528Y-104515918D01*
X127645469Y-104566790D01*
X127624809Y-104597031D01*
X127051339Y-105170503D01*
X126996822Y-105198281D01*
X126981335Y-105199500D01*
X125231165Y-105199500D01*
X125172974Y-105180593D01*
X125161161Y-105170504D01*
X124666622Y-104675965D01*
X124638845Y-104621448D01*
X124639529Y-104586645D01*
X124650499Y-104531500D01*
X124650500Y-104531491D01*
X124650500Y-104393508D01*
X124650499Y-104393504D01*
X124627402Y-104277385D01*
X124625500Y-104258071D01*
X124625500Y-104159738D01*
X124625499Y-104159733D01*
X124622725Y-104130155D01*
X124622725Y-104130151D01*
X124579116Y-104005525D01*
X124551490Y-103968093D01*
X124500714Y-103899293D01*
X124500713Y-103899292D01*
X124500711Y-103899289D01*
X124485415Y-103888000D01*
X124394476Y-103820884D01*
X124269852Y-103777276D01*
X124269851Y-103777275D01*
X124269849Y-103777275D01*
X124269847Y-103777274D01*
X124269844Y-103777274D01*
X124240266Y-103774500D01*
X124240256Y-103774500D01*
X124091586Y-103774500D01*
X124072272Y-103772598D01*
X124018995Y-103762000D01*
X124018993Y-103762000D01*
X123149500Y-103762000D01*
X123091309Y-103743093D01*
X123055345Y-103693593D01*
X123050500Y-103663000D01*
X123050500Y-102334733D01*
X123274500Y-102334733D01*
X123274500Y-102940266D01*
X123277274Y-102969844D01*
X123277276Y-102969852D01*
X123320884Y-103094476D01*
X123395455Y-103195516D01*
X123399289Y-103200711D01*
X123399292Y-103200713D01*
X123399293Y-103200714D01*
X123505523Y-103279115D01*
X123505524Y-103279115D01*
X123505525Y-103279116D01*
X123630151Y-103322725D01*
X123657441Y-103325284D01*
X123659733Y-103325499D01*
X123659738Y-103325500D01*
X123659744Y-103325500D01*
X124240262Y-103325500D01*
X124240265Y-103325499D01*
X124269849Y-103322725D01*
X124394475Y-103279116D01*
X124500711Y-103200711D01*
X124500715Y-103200706D01*
X124505902Y-103195520D01*
X124560417Y-103167740D01*
X124620850Y-103177308D01*
X124645913Y-103195516D01*
X124970504Y-103520107D01*
X124998281Y-103574624D01*
X124999500Y-103590111D01*
X124999500Y-104479274D01*
X125002353Y-104509694D01*
X125002355Y-104509703D01*
X125047207Y-104637883D01*
X125127845Y-104747144D01*
X125127847Y-104747146D01*
X125127850Y-104747150D01*
X125127853Y-104747152D01*
X125127855Y-104747154D01*
X125237116Y-104827792D01*
X125237117Y-104827792D01*
X125237118Y-104827793D01*
X125365301Y-104872646D01*
X125395725Y-104875499D01*
X125395727Y-104875500D01*
X125395734Y-104875500D01*
X126804273Y-104875500D01*
X126804273Y-104875499D01*
X126834699Y-104872646D01*
X126962882Y-104827793D01*
X127072150Y-104747150D01*
X127152793Y-104637882D01*
X127197646Y-104509699D01*
X127200499Y-104479273D01*
X127200500Y-104479273D01*
X127200500Y-103545727D01*
X127200499Y-103545725D01*
X127198433Y-103523692D01*
X127197646Y-103515301D01*
X127152793Y-103387118D01*
X127147622Y-103380112D01*
X127072154Y-103277855D01*
X127072152Y-103277853D01*
X127072150Y-103277850D01*
X127072146Y-103277847D01*
X127072144Y-103277845D01*
X126962883Y-103197207D01*
X126834703Y-103152355D01*
X126834694Y-103152353D01*
X126804274Y-103149500D01*
X126804266Y-103149500D01*
X125915112Y-103149500D01*
X125856921Y-103130593D01*
X125845109Y-103120504D01*
X125001614Y-102277011D01*
X125001609Y-102277007D01*
X124898890Y-102217702D01*
X124898886Y-102217700D01*
X124874673Y-102211212D01*
X124874673Y-102211213D01*
X124784309Y-102187000D01*
X124784307Y-102187000D01*
X124633872Y-102187000D01*
X124575681Y-102168093D01*
X124554220Y-102146792D01*
X124500711Y-102074289D01*
X124500706Y-102074285D01*
X124394476Y-101995884D01*
X124269852Y-101952276D01*
X124269851Y-101952275D01*
X124269849Y-101952275D01*
X124269847Y-101952274D01*
X124269844Y-101952274D01*
X124240266Y-101949500D01*
X124240256Y-101949500D01*
X123659744Y-101949500D01*
X123659733Y-101949500D01*
X123630155Y-101952274D01*
X123630147Y-101952276D01*
X123505523Y-101995884D01*
X123399293Y-102074285D01*
X123399285Y-102074293D01*
X123320884Y-102180523D01*
X123277276Y-102305147D01*
X123277274Y-102305155D01*
X123274500Y-102334733D01*
X123050500Y-102334733D01*
X123050500Y-101900001D01*
X131975000Y-101900001D01*
X131975000Y-102493064D01*
X131985613Y-102581443D01*
X132041080Y-102722095D01*
X132132435Y-102842564D01*
X132252904Y-102933919D01*
X132393556Y-102989386D01*
X132481935Y-102999999D01*
X132481942Y-103000000D01*
X132837499Y-103000000D01*
X132837500Y-102999999D01*
X132837500Y-101900001D01*
X133037500Y-101900001D01*
X133037500Y-102999999D01*
X133037501Y-103000000D01*
X133393058Y-103000000D01*
X133393064Y-102999999D01*
X133481443Y-102989386D01*
X133622095Y-102933919D01*
X133742564Y-102842564D01*
X133833919Y-102722095D01*
X133889386Y-102581443D01*
X133899999Y-102493064D01*
X133900000Y-102493058D01*
X133900000Y-101900001D01*
X133899999Y-101900000D01*
X133037501Y-101900000D01*
X133037500Y-101900001D01*
X132837500Y-101900001D01*
X132837499Y-101900000D01*
X131975001Y-101900000D01*
X131975000Y-101900001D01*
X123050500Y-101900001D01*
X123050500Y-101531008D01*
X123050499Y-101531003D01*
X123026293Y-101409308D01*
X123026293Y-101409307D01*
X123023581Y-101395677D01*
X123023580Y-101395672D01*
X123001707Y-101342866D01*
X123001707Y-101342865D01*
X122970777Y-101268193D01*
X122970771Y-101268182D01*
X122894114Y-101153458D01*
X122829496Y-101088840D01*
X122801719Y-101034323D01*
X122800500Y-101018836D01*
X122800500Y-100987501D01*
X124900000Y-100987501D01*
X124900000Y-101343064D01*
X124910613Y-101431443D01*
X124966080Y-101572095D01*
X125057435Y-101692564D01*
X125177904Y-101783919D01*
X125318556Y-101839386D01*
X125406935Y-101849999D01*
X125406942Y-101850000D01*
X125999999Y-101850000D01*
X126000000Y-101849999D01*
X126000000Y-100987501D01*
X126200000Y-100987501D01*
X126200000Y-101849999D01*
X126200001Y-101850000D01*
X126793058Y-101850000D01*
X126793064Y-101849999D01*
X126881443Y-101839386D01*
X127022095Y-101783919D01*
X127142564Y-101692564D01*
X127233919Y-101572095D01*
X127289386Y-101431443D01*
X127299999Y-101343064D01*
X127300000Y-101343058D01*
X127300000Y-100987501D01*
X127550000Y-100987501D01*
X127550000Y-101343064D01*
X127560613Y-101431443D01*
X127616080Y-101572095D01*
X127707435Y-101692564D01*
X127827904Y-101783919D01*
X127968556Y-101839386D01*
X128056935Y-101849999D01*
X128056942Y-101850000D01*
X128649999Y-101850000D01*
X128650000Y-101849999D01*
X128650000Y-100987501D01*
X128850000Y-100987501D01*
X128850000Y-101849999D01*
X128850001Y-101850000D01*
X129443058Y-101850000D01*
X129443064Y-101849999D01*
X129531443Y-101839386D01*
X129672095Y-101783919D01*
X129792564Y-101692564D01*
X129883919Y-101572095D01*
X129939386Y-101431443D01*
X129949999Y-101343064D01*
X129950000Y-101343058D01*
X129950000Y-101106935D01*
X131975000Y-101106935D01*
X131975000Y-101699999D01*
X131975001Y-101700000D01*
X132837499Y-101700000D01*
X132837500Y-101699999D01*
X132837500Y-100600001D01*
X133037500Y-100600001D01*
X133037500Y-101699999D01*
X133037501Y-101700000D01*
X133899999Y-101700000D01*
X133900000Y-101699999D01*
X133900000Y-101106941D01*
X133899999Y-101106935D01*
X133889386Y-101018556D01*
X133833919Y-100877904D01*
X133742564Y-100757435D01*
X133622095Y-100666080D01*
X133481443Y-100610613D01*
X133393064Y-100600000D01*
X133037501Y-100600000D01*
X133037500Y-100600001D01*
X132837500Y-100600001D01*
X132837499Y-100600000D01*
X132481935Y-100600000D01*
X132393556Y-100610613D01*
X132252904Y-100666080D01*
X132132435Y-100757435D01*
X132041080Y-100877904D01*
X131985613Y-101018556D01*
X131975000Y-101106935D01*
X129950000Y-101106935D01*
X129950000Y-100987501D01*
X129949999Y-100987500D01*
X128850001Y-100987500D01*
X128850000Y-100987501D01*
X128650000Y-100987501D01*
X128649999Y-100987500D01*
X127550001Y-100987500D01*
X127550000Y-100987501D01*
X127300000Y-100987501D01*
X127299999Y-100987500D01*
X126200001Y-100987500D01*
X126200000Y-100987501D01*
X126000000Y-100987501D01*
X125999999Y-100987500D01*
X124900001Y-100987500D01*
X124900000Y-100987501D01*
X122800500Y-100987501D01*
X122800500Y-100431935D01*
X124900000Y-100431935D01*
X124900000Y-100787499D01*
X124900001Y-100787500D01*
X125999999Y-100787500D01*
X126000000Y-100787499D01*
X126000000Y-99925001D01*
X126200000Y-99925001D01*
X126200000Y-100787499D01*
X126200001Y-100787500D01*
X127299999Y-100787500D01*
X127300000Y-100787499D01*
X127300000Y-100431941D01*
X127299999Y-100431935D01*
X127550000Y-100431935D01*
X127550000Y-100787499D01*
X127550001Y-100787500D01*
X128649999Y-100787500D01*
X128650000Y-100787499D01*
X128650000Y-99925001D01*
X128850000Y-99925001D01*
X128850000Y-100787499D01*
X128850001Y-100787500D01*
X129949999Y-100787500D01*
X129950000Y-100787499D01*
X129950000Y-100431941D01*
X129949999Y-100431935D01*
X129939386Y-100343556D01*
X129883919Y-100202904D01*
X129792564Y-100082435D01*
X129672095Y-99991080D01*
X129531443Y-99935613D01*
X129443064Y-99925000D01*
X128850001Y-99925000D01*
X128850000Y-99925001D01*
X128650000Y-99925001D01*
X128649999Y-99925000D01*
X128056935Y-99925000D01*
X127968556Y-99935613D01*
X127827904Y-99991080D01*
X127707435Y-100082435D01*
X127616080Y-100202904D01*
X127560613Y-100343556D01*
X127550000Y-100431935D01*
X127299999Y-100431935D01*
X127289386Y-100343556D01*
X127233919Y-100202904D01*
X127142564Y-100082435D01*
X127022095Y-99991080D01*
X126881443Y-99935613D01*
X126793064Y-99925000D01*
X126200001Y-99925000D01*
X126200000Y-99925001D01*
X126000000Y-99925001D01*
X125999999Y-99925000D01*
X125406935Y-99925000D01*
X125318556Y-99935613D01*
X125177904Y-99991080D01*
X125057435Y-100082435D01*
X124966080Y-100202904D01*
X124910613Y-100343556D01*
X124900000Y-100431935D01*
X122800500Y-100431935D01*
X122800500Y-98981008D01*
X122800499Y-98981004D01*
X122793233Y-98944475D01*
X122773580Y-98845672D01*
X122733951Y-98749999D01*
X122720777Y-98718193D01*
X122720771Y-98718182D01*
X122675213Y-98650001D01*
X124600000Y-98650001D01*
X124600000Y-98829582D01*
X124610373Y-98915958D01*
X124664576Y-99053408D01*
X124664579Y-99053412D01*
X124753854Y-99171139D01*
X124753860Y-99171145D01*
X124871587Y-99260420D01*
X124871591Y-99260423D01*
X125009041Y-99314626D01*
X125095417Y-99324999D01*
X125095424Y-99325000D01*
X125287499Y-99325000D01*
X125287500Y-99324999D01*
X125287500Y-98650001D01*
X125487500Y-98650001D01*
X125487500Y-99324999D01*
X125487501Y-99325000D01*
X125679576Y-99325000D01*
X125679582Y-99324999D01*
X125765958Y-99314626D01*
X125803045Y-99300001D01*
X132025000Y-99300001D01*
X132025000Y-99893064D01*
X132035613Y-99981443D01*
X132091080Y-100122095D01*
X132182435Y-100242564D01*
X132302904Y-100333919D01*
X132443556Y-100389386D01*
X132531935Y-100399999D01*
X132531942Y-100400000D01*
X132887499Y-100400000D01*
X132887500Y-100399999D01*
X132887500Y-99300001D01*
X133087500Y-99300001D01*
X133087500Y-100399999D01*
X133087501Y-100400000D01*
X133443058Y-100400000D01*
X133443064Y-100399999D01*
X133531443Y-100389386D01*
X133672095Y-100333919D01*
X133792564Y-100242564D01*
X133883919Y-100122095D01*
X133939386Y-99981443D01*
X133949999Y-99893064D01*
X133950000Y-99893058D01*
X133950000Y-99300001D01*
X133949999Y-99300000D01*
X133087501Y-99300000D01*
X133087500Y-99300001D01*
X132887500Y-99300001D01*
X132887499Y-99300000D01*
X132025001Y-99300000D01*
X132025000Y-99300001D01*
X125803045Y-99300001D01*
X125903408Y-99260423D01*
X125903412Y-99260420D01*
X126021139Y-99171145D01*
X126021145Y-99171139D01*
X126110420Y-99053412D01*
X126110423Y-99053408D01*
X126164626Y-98915958D01*
X126174999Y-98829582D01*
X126175000Y-98829576D01*
X126175000Y-98650001D01*
X126174999Y-98650000D01*
X125487501Y-98650000D01*
X125487500Y-98650001D01*
X125287500Y-98650001D01*
X125287499Y-98650000D01*
X124600001Y-98650000D01*
X124600000Y-98650001D01*
X122675213Y-98650001D01*
X122644114Y-98603458D01*
X122546541Y-98505885D01*
X122431817Y-98429228D01*
X122431806Y-98429222D01*
X122304328Y-98376420D01*
X122168995Y-98349500D01*
X122168993Y-98349500D01*
X122031007Y-98349500D01*
X122031004Y-98349500D01*
X121895672Y-98376420D01*
X121895670Y-98376420D01*
X121768193Y-98429222D01*
X121768182Y-98429228D01*
X121687986Y-98482815D01*
X121632984Y-98499500D01*
X121399500Y-98499500D01*
X121341309Y-98480593D01*
X121305345Y-98431093D01*
X121300500Y-98400500D01*
X121300500Y-98270417D01*
X124600000Y-98270417D01*
X124600000Y-98449999D01*
X124600001Y-98450000D01*
X125287499Y-98450000D01*
X125287500Y-98449999D01*
X125287500Y-97775001D01*
X125487500Y-97775001D01*
X125487500Y-98449999D01*
X125487501Y-98450000D01*
X126174999Y-98450000D01*
X126175000Y-98449999D01*
X126175000Y-98270423D01*
X126174999Y-98270417D01*
X126164626Y-98184041D01*
X126110423Y-98046591D01*
X126110420Y-98046587D01*
X126021145Y-97928860D01*
X126021139Y-97928854D01*
X125903412Y-97839579D01*
X125903408Y-97839576D01*
X125765958Y-97785373D01*
X125679582Y-97775000D01*
X125487501Y-97775000D01*
X125487500Y-97775001D01*
X125287500Y-97775001D01*
X125287499Y-97775000D01*
X125095417Y-97775000D01*
X125009041Y-97785373D01*
X124871591Y-97839576D01*
X124871587Y-97839579D01*
X124753860Y-97928854D01*
X124753854Y-97928860D01*
X124664579Y-98046587D01*
X124664576Y-98046591D01*
X124610373Y-98184041D01*
X124600000Y-98270417D01*
X121300500Y-98270417D01*
X121300500Y-98195253D01*
X121300500Y-98195252D01*
X121288867Y-98136769D01*
X121288865Y-98136767D01*
X121286964Y-98127206D01*
X121288466Y-98126907D01*
X121284527Y-98076893D01*
X121288707Y-98064027D01*
X121288864Y-98063234D01*
X121288867Y-98063231D01*
X121300500Y-98004748D01*
X121300500Y-97749772D01*
X121319407Y-97691581D01*
X121329496Y-97679768D01*
X121351786Y-97657477D01*
X121397090Y-97554872D01*
X121399999Y-97529797D01*
X121400000Y-97529795D01*
X121400000Y-97450001D01*
X121399999Y-97450000D01*
X119500002Y-97450000D01*
X119500001Y-97450001D01*
X119500001Y-97529791D01*
X119502909Y-97554874D01*
X119548213Y-97657477D01*
X119570504Y-97679768D01*
X119598281Y-97734285D01*
X119599500Y-97749772D01*
X119599500Y-98004750D01*
X119613035Y-98072794D01*
X119611534Y-98073092D01*
X119615471Y-98123111D01*
X119611290Y-98135976D01*
X119599500Y-98195249D01*
X119599500Y-98400500D01*
X119580593Y-98458691D01*
X119531093Y-98494655D01*
X119500500Y-98499500D01*
X118520442Y-98499500D01*
X118470942Y-98486236D01*
X118373889Y-98430202D01*
X118373890Y-98430202D01*
X118360351Y-98426574D01*
X118259309Y-98399500D01*
X118140691Y-98399500D01*
X118070567Y-98418289D01*
X118026109Y-98430202D01*
X117949000Y-98474722D01*
X117889152Y-98487444D01*
X117833256Y-98462557D01*
X117802663Y-98409569D01*
X117800500Y-98388986D01*
X117800500Y-98195253D01*
X117800500Y-98195252D01*
X117788867Y-98136769D01*
X117788865Y-98136767D01*
X117786964Y-98127206D01*
X117788466Y-98126907D01*
X117784527Y-98076893D01*
X117788707Y-98064027D01*
X117788864Y-98063234D01*
X117788867Y-98063231D01*
X117800500Y-98004748D01*
X117800500Y-97749772D01*
X117819407Y-97691581D01*
X117829496Y-97679768D01*
X117851786Y-97657477D01*
X117897090Y-97554872D01*
X117899999Y-97529797D01*
X117900000Y-97529795D01*
X117900000Y-97450001D01*
X117899999Y-97450000D01*
X116000002Y-97450000D01*
X116000001Y-97450001D01*
X116000001Y-97529791D01*
X116002909Y-97554874D01*
X116048213Y-97657477D01*
X116070504Y-97679768D01*
X116098281Y-97734285D01*
X116099500Y-97749772D01*
X116099500Y-98004750D01*
X116113035Y-98072794D01*
X116111534Y-98073092D01*
X116115471Y-98123111D01*
X116111290Y-98135976D01*
X116099500Y-98195249D01*
X116099500Y-98195251D01*
X116099500Y-98195252D01*
X116099500Y-98504748D01*
X116111133Y-98563231D01*
X116111133Y-98563232D01*
X116113036Y-98572794D01*
X116111534Y-98573092D01*
X116115469Y-98623117D01*
X116111291Y-98635973D01*
X116099501Y-98695249D01*
X116099501Y-99004746D01*
X116099502Y-99004758D01*
X116113036Y-99072793D01*
X116111535Y-99073091D01*
X116115471Y-99123111D01*
X116111289Y-99135981D01*
X116099501Y-99195241D01*
X116099500Y-99195253D01*
X116099500Y-99504750D01*
X116113035Y-99572794D01*
X116111534Y-99573092D01*
X116115471Y-99623111D01*
X116111290Y-99635976D01*
X116099500Y-99695249D01*
X116099500Y-100004750D01*
X116113035Y-100072794D01*
X116111534Y-100073092D01*
X116115471Y-100123111D01*
X116111290Y-100135976D01*
X116099500Y-100195249D01*
X116099500Y-100504750D01*
X116113035Y-100572794D01*
X116111534Y-100573092D01*
X116115471Y-100623111D01*
X116111290Y-100635976D01*
X116099500Y-100695249D01*
X116099500Y-100695252D01*
X116099500Y-101004748D01*
X116111133Y-101063231D01*
X116111133Y-101063232D01*
X116113036Y-101072794D01*
X116111534Y-101073092D01*
X116115469Y-101123117D01*
X116111291Y-101135973D01*
X116099501Y-101195249D01*
X116099501Y-101504746D01*
X116099502Y-101504758D01*
X116113036Y-101572793D01*
X116111535Y-101573091D01*
X116115471Y-101623111D01*
X116111289Y-101635981D01*
X116099501Y-101695241D01*
X116099500Y-101695253D01*
X116099500Y-102004750D01*
X116113035Y-102072794D01*
X116111534Y-102073092D01*
X116115471Y-102123111D01*
X116111290Y-102135976D01*
X116099500Y-102195249D01*
X116099500Y-102450227D01*
X116080593Y-102508418D01*
X116070505Y-102520229D01*
X116048214Y-102542520D01*
X116002909Y-102645127D01*
X116000000Y-102670202D01*
X115700500Y-102670202D01*
X115700500Y-97170202D01*
X116000000Y-97170202D01*
X116000000Y-97249999D01*
X116000001Y-97250000D01*
X117899998Y-97250000D01*
X117899999Y-97249999D01*
X117899999Y-97170210D01*
X117899998Y-97170208D01*
X117897090Y-97145125D01*
X117851785Y-97042520D01*
X117851784Y-97042518D01*
X117851028Y-97041762D01*
X117850336Y-97040405D01*
X117846602Y-97034953D01*
X117847311Y-97034466D01*
X117823254Y-96987243D01*
X117832829Y-96926812D01*
X117851033Y-96901759D01*
X117929074Y-96823718D01*
X118027570Y-96676308D01*
X118095413Y-96512521D01*
X118095413Y-96512519D01*
X118129999Y-96338644D01*
X118130000Y-96338641D01*
X118130000Y-96100001D01*
X118129999Y-96100000D01*
X117630000Y-96100000D01*
X117630000Y-95900000D01*
X118129999Y-95900000D01*
X118130000Y-95899999D01*
X118130000Y-95661358D01*
X118129999Y-95661355D01*
X119270000Y-95661355D01*
X119270000Y-95899999D01*
X119270001Y-95900000D01*
X119770000Y-95900000D01*
X119770000Y-96100000D01*
X119270001Y-96100000D01*
X119270000Y-96100001D01*
X119270000Y-96338644D01*
X119304586Y-96512519D01*
X119304586Y-96512521D01*
X119372429Y-96676308D01*
X119470923Y-96823715D01*
X119548967Y-96901759D01*
X119576744Y-96956276D01*
X119567173Y-97016708D01*
X119548976Y-97041757D01*
X119548217Y-97042515D01*
X119548214Y-97042520D01*
X119502909Y-97145127D01*
X119500000Y-97170202D01*
X119500000Y-97249999D01*
X119500001Y-97250000D01*
X121399998Y-97250000D01*
X121399999Y-97249999D01*
X121399999Y-97170210D01*
X121399998Y-97170208D01*
X121397090Y-97145125D01*
X121351786Y-97042522D01*
X121272477Y-96963213D01*
X121169872Y-96917909D01*
X121144797Y-96915000D01*
X120993298Y-96915000D01*
X120935107Y-96896093D01*
X120899143Y-96846593D01*
X120899143Y-96785407D01*
X120910983Y-96760998D01*
X120967570Y-96676308D01*
X121035413Y-96512521D01*
X121035413Y-96512519D01*
X121069999Y-96338644D01*
X121070000Y-96338641D01*
X121070000Y-96100001D01*
X121069999Y-96100000D01*
X120570000Y-96100000D01*
X120570000Y-95900000D01*
X121069999Y-95900000D01*
X121070000Y-95899999D01*
X121070000Y-95661358D01*
X121069999Y-95661355D01*
X121035413Y-95487480D01*
X121035413Y-95487478D01*
X120967570Y-95323691D01*
X120869076Y-95176284D01*
X120743715Y-95050923D01*
X120667505Y-95000001D01*
X124750000Y-95000001D01*
X124750000Y-95179582D01*
X124760373Y-95265958D01*
X124814576Y-95403408D01*
X124814579Y-95403412D01*
X124903854Y-95521139D01*
X124903860Y-95521145D01*
X125021587Y-95610420D01*
X125021591Y-95610423D01*
X125159041Y-95664626D01*
X125245417Y-95674999D01*
X125245424Y-95675000D01*
X125437499Y-95675000D01*
X125437500Y-95674999D01*
X125437500Y-95000001D01*
X125637500Y-95000001D01*
X125637500Y-95674999D01*
X125637501Y-95675000D01*
X125829576Y-95675000D01*
X125829582Y-95674999D01*
X125915958Y-95664626D01*
X126053408Y-95610423D01*
X126053412Y-95610420D01*
X126171139Y-95521145D01*
X126171145Y-95521139D01*
X126260420Y-95403412D01*
X126260423Y-95403408D01*
X126314626Y-95265958D01*
X126324999Y-95179582D01*
X126325000Y-95179576D01*
X126325000Y-95000001D01*
X126324999Y-95000000D01*
X125637501Y-95000000D01*
X125637500Y-95000001D01*
X125437500Y-95000001D01*
X125437499Y-95000000D01*
X124750001Y-95000000D01*
X124750000Y-95000001D01*
X120667505Y-95000001D01*
X120596308Y-94952429D01*
X120432520Y-94884586D01*
X120270000Y-94852258D01*
X120270000Y-95362684D01*
X120222661Y-95350000D01*
X120117339Y-95350000D01*
X120070000Y-95362684D01*
X120070000Y-94852258D01*
X119907480Y-94884586D01*
X119907478Y-94884586D01*
X119743691Y-94952429D01*
X119596284Y-95050923D01*
X119470923Y-95176284D01*
X119372429Y-95323691D01*
X119304586Y-95487478D01*
X119304586Y-95487480D01*
X119270000Y-95661355D01*
X118129999Y-95661355D01*
X118095413Y-95487480D01*
X118095413Y-95487478D01*
X118027570Y-95323691D01*
X117929076Y-95176284D01*
X117835661Y-95082869D01*
X117807884Y-95028352D01*
X117817455Y-94967920D01*
X117835666Y-94942857D01*
X117840509Y-94938015D01*
X117905470Y-94825500D01*
X117912982Y-94812489D01*
X117912982Y-94812487D01*
X117912984Y-94812485D01*
X117950500Y-94672475D01*
X117950500Y-94620417D01*
X124750000Y-94620417D01*
X124750000Y-94799999D01*
X124750001Y-94800000D01*
X125437499Y-94800000D01*
X125437500Y-94799999D01*
X125437500Y-94125001D01*
X125637500Y-94125001D01*
X125637500Y-94799999D01*
X125637501Y-94800000D01*
X126324999Y-94800000D01*
X126325000Y-94799999D01*
X126325000Y-94620423D01*
X126324999Y-94620417D01*
X126314626Y-94534041D01*
X126260423Y-94396591D01*
X126260420Y-94396587D01*
X126171145Y-94278860D01*
X126171139Y-94278854D01*
X126053412Y-94189579D01*
X126053408Y-94189576D01*
X125915958Y-94135373D01*
X125829582Y-94125000D01*
X125637501Y-94125000D01*
X125637500Y-94125001D01*
X125437500Y-94125001D01*
X125437499Y-94125000D01*
X125245417Y-94125000D01*
X125159041Y-94135373D01*
X125021591Y-94189576D01*
X125021587Y-94189579D01*
X124903860Y-94278854D01*
X124903854Y-94278860D01*
X124814579Y-94396587D01*
X124814576Y-94396591D01*
X124760373Y-94534041D01*
X124750000Y-94620417D01*
X117950500Y-94620417D01*
X117950500Y-94527525D01*
X117912984Y-94387515D01*
X117912982Y-94387512D01*
X117912982Y-94387510D01*
X117840512Y-94261989D01*
X117840510Y-94261987D01*
X117840509Y-94261985D01*
X117738015Y-94159491D01*
X117738012Y-94159489D01*
X117738010Y-94159487D01*
X117612488Y-94087017D01*
X117612489Y-94087017D01*
X117549735Y-94070202D01*
X117472475Y-94049500D01*
X117327525Y-94049500D01*
X117265790Y-94066041D01*
X117187510Y-94087017D01*
X117061989Y-94159487D01*
X116959487Y-94261989D01*
X116887017Y-94387510D01*
X116849500Y-94527525D01*
X116849500Y-94672475D01*
X116883670Y-94799999D01*
X116888696Y-94818753D01*
X116887050Y-94819193D01*
X116891205Y-94872012D01*
X116859233Y-94924179D01*
X116832828Y-94940360D01*
X116803691Y-94952429D01*
X116656284Y-95050923D01*
X116530923Y-95176284D01*
X116432429Y-95323691D01*
X116364586Y-95487478D01*
X116364586Y-95487480D01*
X116330000Y-95661355D01*
X116330000Y-95899999D01*
X116330001Y-95900000D01*
X116830000Y-95900000D01*
X116830000Y-96100000D01*
X116330001Y-96100000D01*
X116330000Y-96100001D01*
X116330000Y-96338644D01*
X116364586Y-96512519D01*
X116364586Y-96512521D01*
X116432429Y-96676308D01*
X116489017Y-96760998D01*
X116505626Y-96819886D01*
X116484449Y-96877290D01*
X116433575Y-96911283D01*
X116406703Y-96915000D01*
X116255210Y-96915000D01*
X116255207Y-96915001D01*
X116230125Y-96917909D01*
X116127522Y-96963213D01*
X116048213Y-97042522D01*
X116002909Y-97145127D01*
X116000000Y-97170202D01*
X115700500Y-97170202D01*
X115700500Y-90299996D01*
X125982862Y-90299996D01*
X125982862Y-90300003D01*
X126003365Y-90508183D01*
X126003366Y-90508188D01*
X126064093Y-90708376D01*
X126064095Y-90708381D01*
X126162702Y-90892864D01*
X126162706Y-90892870D01*
X126231672Y-90976904D01*
X126661493Y-90547082D01*
X126681910Y-90582446D01*
X126767555Y-90668091D01*
X126802915Y-90688506D01*
X126373095Y-91118327D01*
X126373094Y-91118327D01*
X126457130Y-91187294D01*
X126457136Y-91187298D01*
X126641619Y-91285905D01*
X126641624Y-91285907D01*
X126841812Y-91346634D01*
X126841817Y-91346635D01*
X127049998Y-91367139D01*
X127050004Y-91367139D01*
X127258184Y-91346635D01*
X127258189Y-91346634D01*
X127458377Y-91285907D01*
X127458382Y-91285905D01*
X127642866Y-91187296D01*
X127642877Y-91187289D01*
X127726905Y-91118327D01*
X127297085Y-90688507D01*
X127332447Y-90668091D01*
X127418092Y-90582446D01*
X127438508Y-90547084D01*
X127868328Y-90976904D01*
X127937290Y-90892876D01*
X127937297Y-90892865D01*
X128035906Y-90708381D01*
X128035908Y-90708376D01*
X128096635Y-90508188D01*
X128096636Y-90508183D01*
X128117140Y-90300003D01*
X128117140Y-90299996D01*
X128096636Y-90091816D01*
X128096635Y-90091811D01*
X128035908Y-89891623D01*
X128035906Y-89891618D01*
X127937299Y-89707135D01*
X127937295Y-89707129D01*
X127868328Y-89623094D01*
X127438507Y-90052914D01*
X127418092Y-90017554D01*
X127332447Y-89931909D01*
X127297083Y-89911492D01*
X127726905Y-89481671D01*
X127726906Y-89481671D01*
X127642871Y-89412705D01*
X127642865Y-89412701D01*
X127458382Y-89314094D01*
X127458377Y-89314092D01*
X127258189Y-89253365D01*
X127258184Y-89253364D01*
X127050004Y-89232861D01*
X127049998Y-89232861D01*
X126841817Y-89253364D01*
X126841812Y-89253365D01*
X126641624Y-89314092D01*
X126641619Y-89314094D01*
X126457137Y-89412701D01*
X126457131Y-89412705D01*
X126373095Y-89481671D01*
X126802916Y-89911492D01*
X126767555Y-89931909D01*
X126681910Y-90017554D01*
X126661493Y-90052915D01*
X126231672Y-89623094D01*
X126162706Y-89707130D01*
X126162702Y-89707136D01*
X126064095Y-89891618D01*
X126064093Y-89891623D01*
X126003366Y-90091811D01*
X126003365Y-90091816D01*
X125982862Y-90299996D01*
X115700500Y-90299996D01*
X115700500Y-87589996D01*
X121925210Y-87589996D01*
X121925210Y-87590003D01*
X121944347Y-87869790D01*
X121944349Y-87869799D01*
X122001405Y-88144371D01*
X122095321Y-88408626D01*
X122224348Y-88657636D01*
X122386070Y-88886745D01*
X122386075Y-88886751D01*
X122461289Y-88967286D01*
X123097178Y-88331397D01*
X123102829Y-88339175D01*
X123230825Y-88467171D01*
X123238600Y-88472819D01*
X122600771Y-89110649D01*
X122600770Y-89110649D01*
X122795033Y-89268694D01*
X122795049Y-89268705D01*
X123034656Y-89414414D01*
X123034667Y-89414420D01*
X123291888Y-89526145D01*
X123561937Y-89601810D01*
X123561944Y-89601811D01*
X123839778Y-89639999D01*
X123839782Y-89640000D01*
X124120218Y-89640000D01*
X124120221Y-89639999D01*
X124398055Y-89601811D01*
X124398062Y-89601810D01*
X124668111Y-89526145D01*
X124925332Y-89414420D01*
X124925343Y-89414414D01*
X125164948Y-89268707D01*
X125164966Y-89268694D01*
X125359227Y-89110649D01*
X124721398Y-88472820D01*
X124729175Y-88467171D01*
X124857171Y-88339175D01*
X124862820Y-88331399D01*
X125498709Y-88967287D01*
X125573924Y-88886751D01*
X125573929Y-88886745D01*
X125735651Y-88657636D01*
X125864678Y-88408626D01*
X125958594Y-88144371D01*
X126015650Y-87869799D01*
X126015652Y-87869790D01*
X126034790Y-87590003D01*
X126034790Y-87589996D01*
X135065210Y-87589996D01*
X135065210Y-87590003D01*
X135084347Y-87869790D01*
X135084349Y-87869799D01*
X135141405Y-88144371D01*
X135235321Y-88408626D01*
X135364348Y-88657636D01*
X135526070Y-88886745D01*
X135526075Y-88886751D01*
X135601289Y-88967286D01*
X136237178Y-88331397D01*
X136242829Y-88339175D01*
X136370825Y-88467171D01*
X136378600Y-88472819D01*
X135740771Y-89110649D01*
X135740770Y-89110649D01*
X135935033Y-89268694D01*
X135935049Y-89268705D01*
X136174656Y-89414414D01*
X136174667Y-89414420D01*
X136431888Y-89526145D01*
X136701937Y-89601810D01*
X136701944Y-89601811D01*
X136979778Y-89639999D01*
X136979782Y-89640000D01*
X137260218Y-89640000D01*
X137260221Y-89639999D01*
X137538055Y-89601811D01*
X137538062Y-89601810D01*
X137808111Y-89526145D01*
X138065332Y-89414420D01*
X138065343Y-89414414D01*
X138304948Y-89268707D01*
X138304966Y-89268694D01*
X138499227Y-89110649D01*
X137861398Y-88472820D01*
X137869175Y-88467171D01*
X137997171Y-88339175D01*
X138002820Y-88331399D01*
X138638709Y-88967287D01*
X138713924Y-88886751D01*
X138713929Y-88886745D01*
X138875651Y-88657636D01*
X139004678Y-88408626D01*
X139098594Y-88144371D01*
X139155650Y-87869799D01*
X139155652Y-87869790D01*
X139174790Y-87590003D01*
X139174790Y-87589996D01*
X139155652Y-87310209D01*
X139155650Y-87310200D01*
X139098594Y-87035628D01*
X139004678Y-86771373D01*
X138875651Y-86522363D01*
X138713929Y-86293254D01*
X138713924Y-86293248D01*
X138638709Y-86212712D01*
X138002820Y-86848600D01*
X137997171Y-86840825D01*
X137869175Y-86712829D01*
X137861397Y-86707178D01*
X138499227Y-86069349D01*
X138499228Y-86069349D01*
X138304966Y-85911305D01*
X138304950Y-85911294D01*
X138065343Y-85765585D01*
X138065332Y-85765579D01*
X137808111Y-85653854D01*
X137538062Y-85578189D01*
X137538055Y-85578188D01*
X137260221Y-85540000D01*
X136979778Y-85540000D01*
X136701944Y-85578188D01*
X136701937Y-85578189D01*
X136431888Y-85653854D01*
X136174667Y-85765579D01*
X136174656Y-85765585D01*
X135935049Y-85911294D01*
X135935033Y-85911305D01*
X135740771Y-86069349D01*
X136378601Y-86707179D01*
X136370825Y-86712829D01*
X136242829Y-86840825D01*
X136237179Y-86848601D01*
X135601289Y-86212711D01*
X135601288Y-86212711D01*
X135526082Y-86293238D01*
X135526075Y-86293247D01*
X135364348Y-86522363D01*
X135235321Y-86771373D01*
X135141405Y-87035628D01*
X135084349Y-87310200D01*
X135084347Y-87310209D01*
X135065210Y-87589996D01*
X126034790Y-87589996D01*
X126015652Y-87310209D01*
X126015650Y-87310200D01*
X125958594Y-87035628D01*
X125864678Y-86771373D01*
X125735651Y-86522363D01*
X125573929Y-86293254D01*
X125573924Y-86293248D01*
X125498709Y-86212712D01*
X124862820Y-86848600D01*
X124857171Y-86840825D01*
X124729175Y-86712829D01*
X124721397Y-86707178D01*
X125359227Y-86069349D01*
X125359228Y-86069349D01*
X125164966Y-85911305D01*
X125164950Y-85911294D01*
X124925343Y-85765585D01*
X124925332Y-85765579D01*
X124668111Y-85653854D01*
X124398062Y-85578189D01*
X124398055Y-85578188D01*
X124120221Y-85540000D01*
X123839778Y-85540000D01*
X123561944Y-85578188D01*
X123561937Y-85578189D01*
X123291888Y-85653854D01*
X123034667Y-85765579D01*
X123034656Y-85765585D01*
X122795049Y-85911294D01*
X122795033Y-85911305D01*
X122600771Y-86069349D01*
X123238601Y-86707179D01*
X123230825Y-86712829D01*
X123102829Y-86840825D01*
X123097179Y-86848601D01*
X122461289Y-86212711D01*
X122461288Y-86212711D01*
X122386082Y-86293238D01*
X122386075Y-86293247D01*
X122224348Y-86522363D01*
X122095321Y-86771373D01*
X122001405Y-87035628D01*
X121944349Y-87310200D01*
X121944347Y-87310209D01*
X121925210Y-87589996D01*
X115700500Y-87589996D01*
X115700500Y-80874034D01*
X116799500Y-80874034D01*
X116799500Y-81125965D01*
X116838908Y-81374780D01*
X116838910Y-81374785D01*
X116916759Y-81614379D01*
X117031130Y-81838845D01*
X117179207Y-82042656D01*
X117357344Y-82220793D01*
X117561155Y-82368870D01*
X117785621Y-82483241D01*
X118025215Y-82561090D01*
X118025216Y-82561090D01*
X118025219Y-82561091D01*
X118274035Y-82600500D01*
X118274038Y-82600500D01*
X118525965Y-82600500D01*
X118774780Y-82561091D01*
X118774781Y-82561090D01*
X118774785Y-82561090D01*
X119014379Y-82483241D01*
X119238845Y-82368870D01*
X119442656Y-82220793D01*
X119620793Y-82042656D01*
X119768870Y-81838845D01*
X119883241Y-81614379D01*
X119961090Y-81374785D01*
X120000500Y-81125962D01*
X120000500Y-80874038D01*
X120000500Y-80874034D01*
X155399500Y-80874034D01*
X155399500Y-81125965D01*
X155438908Y-81374780D01*
X155438910Y-81374785D01*
X155516759Y-81614379D01*
X155631130Y-81838845D01*
X155779207Y-82042656D01*
X155957344Y-82220793D01*
X156161155Y-82368870D01*
X156385621Y-82483241D01*
X156625215Y-82561090D01*
X156625216Y-82561090D01*
X156625219Y-82561091D01*
X156874035Y-82600500D01*
X156874038Y-82600500D01*
X157125965Y-82600500D01*
X157374780Y-82561091D01*
X157374781Y-82561090D01*
X157374785Y-82561090D01*
X157614379Y-82483241D01*
X157838845Y-82368870D01*
X158042656Y-82220793D01*
X158220793Y-82042656D01*
X158368870Y-81838845D01*
X158483241Y-81614379D01*
X158561090Y-81374785D01*
X158600500Y-81125962D01*
X158600500Y-80874038D01*
X158600500Y-80874034D01*
X158561091Y-80625219D01*
X158561090Y-80625215D01*
X158483241Y-80385621D01*
X158368870Y-80161155D01*
X158220793Y-79957344D01*
X158042656Y-79779207D01*
X157838845Y-79631130D01*
X157838844Y-79631129D01*
X157838842Y-79631128D01*
X157614379Y-79516759D01*
X157374780Y-79438908D01*
X157125965Y-79399500D01*
X157125962Y-79399500D01*
X156874038Y-79399500D01*
X156874035Y-79399500D01*
X156625219Y-79438908D01*
X156385620Y-79516759D01*
X156161157Y-79631128D01*
X155957345Y-79779206D01*
X155779206Y-79957345D01*
X155631128Y-80161157D01*
X155516759Y-80385620D01*
X155438908Y-80625219D01*
X155399500Y-80874034D01*
X120000500Y-80874034D01*
X119961091Y-80625219D01*
X119961090Y-80625215D01*
X119883241Y-80385621D01*
X119768870Y-80161155D01*
X119620793Y-79957344D01*
X119442656Y-79779207D01*
X119238845Y-79631130D01*
X119238844Y-79631129D01*
X119238842Y-79631128D01*
X119014379Y-79516759D01*
X118774780Y-79438908D01*
X118525965Y-79399500D01*
X118525962Y-79399500D01*
X118274038Y-79399500D01*
X118274035Y-79399500D01*
X118025219Y-79438908D01*
X117785620Y-79516759D01*
X117561157Y-79631128D01*
X117357345Y-79779206D01*
X117179206Y-79957345D01*
X117031128Y-80161157D01*
X116916759Y-80385620D01*
X116838908Y-80625219D01*
X116799500Y-80874034D01*
X115700500Y-80874034D01*
X115700500Y-78049500D01*
X115719407Y-77991309D01*
X115768907Y-77955345D01*
X115799500Y-77950500D01*
X160750500Y-77950500D01*
X160808691Y-77969407D01*
G37*
%TD.AperFunction*%
%TD*%
M02*
