%TF.GenerationSoftware,KiCad,Pcbnew,8.0.4*%
%TF.CreationDate,2024-12-31T00:11:05+04:00*%
%TF.ProjectId,Powerbank,506f7765-7262-4616-9e6b-2e6b69636164,rev?*%
%TF.SameCoordinates,Original*%
%TF.FileFunction,Soldermask,Top*%
%TF.FilePolarity,Negative*%
%FSLAX46Y46*%
G04 Gerber Fmt 4.6, Leading zero omitted, Abs format (unit mm)*
G04 Created by KiCad (PCBNEW 8.0.4) date 2024-12-31 00:11:05*
%MOMM*%
%LPD*%
G01*
G04 APERTURE LIST*
G04 Aperture macros list*
%AMRoundRect*
0 Rectangle with rounded corners*
0 $1 Rounding radius*
0 $2 $3 $4 $5 $6 $7 $8 $9 X,Y pos of 4 corners*
0 Add a 4 corners polygon primitive as box body*
4,1,4,$2,$3,$4,$5,$6,$7,$8,$9,$2,$3,0*
0 Add four circle primitives for the rounded corners*
1,1,$1+$1,$2,$3*
1,1,$1+$1,$4,$5*
1,1,$1+$1,$6,$7*
1,1,$1+$1,$8,$9*
0 Add four rect primitives between the rounded corners*
20,1,$1+$1,$2,$3,$4,$5,0*
20,1,$1+$1,$4,$5,$6,$7,0*
20,1,$1+$1,$6,$7,$8,$9,0*
20,1,$1+$1,$8,$9,$2,$3,0*%
G04 Aperture macros list end*
%ADD10RoundRect,0.250000X-0.650000X0.412500X-0.650000X-0.412500X0.650000X-0.412500X0.650000X0.412500X0*%
%ADD11RoundRect,0.250000X0.650000X-0.412500X0.650000X0.412500X-0.650000X0.412500X-0.650000X-0.412500X0*%
%ADD12RoundRect,0.237500X0.237500X-0.250000X0.237500X0.250000X-0.237500X0.250000X-0.237500X-0.250000X0*%
%ADD13C,2.000000*%
%ADD14C,0.600000*%
%ADD15R,1.300000X0.270000*%
%ADD16O,1.200000X1.700000*%
%ADD17R,1.500000X2.400000*%
%ADD18RoundRect,0.250000X0.412500X0.650000X-0.412500X0.650000X-0.412500X-0.650000X0.412500X-0.650000X0*%
%ADD19RoundRect,0.237500X0.250000X0.237500X-0.250000X0.237500X-0.250000X-0.237500X0.250000X-0.237500X0*%
%ADD20RoundRect,0.237500X-0.237500X0.250000X-0.237500X-0.250000X0.237500X-0.250000X0.237500X0.250000X0*%
%ADD21RoundRect,0.250000X-0.600000X-0.750000X0.600000X-0.750000X0.600000X0.750000X-0.600000X0.750000X0*%
%ADD22O,1.700000X2.000000*%
%ADD23C,2.700000*%
%ADD24RoundRect,0.237500X-0.237500X0.287500X-0.237500X-0.287500X0.237500X-0.287500X0.237500X0.287500X0*%
%ADD25RoundRect,0.237500X0.237500X-0.287500X0.237500X0.287500X-0.237500X0.287500X-0.237500X-0.287500X0*%
%ADD26R,1.800000X1.800000*%
%ADD27C,1.800000*%
%ADD28R,1.524000X1.524000*%
%ADD29C,1.524000*%
%ADD30C,3.500000*%
%ADD31RoundRect,0.250000X-0.750000X0.600000X-0.750000X-0.600000X0.750000X-0.600000X0.750000X0.600000X0*%
%ADD32O,2.000000X1.700000*%
%ADD33RoundRect,0.237500X-0.250000X-0.237500X0.250000X-0.237500X0.250000X0.237500X-0.250000X0.237500X0*%
%ADD34R,2.710000X3.400000*%
%ADD35RoundRect,0.150000X-0.737500X-0.150000X0.737500X-0.150000X0.737500X0.150000X-0.737500X0.150000X0*%
G04 APERTURE END LIST*
D10*
%TO.C,C8*%
X138950000Y-109137500D03*
X138950000Y-112262500D03*
%TD*%
D11*
%TO.C,C2*%
X128750000Y-104012500D03*
X128750000Y-100887500D03*
%TD*%
D12*
%TO.C,R13*%
X157050000Y-92512500D03*
X157050000Y-90687500D03*
%TD*%
D13*
%TO.C,SW1*%
X141850000Y-113600000D03*
X148350000Y-113600000D03*
X141850000Y-118100001D03*
X148350001Y-118100000D03*
%TD*%
D14*
%TO.C,J2*%
X117400000Y-105600000D03*
X117400000Y-94600000D03*
D15*
X116950000Y-102850000D03*
X116950000Y-102350000D03*
X116950000Y-101850000D03*
X116950001Y-101350000D03*
X116950000Y-100850000D03*
X116950000Y-100350000D03*
X116950000Y-99850000D03*
X116950000Y-99350000D03*
X116950001Y-98850000D03*
X116950000Y-98350000D03*
X116950000Y-97850000D03*
X116950000Y-97350000D03*
X120450000Y-97350000D03*
X120450000Y-97850000D03*
X120450000Y-98350000D03*
X120449999Y-98850000D03*
X120450000Y-99350000D03*
X120450000Y-99850000D03*
X120450000Y-100350000D03*
X120450000Y-100850000D03*
X120449999Y-101350000D03*
X120450000Y-101850000D03*
X120450000Y-102350000D03*
X120450000Y-102850000D03*
D16*
X117230000Y-104200000D03*
X120170000Y-104200000D03*
X117230000Y-96000000D03*
X120170000Y-96000000D03*
%TD*%
D14*
%TO.C,J6*%
X151900000Y-97000000D03*
X151900000Y-86000000D03*
D15*
X151450000Y-94250000D03*
X151450000Y-93750000D03*
X151450000Y-93250000D03*
X151450000Y-92750000D03*
X151450000Y-92250000D03*
X151450000Y-91750000D03*
X151450000Y-91250000D03*
X151450000Y-90750000D03*
X151450000Y-90250000D03*
X151450000Y-89750000D03*
X151450000Y-89250000D03*
X151450000Y-88750000D03*
X154950000Y-88750000D03*
X154950000Y-89250000D03*
X154950000Y-89750000D03*
X154950000Y-90250000D03*
X154950000Y-90750000D03*
X154950000Y-91250000D03*
X154950000Y-91750000D03*
X154950000Y-92250000D03*
X154950000Y-92750000D03*
X154950000Y-93250000D03*
X154950000Y-93750000D03*
X154950000Y-94250000D03*
D16*
X151730000Y-95600000D03*
X154670000Y-95600000D03*
X151730000Y-87400000D03*
X154670000Y-87400000D03*
%TD*%
D17*
%TO.C,L1*%
X139250000Y-104450000D03*
X144750000Y-104450000D03*
%TD*%
D18*
%TO.C,C5*%
X136112500Y-99200000D03*
X132987500Y-99200000D03*
%TD*%
%TO.C,C6*%
X136062500Y-101800000D03*
X132937500Y-101800000D03*
%TD*%
D19*
%TO.C,R8*%
X130762500Y-94900000D03*
X128937500Y-94900000D03*
%TD*%
D20*
%TO.C,R15*%
X159100000Y-94137500D03*
X159100000Y-95962500D03*
%TD*%
D21*
%TO.C,J5*%
X142400000Y-96375000D03*
D22*
X144900000Y-96375000D03*
%TD*%
D23*
%TO.C,REF\u002A\u002A*%
X157000000Y-81000000D03*
%TD*%
D11*
%TO.C,C1*%
X126100000Y-104012500D03*
X126100000Y-100887500D03*
%TD*%
D20*
%TO.C,R2*%
X135860000Y-111487500D03*
X135860000Y-113312500D03*
%TD*%
D12*
%TO.C,R16*%
X148900000Y-92862500D03*
X148900000Y-91037500D03*
%TD*%
D24*
%TO.C,D2*%
X123500000Y-108175001D03*
X123500000Y-109924999D03*
%TD*%
D23*
%TO.C,REF\u002A\u002A*%
X118400000Y-81000000D03*
%TD*%
D25*
%TO.C,D1*%
X121400000Y-109874999D03*
X121400000Y-108125001D03*
%TD*%
D20*
%TO.C,R3*%
X134250000Y-111487500D03*
X134250000Y-113312500D03*
%TD*%
D19*
%TO.C,R7*%
X127212500Y-98550000D03*
X125387500Y-98550000D03*
%TD*%
D25*
%TO.C,D3*%
X125650000Y-109924999D03*
X125650000Y-108175001D03*
%TD*%
D23*
%TO.C,REF\u002A\u002A*%
X157000000Y-117000000D03*
%TD*%
D19*
%TO.C,R4*%
X143262500Y-110960000D03*
X141437500Y-110960000D03*
%TD*%
D18*
%TO.C,C3*%
X136112500Y-93850000D03*
X132987500Y-93850000D03*
%TD*%
D19*
%TO.C,R9*%
X127362500Y-94900000D03*
X125537500Y-94900000D03*
%TD*%
D24*
%TO.C,D4*%
X128150000Y-108175001D03*
X128150000Y-109924999D03*
%TD*%
D18*
%TO.C,C4*%
X136062500Y-96550000D03*
X132937500Y-96550000D03*
%TD*%
D26*
%TO.C,D5*%
X128675000Y-115250000D03*
D27*
X131215000Y-115250000D03*
%TD*%
D20*
%TO.C,R14*%
X157100000Y-96137500D03*
X157100000Y-97962500D03*
%TD*%
D28*
%TO.C,J3*%
X134050000Y-90300000D03*
D29*
X131550000Y-90300000D03*
X129549999Y-90300000D03*
X127050001Y-90300000D03*
D30*
X137120000Y-87590000D03*
X123980000Y-87590000D03*
%TD*%
D19*
%TO.C,R5*%
X143212500Y-109150000D03*
X141387500Y-109150000D03*
%TD*%
D31*
%TO.C,J1*%
X153000000Y-104600000D03*
D32*
X153000000Y-107100000D03*
%TD*%
D19*
%TO.C,R6*%
X130762500Y-98500000D03*
X128937500Y-98500000D03*
%TD*%
D33*
%TO.C,R10*%
X127337500Y-96750000D03*
X129162500Y-96750000D03*
%TD*%
D10*
%TO.C,C7*%
X147750000Y-104737500D03*
X147750000Y-107862500D03*
%TD*%
D20*
%TO.C,R11*%
X158100000Y-87187500D03*
X158100000Y-89012500D03*
%TD*%
%TO.C,R12*%
X159850000Y-87187500D03*
X159850000Y-89012500D03*
%TD*%
D12*
%TO.C,R1*%
X123950000Y-104462500D03*
X123950000Y-102637500D03*
%TD*%
D34*
%TO.C,DD1*%
X133750000Y-107400000D03*
D35*
X131187500Y-105495000D03*
X131187500Y-106765000D03*
X131187500Y-108035000D03*
X131187500Y-109305000D03*
X136312500Y-109305000D03*
X136312500Y-108035000D03*
X136312500Y-106765000D03*
X136312500Y-105495000D03*
%TD*%
D21*
%TO.C,J4*%
X142450000Y-89350000D03*
D22*
X144950000Y-89350000D03*
%TD*%
D23*
%TO.C,REF\u002A\u002A*%
X118400000Y-117000000D03*
%TD*%
M02*
